<svg xmlns="http://www.w3.org/2000/svg" viewBox="0 0 200 200"><defs><style>.cls-1{fill:#00c8c7;}.cls-2{fill:red;}.cls-3{fill:none;}</style></defs><g id="Calque_2" data-name="Calque 2"><path class="cls-1" d="M163.84,108.39a3,3,0,0,0-4.23.21l-7,7.73-1.54-1.72a3,3,0,1,0-4.46,4l3.76,4.2a3,3,0,0,0,2.23,1h0a3,3,0,0,0,2.23-1l9.23-10.2A3,3,0,0,0,163.84,108.39Z"/><path class="cls-1" d="M108.12,118.63h-6.73V75.4a3,3,0,0,0-3-3H29.54V46.16H39.73a3,3,0,0,0,0-6H26.54a3,3,0,0,0-3,3V75.4a3,3,0,0,0,3,3H95.39v40.23h-7a3,3,0,0,0-3,3v55a3,3,0,0,0,3,3h19.77a3,3,0,0,0,3-3v-55A3,3,0,0,0,108.12,118.63Zm-3,55H91.35v-49h13.77Z"/><path class="cls-2" d="M164.46,85.9c-2.17-3.86-4.21-7.52-5.91-10.92a3,3,0,0,0-5.37,0c-1.7,3.4-3.75,7.06-5.91,10.92-5.9,10.55-12,21.45-12,29.12a20.6,20.6,0,1,0,41.19,0C176.46,107.35,170.36,96.45,164.46,85.9Zm-8.6,43.72A14.62,14.62,0,0,1,141.27,115c0-6.1,6-16.77,11.24-26.19,1.16-2.07,2.29-4.09,3.35-6,1.07,2,2.2,4,3.36,6,5.27,9.42,11.24,20.09,11.24,26.19A14.62,14.62,0,0,1,155.86,129.62Z"/><path class="cls-2" d="M159,60.46V23.38a3,3,0,0,0-3-3H40.47a3,3,0,0,0-3,3V60.46a3,3,0,0,0,3,3H156A3,3,0,0,0,159,60.46Zm-6-3H43.47V38.69a3.31,3.31,0,0,0,.55.05H153Zm0-24.72H44a2.51,2.51,0,0,0-.55.06V26.38H153Z"/><rect class="cls-3" width="200" height="200"/></g></svg>