<svg xmlns="http://www.w3.org/2000/svg" viewBox="0 0 200 200"><defs><style>.cls-1{fill:red;}.cls-2{fill:#00c8c7;}.cls-3{fill:none;}</style></defs><g id="pictos"><path class="cls-1" d="M108.37,100.06a24.33,24.33,0,0,0-36.19,0l-3.74,4-3.74-4A24.48,24.48,0,0,0,46.61,92a24.26,24.26,0,0,0-12.78,3.67,26,26,0,0,0-5.32,4.39,28.75,28.75,0,0,0,0,38.4L49.7,161.34c4.56,4.92,16.17,16.09,16.66,16.56a3,3,0,0,0,4.2,0L85.3,163.2l1.8-1.78.08-.08L90,158.29l18.37-19.83A28.73,28.73,0,0,0,108.37,100.06ZM83.64,156.33l-.82.88L79,161,68.41,171.54c-3.64-3.53-11-10.73-14.31-14.28L34.49,136.08H52.25L60.8,147.5a3,3,0,0,0,2.4,1.21l.29,0A3,3,0,0,0,65.91,147l.14-.3,9.37-19.55L81.87,135a3,3,0,0,0,2.32,1.09h18.2ZM107,130.08H85.61L77.06,119.7a3,3,0,0,0-5,.61l-9.41,19.63-6.47-8.65a3,3,0,0,0-2.4-1.21H29.86a22.7,22.7,0,0,1,3-25.94c.46-.5,1-1,1.44-1.41A19,19,0,0,1,40,99.27,17.91,17.91,0,0,1,46.61,98a18.56,18.56,0,0,1,13.69,6.14l5.94,6.41a3.08,3.08,0,0,0,4.4,0l5.94-6.41a18.34,18.34,0,0,1,27.39,0A22.68,22.68,0,0,1,107,130.08Z"/><path class="cls-2" d="M134.15,26.82l-.62-.24A72.49,72.49,0,0,0,33.78,93.79c0,.63,0,1.25,0,1.88a24,24,0,0,1,6-2.68,67.1,67.1,0,0,1,1.9-15l8.65,8.64a6.36,6.36,0,0,0,4.53,1.9,6.53,6.53,0,0,0,2.36-.44,6.37,6.37,0,0,0,4.11-5.72l.56-12.23a.43.43,0,0,1,.28-.39l27.6-11A6.27,6.27,0,0,0,92,57.18L98,51.09a6.45,6.45,0,0,0-2.31-10.52l-5.81-2.23a.41.41,0,0,1-.28-.34l-1.4-8.2a66.32,66.32,0,0,1,38.28.58l-5.07,3.74a3,3,0,0,1-.58.33l-5.85,2.48A8.87,8.87,0,0,0,120,53.81l10.11-1.87a2.82,2.82,0,0,1,1.93.33l8.4,4.77a8.75,8.75,0,0,0,6.49.91l13.35-3a66.87,66.87,0,0,1,6.16,10.39l-14.86,3.52a3.69,3.69,0,0,1-2.11-.11l-25.58-9a9.79,9.79,0,0,0-9.55,1.76l-4.45,3.77a9.76,9.76,0,0,0-.67,14.25l6.61,6.77a9.71,9.71,0,0,0,6,2.89l14,1.34a3.74,3.74,0,0,1,3.29,2.85l6.44,26.54a9.76,9.76,0,0,0,3.22,5.19l10.53,8.8A66.46,66.46,0,0,1,90,158.29l-2.82,3.05-.08.08-1.8,1.78A72.52,72.52,0,0,0,134.15,26.82ZM93.5,46.17a.42.42,0,0,1,.27.32.41.41,0,0,1-.11.41L87.72,53a.39.39,0,0,1-.16.1L60,64.14a6.47,6.47,0,0,0-4.05,5.69l-.55,12.22a.42.42,0,0,1-.29.4.4.4,0,0,1-.48-.1L43.66,71.42a66.89,66.89,0,0,1,38.73-39.7L83.63,39A6.48,6.48,0,0,0,87.68,44Zm52,5.95a2.85,2.85,0,0,1-2.12-.29L135,47.05a8.89,8.89,0,0,0-6-1l-10.1,1.87a2.86,2.86,0,0,1-2.9-1.23,2.87,2.87,0,0,1,1.26-4.23L123.12,40a8.66,8.66,0,0,0,1.8-1l8.18-6a66.9,66.9,0,0,1,23,16.82Zm7.14,68.36a3.74,3.74,0,0,1-1.24-2L145,91.94a9.77,9.77,0,0,0-8.55-7.41l-14-1.33a3.76,3.76,0,0,1-2.33-1.11l-6.61-6.77a3.75,3.75,0,0,1,.26-5.48l4.45-3.77a3.76,3.76,0,0,1,3.67-.68l25.58,9a9.78,9.78,0,0,0,5.49.29l15.84-3.75a66.46,66.46,0,0,1-6,58Z"/></g><g id="Calque_2" data-name="Calque 2"><rect class="cls-3" width="200" height="200"/></g></svg>