<svg xmlns="http://www.w3.org/2000/svg" viewBox="0 0 200 200"><defs><style>.cls-1{fill:none;}.cls-2{fill:#fc1a20;}.cls-3{fill:#00c8c7;}</style></defs><g id="Calque_2" data-name="Calque 2"><path class="cls-1" d="M96,132l0,10.83h9V132a3,3,0,0,1,3-3H118v-9H107.9a3,3,0,0,1-3-3V106.9h-9V117a3,3,0,0,1-3,3H82.11v9H93A3,3,0,0,1,96,132Z"/><path class="cls-2" d="M79.11,135H89.9v10.83a3,3,0,0,0,3,3h15a3,3,0,0,0,3-3V135H121a3,3,0,0,0,3-3V117a3,3,0,0,0-3-3H111V103.9a3,3,0,0,0-3-3H93a3,3,0,0,0-3,3V114H79.11a3,3,0,0,0-3,3v15A3,3,0,0,0,79.11,135Zm3-15H92.9a3,3,0,0,0,3-3V106.9h9V117a3,3,0,0,0,3,3H118v9H107.9a3,3,0,0,0-3,3v10.83h-9L96,132a3,3,0,0,0-3-3H82.11Z"/><path class="cls-3" d="M174.22,109.43a3,3,0,0,0-1.69-1.82L145.38,96.27V51a3,3,0,0,0-3-3H121.79l-8.13-20.78a3,3,0,0,0-2.8-1.91H88.24a3,3,0,0,0-2.79,1.91L77.31,48H57.64a3,3,0,0,0-3,3V96.27L27.47,107.61a3,3,0,0,0-1.62,3.92,2.12,2.12,0,0,0,.18.37l27.53,46.95a19.39,19.39,0,0,1,3.35-.28,19.13,19.13,0,0,1,3.6.32L33,111.88,100,83.93l41.18,17.16,25.85,10.79-27.79,47.43a18.57,18.57,0,0,1,5.32-.74c.7,0,1.36,0,2,.1L173.94,112A3,3,0,0,0,174.22,109.43ZM90.29,31.27h18.53L115.38,48H83.76Zm49.09,62.52L101.15,77.88a3,3,0,0,0-2.3,0L60.64,93.79V54h78.74Z"/><path class="cls-2" d="M165.48,168.65c-2.95-.26-4.47-1.67-6.76-3.77-2.6-2.41-6.09-5.62-12.14-6.21-.64-.06-1.3-.1-2-.1a18.57,18.57,0,0,0-5.32.74c-4.07,1.2-6.72,3.64-8.82,5.57-2.57,2.36-4.12,3.8-7.77,3.8s-5.2-1.44-7.78-3.82c-2.88-2.65-6.83-6.29-14.14-6.29s-11.25,3.64-14.14,6.31c-2.57,2.36-4.12,3.8-7.77,3.8s-5.21-1.44-7.79-3.82c-2.36-2.18-5.46-5-10.54-6a19.13,19.13,0,0,0-3.6-.32,19.39,19.39,0,0,0-3.35.28c-5.23.9-8.38,3.8-10.79,6s-4,3.66-7.18,3.8a3,3,0,0,0,.29,6c5.45-.26,8.37-3,11-5.39s5.1-4.7,10.07-4.7,7.45,2.28,10.08,4.7c2.85,2.66,5.86,5.41,11.85,5.41s9-2.75,11.85-5.41c2.65-2.38,5.09-4.67,10.06-4.67s7.45,2.29,10.07,4.72c2.85,2.65,5.85,5.4,11.85,5.4s9-2.75,11.81-5.43c2.62-2.41,5.09-4.7,10.06-4.7s7.46,2.29,10.07,4.7,5.32,4.93,10.32,5.36a3,3,0,1,0,.51-6Z"/><rect class="cls-1" width="200" height="200"/></g></svg>