<svg xmlns="http://www.w3.org/2000/svg" viewBox="0 0 200 200"><defs><style>.cls-1{fill:red;}.cls-2{fill:#00c8c7;}.cls-3{fill:none;}</style></defs><g id="pictos"><path class="cls-1" d="M35.43,143.76h9.29v9.3a3,3,0,0,0,3,3H61a3,3,0,0,0,3-3v-9.3h8.63a3,3,0,0,0,3-3V127.48a3,3,0,0,0-3-3H64v-8.63a3,3,0,0,0-3-3H47.72a3,3,0,0,0-3,3v8.63H35.43a3,3,0,0,0-3,3v13.28A3,3,0,0,0,35.43,143.76Zm3-13.28h9.29a3,3,0,0,0,3-3v-8.63H58v8.63a3,3,0,0,0,3,3h8.63v7.28H61a3,3,0,0,0-3,3v9.3H50.72v-9.3a3,3,0,0,0-3-3H38.43Z"/><path class="cls-1" d="M147.89,116.68a17.59,17.59,0,0,1,8.67,2.29,3,3,0,1,0,3-5.21,23.55,23.55,0,0,0-33.24,11.07h-3.66a3,3,0,1,0,0,6h1.94a22.76,22.76,0,0,0-.25,3.42c0,.45,0,.9,0,1.35h-1.73a3,3,0,0,0,0,6h2.86a23.58,23.58,0,0,0,34,13.15,3,3,0,0,0-3-5.22A17.55,17.55,0,0,1,132,141.6h14.63a3,3,0,0,0,0-6h-16.2c0-.45-.06-.89-.06-1.35a17.55,17.55,0,0,1,.34-3.42h15.92a3,3,0,0,0,0-6h-13.5A17.58,17.58,0,0,1,147.89,116.68Z"/><path class="cls-2" d="M179,115.8,154.73,45.35a23.93,23.93,0,0,0-16-15.27l-.46-.13a23.54,23.54,0,0,0-20.63,4.13,24,24,0,0,0-9.46,19.3l.11,22.76H91.7l.11-22.76a24,24,0,0,0-9.46-19.3A23.54,23.54,0,0,0,61.72,30l-.47.13a23.94,23.94,0,0,0-16,15.27L21,115.8a37.63,37.63,0,0,0,32.68,55.07h.68a37.61,37.61,0,0,0,37.11-43.7l.21-45h16.64l.21,45a37.62,37.62,0,0,0,37.11,43.7h.68A37.63,37.63,0,0,0,179,115.8ZM50.94,47.3A17.93,17.93,0,0,1,62.88,35.85l.4-.11a17.58,17.58,0,0,1,15.41,3.1,18.09,18.09,0,0,1,7.12,14.51l-.27,58.88a37.77,37.77,0,0,0-4.13-5.1,37.61,37.61,0,0,0-49.73-3.9ZM76.3,156a31.63,31.63,0,0,1-53.58-23.32,32,32,0,0,1,.44-4.73,31.72,31.72,0,0,1,31.17-26.33h.57a31.67,31.67,0,0,1,30.57,26,32,32,0,0,1,.4,3.25c.07.95.11,1.91.09,2.89A31.42,31.42,0,0,1,76.3,156Zm45-117.17a17.59,17.59,0,0,1,15.41-3.1l.39.11A17.92,17.92,0,0,1,149.06,47.3l19.26,55.93a37.61,37.61,0,0,0-49.73,3.9,37.77,37.77,0,0,0-4.13,5.1l-.27-58.88A18.09,18.09,0,0,1,121.31,38.84Zm47.1,116.38a31.45,31.45,0,0,1-22.19,9.65h-.58A31.63,31.63,0,0,1,114,133.82c0-1,0-1.94.09-2.89a32,32,0,0,1,.4-3.25,31.67,31.67,0,0,1,30.57-26h.57A31.72,31.72,0,0,1,176.84,128a32,32,0,0,1,.44,4.73A31.42,31.42,0,0,1,168.41,155.22Z"/></g><g id="Calque_2" data-name="Calque 2"><rect class="cls-3" width="200" height="200"/></g></svg>