<svg xmlns="http://www.w3.org/2000/svg" viewBox="0 0 200 200"><defs><style>.cls-1{fill:#00c8c7;}.cls-2{fill:red;}.cls-3{fill:none;}</style></defs><g id="pictos"><path class="cls-1" d="M177.9,141.19l-24.41-24.41a10.52,10.52,0,0,0-7.48-3.1H122.65l-.42,0a3.57,3.57,0,0,0-.46,0c-7.55.22-10.55-8.19-11.6-12.59-.36-1.53-.49-2.57-.5-2.61a3,3,0,0,0-2.53-2.61,2.92,2.92,0,0,0-.78,0,3,3,0,0,0-1.8.89,3,3,0,0,0-.85,2.42,30.42,30.42,0,0,0,.68,3.73c1.45,5.91,5,13.29,11.77,15.87a6.5,6.5,0,0,0-.21,1.88l.77,22.51a10.5,10.5,0,0,0,3.1,7.12l24.51,24.52a10.59,10.59,0,0,0,15,0l18.6-18.6A10.59,10.59,0,0,0,177.9,141.19Zm-4.24,10.72-18.6,18.6a4.59,4.59,0,0,1-6.49,0L124.06,146h0a4.56,4.56,0,0,1-1.34-3.09L122,120.4a.67.67,0,0,1,.2-.51.65.65,0,0,1,.5-.21H146a4.59,4.59,0,0,1,3.24,1.34l24.41,24.41A4.6,4.6,0,0,1,173.66,151.91Z"/><path class="cls-1" d="M130.59,127.44a8.45,8.45,0,1,0,11.94,0A8.45,8.45,0,0,0,130.59,127.44Zm7.7,7.71a2.45,2.45,0,1,1-3.46-3.46,2.44,2.44,0,0,1,3.46,0A2.46,2.46,0,0,1,138.29,135.15Z"/><path class="cls-2" d="M104.56,96.71c-5.1,1.25-10.82.35-14-.38l6.13-18.5c0-.06,0-.12,0-.19l18.46-.22c.53,8-1.21,13.65-5.18,16.76a13,13,0,0,1-2.85,1.67,3,3,0,0,1,2.53,2.61s.14,1.08.5,2.61a19.12,19.12,0,0,0,3.51-2.15c5.57-4.37,8.09-11.63,7.5-21.57l45.57-.56a3,3,0,0,0,3-3l-.38-30.93a3,3,0,0,0-.9-2.12,3.24,3.24,0,0,0-2.13-.85L30.41,41.51a3,3,0,0,0-3,3l.37,30.94a3,3,0,0,0,3,3h0l11.36-.13,0,3.62A3.22,3.22,0,0,0,42.47,83l6.41,16.48L32.16,140.56a3,3,0,0,0,2.78,4.13h0l37.57-.46a3,3,0,0,0,2.81-2l13.29-40.13a44.73,44.73,0,0,0,10.26,1.28,31.4,31.4,0,0,0,5.49-.47,30.42,30.42,0,0,1-.68-3.73A3,3,0,0,1,104.56,96.71ZM45.18,72.27h0l-11.36.14-.3-24.94L163.37,45.9l.3,24.93L45.19,72.27Zm25.15,66-30.91.38,15.47-38a3,3,0,0,0,0-2.21L48.26,81.32l0-3.09,42.16-.51Z"/></g><g id="Calque_2" data-name="Calque 2"><rect class="cls-3" width="200" height="200"/></g></svg>