<svg xmlns="http://www.w3.org/2000/svg" viewBox="0 0 200 200"><defs><style>.cls-1{fill:none;}.cls-2{fill:red;}.cls-3{fill:#00c8c7;}</style></defs><g id="padding"><path class="cls-1" d="M134.75,100V71.86l-29.09,13a13.74,13.74,0,0,1-11.13,0l-29.1-13v28a8.16,8.16,0,0,0,4.95,7.5c11.62,5,34.81,11.61,59.66.07A8.19,8.19,0,0,0,134.75,100Z"/><path class="cls-1" d="M103.21,79.34,136.53,64.5l22.12-9.86L103.21,30A7.7,7.7,0,0,0,97,30L41.53,54.66l17.9,8h0l4.08,1.81.15.07L97,79.34A7.7,7.7,0,0,0,103.21,79.34Z"/><path class="cls-1" d="M41.3,147.79a11.91,11.91,0,1,0,11.91,11.9A11.92,11.92,0,0,0,41.3,147.79Z"/><polygon class="cls-1" points="43.87 122 50.12 122 47.1 114.95 43.87 122"/><path class="cls-1" d="M94.42,143.08h-.1a5.22,5.22,0,0,0-5.12,5.32,5.22,5.22,0,0,0,5.22,5.12h.1a5.22,5.22,0,0,0-.1-10.44Z"/><path class="cls-1" d="M163.8,152.8a9.84,9.84,0,0,0-2.27-.27,9.45,9.45,0,1,0,2.27.27Z"/><path class="cls-2" d="M49.78,143.93a18.1,18.1,0,1,0,4.72,3.71l26.32-30.43c-2.25-.58-4.37-1.21-6.32-1.87ZM41.3,171.6a11.91,11.91,0,1,1,11.91-11.91A11.92,11.92,0,0,1,41.3,171.6Z"/><path class="cls-2" d="M165.24,147a15.35,15.35,0,0,0-10.69,1.23l-27.53-33q-3.1,1.15-6.16,2l29,34.75a15.45,15.45,0,0,0,8,25.11,15.75,15.75,0,0,0,3.71.45,15.5,15.5,0,0,0,15-11.76h0A15.49,15.49,0,0,0,165.24,147Zm5.48,17.29a9.47,9.47,0,1,1-9.19-11.74,9.84,9.84,0,0,1,2.27.27A9.48,9.48,0,0,1,170.72,164.27Z"/><path class="cls-2" d="M92.88,137.19a11.22,11.22,0,0,0,1.54,22.33h.21A11.22,11.22,0,0,0,98.84,138l1.66-18.17c-2,0-4-.12-6-.28Zm6.76,11a5.22,5.22,0,0,1-5.12,5.32h-.1a5.22,5.22,0,0,1-5.22-5.12,5.22,5.22,0,0,1,5.12-5.32h.1A5.23,5.23,0,0,1,99.64,148.2Z"/><path class="cls-3" d="M161.09,49.18,105.66,24.49a13.66,13.66,0,0,0-11.13,0L39.09,49.18a6,6,0,0,0,0,10.94l4.81,2.15.1,45.5a4.34,4.34,0,0,0-.7,1.06l-6,13.17a4.23,4.23,0,0,0,3.85,6H52.8a4.23,4.23,0,0,0,3.89-5.9l-5.64-13.18a4.4,4.4,0,0,0-1-1.46l-.1-42.52,9.53,4.25V99.85a14.16,14.16,0,0,0,8.59,13c1.89.81,4.06,1.66,6.48,2.47,2,.66,4.07,1.29,6.32,1.87a83.17,83.17,0,0,0,13.68,2.33c2,.16,4,.26,6,.28h.59a74.64,74.64,0,0,0,19.77-2.67q3.06-.84,6.16-2,2.76-1,5.55-2.31A14.2,14.2,0,0,0,140.75,100V69.19l20.34-9.06a6,6,0,0,0,0-11ZM50.12,122H43.87l3.23-7Zm84.63-22a8.19,8.19,0,0,1-4.71,7.41c-24.85,11.54-48,4.91-59.66-.07a8.16,8.16,0,0,1-4.95-7.5v-28l29.1,13a13.74,13.74,0,0,0,11.13,0l29.09-13Zm1.78-35.51L103.21,79.34a7.7,7.7,0,0,1-6.24,0L63.66,64.5l-.15-.07-4.08-1.81h0l-17.9-8L97,30a7.7,7.7,0,0,1,6.24,0l55.44,24.67Z"/></g><g id="Calque_2" data-name="Calque 2"><rect class="cls-1" width="200" height="200"/></g></svg>