<svg xmlns="http://www.w3.org/2000/svg" viewBox="0 0 200 200"><defs><style>.cls-1{fill:none;}.cls-2{fill:red;}.cls-3{fill:#34bab5;}</style></defs><g id="Calque_1" data-name="Calque 1"><g id="frame"><rect class="cls-1" width="200" height="200"/></g></g><g id="pictos"><path class="cls-2" d="M75,182.8,22.35,152.4V91.6L75,61.2l39.26,22.67a3,3,0,0,1-3,5.2L75,68.13,28.35,95.07v53.86L75,175.87l48.15-27.8a3,3,0,1,1,3,5.19Z"/><path class="cls-2" d="M125.15,111.17a17,17,0,1,1,17-17A17,17,0,0,1,125.15,111.17Zm0-28a11,11,0,1,0,11,11A11,11,0,0,0,125.15,83.17Z"/><path class="cls-3" d="M75.15,122.17a17,17,0,1,1,17-17A17,17,0,0,1,75.15,122.17Zm0-28a11,11,0,1,0,11,11A11,11,0,0,0,75.15,94.17Z"/><path class="cls-3" d="M125,138.8,85.48,115.59a3,3,0,0,1,3-5.18L125,131.86l46.64-26.93V51.07L125,24.13,78.35,51.07v14.1a3,3,0,0,1-6,0V47.6L125,17.2l52.65,30.4v60.8Z"/><path class="cls-2" d="M124.65,153.67a3,3,0,0,1-3-3v-16.5a3,3,0,0,1,6,0v16.5A3,3,0,0,1,124.65,153.67Z"/></g></svg>