<svg xmlns="http://www.w3.org/2000/svg" viewBox="0 0 200 200"><defs><style>.cls-1{fill:#34bab5;}.cls-2{fill:red;}.cls-3{fill:none;}</style></defs><g id="pictos"><g id="g5012"><path class="cls-1" d="M47.1,114.83A15.85,15.85,0,0,1,35.9,87.77h0a15.85,15.85,0,1,1,11.2,27.06ZM40.14,92h0a9.85,9.85,0,1,0,13.92,0A9.85,9.85,0,0,0,40.14,92Z"/><g id="circle4798"><path class="cls-1" d="M167.25,64.24l-59.7-34.46a3,3,0,0,0-3,0L45.9,63.64a3,3,0,0,0-1.5,2.6V86.43a12.82,12.82,0,0,1,6,.14V68l55.65-32.13,56.7,32.73v63.26l-56.1,32.39L83.36,152.49a13,13,0,0,1-2.85,4.34c-.22.21-.45.41-.67.6l25.55,12.88a3.08,3.08,0,0,0,1.35.32,3,3,0,0,0,1.5-.41l59-34.06a3,3,0,0,0,1.5-2.6V66.84A3,3,0,0,0,167.25,64.24Z"/><path class="cls-1" d="M71.42,163.59a15.85,15.85,0,0,1-11.2-27.05h0a15.85,15.85,0,1,1,11.2,27.05Zm0-25.69a9.81,9.81,0,0,0-7,2.88h0a9.86,9.86,0,1,0,7-2.88Zm-9.08.76h0Z"/></g><g id="circle4802"><path class="cls-2" d="M108.4,87.47a11.24,11.24,0,0,1-3.66,0,3,3,0,0,0-1.17,2.36v37.63a3,3,0,0,0,6,0V89.83A3,3,0,0,0,108.4,87.47Z"/><path class="cls-2" d="M106.57,90.62a15.85,15.85,0,1,1,15.85-15.85A15.87,15.87,0,0,1,106.57,90.62Zm0-25.69a9.85,9.85,0,1,0,9.85,9.84A9.85,9.85,0,0,0,106.57,64.93Z"/></g></g></g><g id="frame"><rect class="cls-3" width="200" height="200"/></g></svg>