<svg xmlns="http://www.w3.org/2000/svg" viewBox="0 0 200 200"><defs><style>.cls-1{fill:red;}.cls-2{fill:#34bab5;}.cls-3{fill:none;}</style></defs><g id="pictos"><g id="g4743"><g id="g4733"><path class="cls-1" d="M179.23,76.19H121.67a3,3,0,0,0,0,6h54.56v35.6h-12.7a15.86,15.86,0,1,0,0,6h15.72a3,3,0,0,0,3-3V79.19A3,3,0,0,0,179.23,76.19ZM148,130.6a9.85,9.85,0,1,1,9.84-9.85A9.86,9.86,0,0,1,148,130.6Z"/><path class="cls-1" d="M78.33,117.59H24V82.39H36.33a15.86,15.86,0,1,0,.16-6.4H20.77a3.2,3.2,0,0,0-3.2,3.2v41.6a3.21,3.21,0,0,0,3.2,3.2H78.33a3.2,3.2,0,0,0,0-6.4ZM51.91,69.72a9.85,9.85,0,1,1-9.85,9.85A9.86,9.86,0,0,1,51.91,69.72Z"/><path class="cls-2" d="M136.38,148.23a15.85,15.85,0,1,0-18.49,15.61v12.59H82.29v-68a3,3,0,0,0-6,0v71a3,3,0,0,0,3,3h41.6a3,3,0,0,0,3-3V163.71A15.88,15.88,0,0,0,136.38,148.23Zm-15.84,9.85a9.85,9.85,0,1,1,9.84-9.85A9.86,9.86,0,0,1,120.54,158.08Z"/><path class="cls-2" d="M120.89,17.57H79.29a3,3,0,0,0-3,3V36.31a15.87,15.87,0,1,0,6,0V23.57h35.6v67.9a3,3,0,0,0,6,0V20.57A3,3,0,0,0,120.89,17.57ZM89.24,51.85A9.85,9.85,0,1,1,79.39,42,9.86,9.86,0,0,1,89.24,51.85Z"/></g></g></g><g id="frame"><rect class="cls-3" width="200" height="200"/></g></svg>