<svg xmlns="http://www.w3.org/2000/svg" viewBox="0 0 200 200"><defs><style>.cls-1{fill:#34bab5;}.cls-2{fill:red;}.cls-3{fill:none;}</style></defs><g id="pictos"><g id="rect4924"><path class="cls-1" d="M165.29,131.77H34.71a3,3,0,0,1-3-3V42.9a3,3,0,0,1,3-3H165.29a3,3,0,0,1,3,3v85.87A3,3,0,0,1,165.29,131.77Zm-127.58-6H162.29V45.9H37.71Z"/></g><g id="g5035"><g id="path4934"><path class="cls-1" d="M141.67,160.1H58.33a3,3,0,0,1,0-6h83.34a3,3,0,0,1,0,6Z"/></g><g id="path4938"><path class="cls-1" d="M100,156.48a3,3,0,0,1-3-3V132.57a3,3,0,0,1,6,0v20.91A3,3,0,0,1,100,156.48Z"/></g><g id="circle4942"><path class="cls-2" d="M100,120.55a15.85,15.85,0,1,1,15.85-15.84A15.87,15.87,0,0,1,100,120.55Zm0-25.69a9.85,9.85,0,1,0,9.85,9.85A9.86,9.86,0,0,0,100,94.86Z"/></g><g id="path4946"><path class="cls-2" d="M95,93.41a3,3,0,0,1-3-3V62.19a3,3,0,1,1,6,0V90.41A3,3,0,0,1,95,93.41Z"/></g><g id="path4948"><path class="cls-2" d="M103.85,92.78a3,3,0,0,1-3-3V55.27a3,3,0,0,1,6,0V89.78A3,3,0,0,1,103.85,92.78Z"/></g><g id="path4950"><path class="cls-2" d="M104.63,85.89A3,3,0,0,1,102.32,81l10.44-12.64a3,3,0,0,1,4.62,3.82L106.94,84.8A3,3,0,0,1,104.63,85.89Z"/></g><g id="path4952"><path class="cls-2" d="M93.94,92.53a3,3,0,0,1-2.32-1.09L81.18,78.8A3,3,0,1,1,85.81,75L96.25,87.62a3,3,0,0,1-.41,4.22A3,3,0,0,1,93.94,92.53Z"/></g><g id="path4956"><path class="cls-2" d="M93.93,76.67a3,3,0,0,1-2.24-1l-8-9a3,3,0,1,1,4.48-4l8,9a3,3,0,0,1-2.24,5Z"/></g><g id="path4958"><path class="cls-2" d="M104.63,70.47a3,3,0,0,1-2.24-5l8-9a3,3,0,1,1,4.47,4l-8,9A3,3,0,0,1,104.63,70.47Z"/></g></g></g><g id="frame"><rect class="cls-3" width="200" height="200"/></g></svg>