<svg xmlns="http://www.w3.org/2000/svg" viewBox="0 0 200 200"><defs><style>.cls-1{fill:red;}.cls-2{fill:#34bab5;}.cls-3{fill:none;}</style></defs><g id="pictos"><g id="g17713"><g id="path4752"><path class="cls-1" d="M178.75,105a3,3,0,0,0-4.25,0l-22.07,21.83L175,89.07A3,3,0,0,0,169.89,86l-19.36,32.28L166.9,66.91a3,3,0,0,0-5.72-1.82L141.76,126,140.27,143l-19.64-.11L60.26,155.21a3.2,3.2,0,0,0,.64,6.34,3.55,3.55,0,0,0,.64-.06l51.05-10.44L80,166.15a3.2,3.2,0,0,0,1.34,6.11,3.08,3.08,0,0,0,1.35-.3l38.38-17.78L98.26,172.81a3.2,3.2,0,0,0,2,5.68,3.15,3.15,0,0,0,2-.72l39.07-31.9a3.12,3.12,0,0,0,.84-.57l36.5-36.11A3,3,0,0,0,178.75,105Z"/><path class="cls-2" d="M140.27,146h0l-43.6-.24a3,3,0,0,1-2.92-2.38l-8-37.79-64.67-79a3,3,0,0,1,4.24-4.2l78.17,65.43,41.24,8.23a3,3,0,0,1,2.4,3.21l-3.87,44A3,3,0,0,1,140.27,146ZM99.1,139.75l38.42.22,3.39-38.54-39.36-7.86a3.09,3.09,0,0,1-1.34-.64L45.92,47.48l44.92,54.85a2.94,2.94,0,0,1,.62,1.28Z"/></g><g id="circle4742"><path class="cls-2" d="M116.3,133.52c-.27,0-.54,0-.81,0a15.84,15.84,0,1,1,1.59-31.65h0a15.84,15.84,0,0,1-.78,31.67Zm0-25.69a9.8,9.8,0,1,0,.5,0h-.5Z"/></g></g></g><g id="frame"><rect class="cls-3" width="200" height="200"/></g></svg>