<svg xmlns="http://www.w3.org/2000/svg" viewBox="0 0 200 200"><defs><style>.cls-1{fill:red;}.cls-2{fill:#34bab5;}.cls-3{fill:none;}</style></defs><g id="pictos"><g id="g17742"><path class="cls-1" d="M160.1,144.39a15.85,15.85,0,0,0-16.43-11.72L139,115.15l-.07-27.09a3,3,0,0,0-.08-.68,4.5,4.5,0,0,0-.08-.51L123.37,29.2l7.21-1.93a3,3,0,1,0-1.54-5.8L95.15,30.52a3,3,0,0,0,1.55,5.8l7.21-1.93,15.4,57.68a2.92,2.92,0,0,0,.21.56,2.56,2.56,0,0,0,.31.82L133.27,117l4.61,17.24a15.83,15.83,0,0,0-8.4,18.35,15.85,15.85,0,0,0,30.62-8.18ZM109.71,32.84l7.86-2.1L132.2,85.52l-7.87,2.1ZM126.6,93.22l6.34-1.69,0,12.83Zm26.71,60.19A9.85,9.85,0,1,1,142.25,139a10.08,10.08,0,0,1,2.55-.33,9.85,9.85,0,0,1,8.51,14.78Z"/><path class="cls-2" d="M106.54,158.69A15.85,15.85,0,0,0,90.11,147l-4.68-17.52-.06-27.1a3,3,0,0,0-.08-.67,3,3,0,0,0-.09-.51L69.81,43.49,77,41.57a3,3,0,1,0-1.55-5.8l-33.88,9a3,3,0,0,0,.77,5.9,2.87,2.87,0,0,0,.77-.11l7.22-1.92,15.39,57.67a3.11,3.11,0,0,0,.22.56,2.76,2.76,0,0,0,.3.83l13.45,23.52,4.61,17.25a15.84,15.84,0,1,0,22.22,10.17ZM56.15,47.14,64,45,78.63,99.82l-7.86,2.1ZM73,107.52l6.34-1.69,0,12.82Zm20.73,64.77a9.85,9.85,0,1,1-5.08-19,10.1,10.1,0,0,1,2.55-.34,9.85,9.85,0,0,1,2.53,19.37Z"/></g></g><g id="frame"><rect class="cls-3" width="200" height="200"/></g></svg>