<svg xmlns="http://www.w3.org/2000/svg" viewBox="0 0 200 200"><defs><style>.cls-1{fill:none;}.cls-2{fill:#34bab5;}.cls-3{fill:red;}</style></defs><g id="pictos"><polygon class="cls-1" points="89.2 115.16 99.74 120.64 110.72 114.92 100.24 104.09 89.2 115.16"/><polygon class="cls-1" points="93.86 75.72 67.53 61.67 85.39 80.13 93.86 75.72"/><path class="cls-1" d="M107.56,103l8.71,9,17.11-8.93V103Z"/><polygon class="cls-1" points="106.72 75.78 115.4 80.41 134.44 61.33 106.72 75.78"/><polygon class="cls-1" points="100.28 79.14 89.75 84.63 100.31 95.53 110.97 84.84 100.28 79.14"/><path class="cls-1" d="M84.2,87.52,66.6,96.7l.06.34H93.4Z"/><path class="cls-1" d="M66.6,53c-.09.4-.19.79-.31,1.18l34,18.14,33.6-17.52A16,16,0,0,1,133.4,53Z"/><path class="cls-1" d="M133.32,97c0-.07,0-.15,0-.23l-16.85-9L107.29,97Z"/><polygon class="cls-1" points="66.35 138.06 93.25 124.03 84.76 119.61 66.35 138.06"/><path class="cls-1" d="M66.65,103c0,.11-.05.22-.07.33l17,8.88,9.2-9.22Z"/><path class="cls-1" d="M66.53,146.72h66.94a14.79,14.79,0,0,1,.43-1.52L99.74,127.41,66,145A14.32,14.32,0,0,1,66.53,146.72Z"/><polygon class="cls-1" points="133.07 138 115.07 119.42 106.23 124.03 133.07 138"/><polygon class="cls-2" points="99.21 103.03 92.83 103.03 83.62 112.25 89.2 115.16 100.24 104.09 99.21 103.03"/><polygon class="cls-2" points="107.29 97.03 116.51 87.79 110.97 84.84 100.31 95.53 101.75 97.03 107.29 97.03"/><path class="cls-2" d="M133.38,103.1,116.27,112l4.35,4.49,15.1-7.87A15.73,15.73,0,0,1,133.38,103.1Z"/><polygon class="cls-2" points="106.23 124.03 115.07 119.42 110.72 114.92 99.74 120.64 106.23 124.03"/><path class="cls-2" d="M137.41,53h-.92c0,.14.07.29.11.43Z"/><path class="cls-2" d="M148.9,33.89A15.86,15.86,0,0,0,133.3,47a16.28,16.28,0,0,0-.25,2.72A15.4,15.4,0,0,0,133.4,53a15.94,15.94,0,0,0,3,6.39l-1.93,1.93-19,19.07,5.53,3,19.94-20a15.68,15.68,0,0,0,8,2.21,15.85,15.85,0,1,0,0-31.69Zm0,25.69a9.86,9.86,0,0,1-3.57-.68,9.63,9.63,0,0,1-2.88-1.75,10,10,0,0,1-1.8-2,9.85,9.85,0,1,1,8.25,4.48Z"/><path class="cls-3" d="M65.94,103l.64.33c0-.11,0-.22.07-.33Z"/><path class="cls-3" d="M65.94,97h.72l-.06-.34Z"/><path class="cls-3" d="M133.37,103v.09l.17-.09Z"/><path class="cls-3" d="M133.8,97l-.44-.23c0,.08,0,.16,0,.23Z"/><path class="cls-3" d="M148.9,84a15.83,15.83,0,0,0-13.25,7.18l-14.72-7.84-5.53-3-8.68-4.62,27.72-14.45,1.93-1.93a15.83,15.83,0,0,1-2.46-4.56l-33.6,17.52-34-18.14c.12-.39.22-.78.31-1.18l66.8,0a15.4,15.4,0,0,1-.35-3.28A16.28,16.28,0,0,1,133.3,47L66.7,47a15.86,15.86,0,1,0-6.53,15.67L79.84,83,64.25,91.16a15.86,15.86,0,1,0,0,17.74l15,7.8,5.58,2.91L93.25,124l6.49,3.38L133.9,145.2a15.82,15.82,0,0,1,6.48-8.27l-19.76-20.41L116.27,112l-8.71-9h26l-.17.09A15.85,15.85,0,1,0,148.9,84Zm-93-25.71a9.74,9.74,0,0,1-4.82,1.27A9.85,9.85,0,1,1,60.57,47,10,10,0,0,1,61,49.73,9.85,9.85,0,0,1,55.92,58.31Zm2.9,47.79A9.8,9.8,0,1,1,61,100,9.83,9.83,0,0,1,58.82,106.1Zm8.7-44.43,26.34,14-8.47,4.41Zm-.92,35,17.6-9.18L93.4,97H65.94Zm44.12,18.22,4.35,4.5,18,18.58-26.84-14-6.49-3.38L89.2,115.16l-5.58-2.91-17-8.88-.64-.33H99.21l1,1.06ZM133.32,97H101.75l-1.45-1.5L89.75,84.63l10.53-5.49L111,84.84l5.54,3,16.85,9,.44.23Zm15.58,12.7a9.84,9.84,0,0,1-7.81-3.86,9.57,9.57,0,0,1-1.51-2.84,9.72,9.72,0,0,1-.52-2.87c0-.09,0-.18,0-.27a9.85,9.85,0,1,1,9.85,9.84Z"/><path class="cls-2" d="M62.72,146.72h.72l-.09-.33Z"/><path class="cls-2" d="M136.81,146.72l-.22-.12,0,.12Z"/><path class="cls-2" d="M148.9,134.42a15.9,15.9,0,0,0-15,10.78,14.79,14.79,0,0,0-.43,1.52H66.53A14.32,14.32,0,0,0,66,145l33.71-17.58L93.25,124l-26.9,14,18.41-18.45-5.58-2.91-19.94,20a15.84,15.84,0,1,0,7.5,16h66.52a15.84,15.84,0,1,0,15.64-18.3Zm-88.27,18.3a9.8,9.8,0,1,1,.32-2.45A10,10,0,0,1,60.63,152.72Zm88.27,7.39a9.86,9.86,0,0,1-9.53-7.39,10,10,0,0,1-.32-2.45,9.76,9.76,0,0,1,.27-2.25,9.33,9.33,0,0,1,.4-1.3,9.92,9.92,0,0,1,5-5.34,9.74,9.74,0,0,1,4.21-1,9.85,9.85,0,1,1,0,19.69Z"/></g><g id="frame"><rect class="cls-1" width="200" height="200"/></g></svg>