<svg xmlns="http://www.w3.org/2000/svg" viewBox="0 0 200 200"><defs><style>.cls-1{fill:#34bab5;}.cls-2{fill:red;}.cls-3{fill:none;}</style></defs><g id="pictos"><g id="g17763"><path class="cls-1" d="M142.8,19.8H57.2a3,3,0,0,0-3,3V177.2a3,3,0,0,0,3,3h85.6a3,3,0,0,0,3-3V22.8A3,3,0,0,0,142.8,19.8Zm-3,6V130.6H60.2V25.8ZM60.2,174.2V137h79.6v37.2Z"/><g id="circle4341"><path class="cls-2" d="M99.85,172.11a15.85,15.85,0,1,1,15.84-15.85A15.87,15.87,0,0,1,99.85,172.11Zm0-25.69a9.85,9.85,0,1,0,9.84,9.84A9.85,9.85,0,0,0,99.85,146.42Z"/></g></g></g><g id="frame"><rect class="cls-3" width="200" height="200"/></g></svg>