<svg xmlns="http://www.w3.org/2000/svg" viewBox="0 0 200 200"><defs><style>.cls-1{fill:none;}.cls-2{fill:red;}.cls-3{fill:#34bab5;}</style></defs><g id="pictos"><path class="cls-1" d="M62.46,127.7a9.84,9.84,0,1,0,7,2.88A9.81,9.81,0,0,0,62.46,127.7Z"/><path class="cls-1" d="M126.5,73.5a15.87,15.87,0,0,1-1.68-20.39L101.16,29.45,75,55.58H91.54a3,3,0,0,1,3,3V91.39a3,3,0,0,1-3,3h-.11l-.18,0H58.44a3,3,0,0,1-3-3V74.88L29.3,101l23.78,23.78a15.87,15.87,0,0,1,20.59,1.54h0a15.87,15.87,0,0,1,1.54,20.59l23.63,23.63L125,144.42H108.46a3,3,0,0,1-3-3V108.61a3,3,0,0,1,3-3h.11l.18,0h32.81a3,3,0,0,1,3,3v16.52L170.7,99,146.9,75.18a15.84,15.84,0,0,1-20.4-1.68Z"/><path class="cls-1" d="M144.67,69.25a9.84,9.84,0,1,0-13.92,0A9.78,9.78,0,0,0,144.67,69.25Z"/><path class="cls-2" d="M53.08,124.79,29.3,101,55.44,74.88V91.4a3,3,0,0,0,3,3H91.25l.18,0h.11a3,3,0,0,0,3-3V58.58a3,3,0,0,0-3-3H75l26.13-26.13,23.66,23.66A15.82,15.82,0,0,0,146.9,75.18L144.75,73a13.35,13.35,0,0,0,2-1.66,12.67,12.67,0,0,0,2.06-2.72L151,70.85A15.84,15.84,0,0,0,129.15,49L103.28,23.08a3.1,3.1,0,0,0-4.24,0L65.66,56.46a3,3,0,0,0,2.12,5.12H88.54V88.4H61.44V67.64a3,3,0,0,0-5.13-2.12L22.94,98.89a3,3,0,0,0,0,4.25L49,129.2a16.26,16.26,0,0,1,2.25-2.87A16.58,16.58,0,0,1,53.08,124.79Zm77.67-69.46a9.84,9.84,0,1,1,0,13.92A9.78,9.78,0,0,1,130.75,55.33Z"/><path class="cls-3" d="M177.06,96.86l-26-26a16.18,16.18,0,0,1-2.13,2.65,15.84,15.84,0,0,1-2,1.68L170.7,99l-26.14,26.13V108.6a3,3,0,0,0-3-3H108.75l-.18,0h-.11a3,3,0,0,0-3,3v32.81a3,3,0,0,0,3,3H125L98.84,170.55,75.21,146.92a15.87,15.87,0,0,0-1.54-20.59h0a15.87,15.87,0,0,0-20.59-1.54,16.58,16.58,0,0,0-1.83,1.54A16.26,16.26,0,0,0,49,129.2a15.83,15.83,0,0,0,13.46,24.19h0A15.67,15.67,0,0,0,70.8,151l25.92,25.92a3,3,0,0,0,4.24,0l33.38-33.38a3,3,0,0,0-2.12-5.12H111.46V111.6h27.1v20.76a3,3,0,0,0,1.86,2.77,2.87,2.87,0,0,0,1.14.23,3,3,0,0,0,2.13-.88l33.37-33.37a3,3,0,0,0,0-4.25ZM69.42,144.5a9.84,9.84,0,1,1,0-13.92A9.78,9.78,0,0,1,69.42,144.5Z"/><path class="cls-2" d="M146.79,71.38a13.35,13.35,0,0,1-2,1.66l2.15,2.14a15.84,15.84,0,0,0,2-1.68A16.18,16.18,0,0,0,151,70.85l-2.19-2.19A12.67,12.67,0,0,1,146.79,71.38Z"/></g><g id="frame"><rect class="cls-1" width="200" height="200"/></g></svg>