<svg xmlns="http://www.w3.org/2000/svg" viewBox="0 0 200 200"><defs><style>.cls-1{fill:#34bab5;}.cls-2{fill:red;}.cls-3{fill:none;}</style></defs><g id="pictos"><path class="cls-1" d="M166.66,115.63l-19.47-11.24a12.7,12.7,0,0,1-3,5.18l18,10.39v28.52h-12a15.7,15.7,0,0,0-4.16-7.36,15.86,15.86,0,0,0-22.41,0h0A15.85,15.85,0,0,0,146,163.53a15.68,15.68,0,0,0,4.48-9.05h14.68a3,3,0,0,0,3-3V118.23A3,3,0,0,0,166.66,115.63Zm-24.9,43.66a9.85,9.85,0,0,1-13.93-13.93h0a9.85,9.85,0,0,1,13.93,13.93Z"/><path class="cls-1" d="M53.4,86h50L122.56,97.1a12.69,12.69,0,0,1,3-5.21L105.7,80.44a3,3,0,0,0-1.5-.4h-52a3,3,0,0,0-2.12.88L28,103a3,3,0,0,0-.88,2.12v45.82a3,3,0,0,0,3,3H42.85a15.83,15.83,0,1,0,4.5-13.13h0a15.8,15.8,0,0,0-4.09,7.13H33.09V106.34Zm-1.81,59a9.85,9.85,0,1,1,0,13.92A9.86,9.86,0,0,1,51.59,145Z"/><path class="cls-2" d="M157.06,63.52a15.85,15.85,0,1,0-11.21-27.05h0A15.87,15.87,0,0,0,144.27,57l-14.8,14.07a3,3,0,0,0,2.06,5.17l21.25.07L141.85,86.45a15.9,15.9,0,1,0,4.85,3.68l15.75-14.59a3,3,0,0,0-2-5.2L139,70.28l9.64-9.17A15.82,15.82,0,0,0,157.06,63.52Zm-15.2,44.12a9.86,9.86,0,1,1,2.88-7A9.8,9.8,0,0,1,141.86,107.64Zm8.24-66.93a9.85,9.85,0,1,1,0,13.93,9.87,9.87,0,0,1,0-13.93Z"/></g><g id="frame"><rect class="cls-3" width="200" height="200"/></g></svg>