<svg xmlns="http://www.w3.org/2000/svg" viewBox="0 0 200 200"><defs><style>.cls-1{fill:none;}.cls-2{fill:red;}.cls-3{fill:#34bab5;}</style></defs><g id="Calque_1" data-name="Calque 1"><g id="frame"><rect class="cls-1" width="200" height="200"/></g></g><g id="pictos"><path class="cls-2" d="M153.57,4.38A3,3,0,0,0,151,3.8l-42.84,9.8a19,19,0,0,0-33.13,9.62H48.3a3,3,0,0,0-3,3v31.1a3,3,0,1,0,6,0V29.22H75.06A19.06,19.06,0,0,0,110.26,36L151,45.25a3,3,0,0,0,3.66-2.93V6.72A3,3,0,0,0,153.57,4.38ZM93.9,39.32A13.1,13.1,0,1,1,107,26.22,13.11,13.11,0,0,1,93.9,39.32Zm54.8-.75-36.17-8.18a18.85,18.85,0,0,0-1-11.41l37.14-8.49Z"/><path class="cls-3" d="M131.86,70.56l-10-16.4a3,3,0,0,0-2.56-1.44h-49a3,3,0,0,0-2.55,1.42l-10,16.1a3,3,0,0,0-.45,1.58v119.1a3,3,0,0,0,3,3h69a3,3,0,0,0,3-3V72.12A3,3,0,0,0,131.86,70.56ZM126.3,187.92h-63V72.68l8.67-14h45.65L126.3,73Z"/><path class="cls-3" d="M111,81.72H78.8a3,3,0,0,0-3,3v26.6a3,3,0,0,0,3,3H111a3,3,0,0,0,3-3V84.72A3,3,0,0,0,111,81.72Zm-3,26.6H81.8V87.72H108Z"/></g></svg>