<svg xmlns="http://www.w3.org/2000/svg" viewBox="0 0 200 200"><defs><style>.cls-1{fill:none;}.cls-2{fill:#34bab5;}.cls-3{fill:red;}</style></defs><g id="Calque_1" data-name="Calque 1"><g id="frame"><rect class="cls-1" width="200" height="200"/></g></g><g id="pictos"><path class="cls-2" d="M83.56,6.61a3,3,0,0,0-5.94.18l-8,76.6a3,3,0,0,0,1.94,3.13l22,8.1a3.12,3.12,0,0,0,1,.18,3,3,0,0,0,3-3.49ZM75.83,81.69l5.44-52.13L90.8,87.2Z"/><path class="cls-2" d="M81.07,111.38a3,3,0,0,0-4.81-1.95L8.56,162a3,3,0,0,0,1.84,5.37,2.87,2.87,0,0,0,1.14-.23l71-29.3a3,3,0,0,0,1.83-3.19ZM29.74,153.17l46.11-35.83,2.25,15.88Z"/><path class="cls-2" d="M191.44,141l-60.8-47.1a3,3,0,0,0-3.68,0l-18.5,14.4a3,3,0,0,0,.7,5.14l79.3,32.7a2.87,2.87,0,0,0,1.14.23,3,3,0,0,0,1.84-5.37ZM116.22,109.9l12.58-9.8,41.37,32Z"/><path class="cls-3" d="M112.9,107.8a19.1,19.1,0,1,0-21.8,18.89V192.9a3,3,0,0,0,6,0V126.59A19.12,19.12,0,0,0,112.9,107.8ZM94.66,120.86a2.6,2.6,0,0,0-.56-.06,3,3,0,0,0-.67.08,13.07,13.07,0,1,1,1.23,0Z"/></g></svg>