<svg xmlns="http://www.w3.org/2000/svg" viewBox="0 0 200 200"><defs><style>.cls-1{fill:none;}.cls-2{fill:red;}.cls-3{fill:#34bab5;}</style></defs><g id="Calque_1" data-name="Calque 1"><g id="frame"><rect class="cls-1" width="200" height="200"/></g></g><g id="pictos"><path class="cls-2" d="M195.9,96.6,149.2,15.8a3,3,0,0,0-2.6-1.5H53.4a3,3,0,0,0-2.6,1.5L4.1,96.6a3,3,0,1,0,5.2,3L55.13,20.3h89.74l45,77.8-45,77.8H103V154h27.6a3,3,0,0,0,2.6-1.5l30.5-52.9a3,3,0,0,0,0-3L133.2,43.7a3,3,0,0,0-2.6-1.5H69.4a3,3,0,0,0-2.6,1.5L36.3,96.6a3,3,0,1,0,5.2,3L71.13,48.2h57.74l28.77,49.9L128.87,148H103V116.94a19.1,19.1,0,1,0-6,0v62a3,3,0,0,0,3,3,3.27,3.27,0,0,0,.7-.09,3.27,3.27,0,0,0,.7.09h45.2a3,3,0,0,0,2.6-1.5l46.7-80.8A3,3,0,0,0,195.9,96.6Zm-109,1.5A13.1,13.1,0,1,1,100,111.2,13.12,13.12,0,0,1,86.9,98.1Z"/><path class="cls-3" d="M69.1,138.8A19.1,19.1,0,1,0,47,157.64V179.7H30.6V169.3a3,3,0,0,0-6,0v13.4a3,3,0,0,0,3,3H50a3,3,0,0,0,3-3V157.64A19.11,19.11,0,0,0,69.1,138.8ZM50,151.9a13.1,13.1,0,1,1,13.1-13.1A13.12,13.12,0,0,1,50,151.9Z"/></g></svg>