<svg xmlns="http://www.w3.org/2000/svg" viewBox="0 0 200 200"><defs><style>.cls-1{fill:none;}.cls-2{fill:red;}.cls-3{fill:#34bab5;}</style></defs><g id="Calque_1" data-name="Calque 1"><g id="frame"><rect class="cls-1" width="200" height="200"/></g></g><g id="pictos"><path class="cls-2" d="M166.2,122.7a3,3,0,0,1-2.66-1.6l-10.4-19.81a3,3,0,0,1,5.32-2.79l10.4,19.81a3,3,0,0,1-1.26,4A3.07,3.07,0,0,1,166.2,122.7Z"/><path class="cls-3" d="M196.55,103.7l-12.7-24a3,3,0,0,0-1.93-1.51L170.6,75.4l4.11-10.94a3,3,0,0,0-.16-2.46l-12.7-24.1a3,3,0,0,0-4-1.25L141.88,45l-9-17.13a3,3,0,0,0-4-1.25L4.7,92.25a3,3,0,0,0-1.26,4l12.6,24A3,3,0,0,0,18,121.81l11.41,2.8-4.11,10.93a3,3,0,0,0,.15,2.45L38,162.09a3,3,0,0,0,1.77,1.47,2.72,2.72,0,0,0,.89.14,3,3,0,0,0,1.4-.35L58,154.94l9,17.16a3.07,3.07,0,0,0,1.77,1.47,3,3,0,0,0,2.29-.22l124.2-65.6a3,3,0,0,0,1.25-4ZM42,156.64,31.38,136.4l4.83-12.84a3,3,0,0,0-.16-2.46,3,3,0,0,0-1.94-1.51l-13.38-3.28L10.15,96.15,129,33.36l8.88,16.85c0,.1.07.19.12.29a1.92,1.92,0,0,0,.17.26l1.5,2.85-4.83,12.83A3,3,0,0,0,135,68.9a2.94,2.94,0,0,0,1.93,1.51l13.3,3.28,10.66,20.16Zm29,10-7.62-14.5,103-54.39a3,3,0,0,0,1.25-4l-12.7-24a3,3,0,0,0-1.93-1.51L141.6,65.4l4.11-10.94a3,3,0,0,0-.16-2.46l-.87-1.66,13.26-7,10.68,20.26-4.83,12.83A3,3,0,0,0,164,78.9a2.94,2.94,0,0,0,1.93,1.51l13.3,3.28,10.66,20.16Z"/><g id="circle4376"><path class="cls-2" d="M74.2,119.8a19.1,19.1,0,1,1,19.1-19.1A19.12,19.12,0,0,1,74.2,119.8Zm0-32.2a13.1,13.1,0,1,0,13.1,13.1A13.12,13.12,0,0,0,74.2,87.6Z"/></g><path class="cls-2" d="M137.2,112.7a3,3,0,0,1-2.66-1.6L99.94,45.3a3,3,0,1,1,5.31-2.8l34.61,65.8a3,3,0,0,1-1.26,4.06A3.07,3.07,0,0,1,137.2,112.7Z"/></g></svg>