<svg xmlns="http://www.w3.org/2000/svg" viewBox="0 0 200 200"><defs><style>.cls-1{fill:none;}.cls-2{fill:red;}.cls-3{fill:#34bab5;}</style></defs><g id="Calque_1" data-name="Calque 1"><g id="frame"><rect class="cls-1" width="200" height="200"/></g></g><g id="pictos"><path class="cls-2" d="M42.09,101.79H15.6a3,3,0,0,0-3,3v71.59a3,3,0,0,0,3,3H42.09a3,3,0,0,0,3-3V104.79A3,3,0,0,0,42.09,101.79Zm-3,71.59H18.6V107.79H39.09Z"/><path class="cls-2" d="M89.56,74.64H63.07a3,3,0,0,0-3,3v98.74a3,3,0,0,0,3,3H89.56a3,3,0,0,0,3-3V77.64A3,3,0,0,0,89.56,74.64Zm-3,98.74H66.07V80.64H86.56Z"/><path class="cls-2" d="M137,115.09H110.54a3,3,0,0,0-3,3v58.29a3,3,0,0,0,3,3H137a3,3,0,0,0,3-3V118.09A3,3,0,0,0,137,115.09Zm-3,58.29H113.54V121.09H134Z"/><path class="cls-2" d="M184.5,77.87H158a3,3,0,0,0-3,3v95.51a3,3,0,0,0,3,3H184.5a3,3,0,0,0,3-3V80.87A3,3,0,0,0,184.5,77.87Zm-3,95.51H161V83.87H181.5Z"/><path class="cls-3" d="M171.21,20.62a18.27,18.27,0,0,0-12.87,31.26L136.23,73a18.18,18.18,0,0,0-23.42-1.32L91.91,48.31a18,18,0,0,0,2.64-9.41,18.29,18.29,0,1,0-35.4,6.38L41.4,57.88A18.26,18.26,0,1,0,45,62.67L62.15,50.51A18.24,18.24,0,0,0,88,52.92L108.64,76a18.29,18.29,0,1,0,31.26,1.78l23.45-22.37a18.27,18.27,0,1,0,7.86-34.77ZM28.79,83.38a12.29,12.29,0,1,1,9.64-19.89.83.83,0,0,0,.07.13l.13.14a12.26,12.26,0,0,1-9.84,19.62ZM76.26,51.19A12.29,12.29,0,1,1,88.55,38.9,12.3,12.3,0,0,1,76.26,51.19Zm47.48,47.38A12.29,12.29,0,1,1,136,86.28,12.3,12.3,0,0,1,123.74,98.57Zm47.47-47.38A12.29,12.29,0,1,1,183.49,38.9,12.3,12.3,0,0,1,171.21,51.19Z"/></g></svg>