<?xml version="1.0" encoding="UTF-8"?>
<svg width="24px" height="24px" viewBox="0 0 24 24" version="1.1" xmlns="http://www.w3.org/2000/svg" xmlns:xlink="http://www.w3.org/1999/xlink">
    <title>icon/team</title>
    <g id="icon/team" stroke="none" stroke-width="1" fill="none" fill-rule="evenodd">
        <rect id="Rectangle" x="0" y="0" width="24" height="24"></rect>
        <g id="team-fill">
            <polygon id="Path" points="0 0 24 0 24 24 0 24"></polygon>
            <path d="M12,11 C14.7614237,11 17,13.2385763 17,16 L17,22 L7,22 L7,16 C7,13.2385763 9.23857625,11 12,11 L12,11 Z M5.288,14.006 C5.12885764,14.5427863 5.03484932,15.0967639 5.008,15.656 L4.99999991,16 L4.99999991,22 L1.99999991,22 L1.99999991,17.5 C1.99959228,15.7141543 3.34376677,14.214402 5.119,14.02 L5.289,14.006 L5.288,14.006 Z M18.712,14.006 C20.5592042,14.118592 21.999728,15.6493676 22,17.5 L22,22 L19,22 L19,16 C19,15.307 18.9,14.638 18.712,14.006 L18.712,14.006 Z M5.5,8 C6.88071187,8 8,9.11928813 8,10.5 C8,11.8807119 6.88071187,13 5.5,13 C4.11928813,13 3,11.8807119 3,10.5 C3,9.11928813 4.11928813,8 5.5,8 Z M18.5,8 C19.8807119,8 21,9.11928813 21,10.5 C21,11.8807119 19.8807119,13 18.5,13 C17.1192881,13 16,11.8807119 16,10.5 C16,9.11928813 17.1192881,8 18.5,8 Z M12,2 C14.209139,2 16,3.790861 16,6 C16,8.209139 14.209139,10 12,10 C9.790861,10 8,8.209139 8,6 C8,3.790861 9.790861,2 12,2 Z" id="Shape" fill="#00C8C7" fill-rule="nonzero"></path>
        </g>
    </g>
</svg>