<svg xmlns="http://www.w3.org/2000/svg" viewBox="0 0 200 200"><defs><style>.cls-1{fill:none;}.cls-2{fill:#34bab5;}.cls-3{fill:red;}</style></defs><g id="Calque_1" data-name="Calque 1"><g id="frame"><rect class="cls-1" width="200" height="200"/></g></g><g id="Calque_6" data-name="Calque 6"><path class="cls-2" d="M50.5,112.3A15.23,15.23,0,1,1,65.73,97.07,15.25,15.25,0,0,1,50.5,112.3Zm0-24.46a9.23,9.23,0,1,0,9.23,9.23A9.24,9.24,0,0,0,50.5,87.84Z"/><path class="cls-2" d="M55.5,76.3A15.23,15.23,0,1,1,70.73,61.07,15.25,15.25,0,0,1,55.5,76.3Zm0-24.46a9.23,9.23,0,1,0,9.23,9.23A9.24,9.24,0,0,0,55.5,51.84Z"/><path class="cls-2" d="M149.5,112.3a15.23,15.23,0,1,1,15.23-15.23A15.25,15.25,0,0,1,149.5,112.3Zm0-24.46a9.23,9.23,0,1,0,9.23,9.23A9.24,9.24,0,0,0,149.5,87.84Z"/><path class="cls-2" d="M144.5,76.3a15.23,15.23,0,1,1,15.23-15.23A15.25,15.25,0,0,1,144.5,76.3Zm0-24.46a9.23,9.23,0,1,0,9.23,9.23A9.24,9.24,0,0,0,144.5,51.84Z"/><path class="cls-2" d="M82.2,51.7A15.23,15.23,0,1,1,97.43,36.47,15.24,15.24,0,0,1,82.2,51.7Zm0-24.45a9.23,9.23,0,1,0,9.23,9.22A9.24,9.24,0,0,0,82.2,27.25Z"/><path class="cls-2" d="M118.2,51.7a15.23,15.23,0,1,1,15.23-15.23A15.24,15.24,0,0,1,118.2,51.7Zm0-24.45a9.23,9.23,0,1,0,9.23,9.22A9.24,9.24,0,0,0,118.2,27.25Z"/><path class="cls-3" d="M120.16,178.75a2.82,2.82,0,0,1-.81-.11l-17-4.76-16.18,4.75a3,3,0,0,1-3.83-3.1l4.76-63L67.6,80.31a3,3,0,0,1,4.2-4.07L91.51,89.09l6.8-21.25a3,3,0,0,1,5.71,0l6.86,21.42,18.76-11.09a3,3,0,0,1,4.15,4l-16.55,30.19,5.91,63.08a3,3,0,0,1-3,3.28Zm-17.83-11a2.84,2.84,0,0,1,.81.12l13.63,3.82L111.18,112a3,3,0,0,1,.35-1.72L123.28,88.9l-12.59,7.44a3,3,0,0,1-2.59.22,3,3,0,0,1-1.79-1.89L101.16,78.6,96,94.67a3,3,0,0,1-4.49,1.6l-12-7.81L92.73,110.2a3.08,3.08,0,0,1,.43,1.78l-4.51,59.67,12.83-3.77A2.74,2.74,0,0,1,102.33,167.75Z"/></g></svg>