<?xml version="1.0" encoding="utf-8"?>
<!-- Generator: Adobe Illustrator 22.1.0, SVG Export Plug-In . SVG Version: 6.00 Build 0)  -->
<svg version="1.1" id="Calque_1" xmlns="http://www.w3.org/2000/svg" xmlns:xlink="http://www.w3.org/1999/xlink" x="0px" y="0px"
	 viewBox="0 0 50 50" style="enable-background:new 0 0 50 50;" xml:space="preserve">
<style type="text/css">
	.st0{fill:#E3032D;}
	.st1{fill:#FFFFFF;}
</style>
<g>
	<rect class="st0" width="50" height="50"/>
	<path class="st1" d="M23.4,39.6c0-0.8,0.5-1.4,1.2-1.4c0.7,0,1.2,0.6,1.2,1.4c0,0.8-0.5,1.4-1.2,1.4C23.9,41,23.4,40.4,23.4,39.6
		 M22.3,39.6c0,1.3,1,2.3,2.3,2.3c1.3,0,2.3-1,2.3-2.3c0-1.3-1-2.3-2.3-2.3C23.3,37.3,22.3,38.3,22.3,39.6 M21.5,35.5
		c-1.2,0-1.8,0.6-1.8,1.7v0.2H19v0.9h0.7v3.5h1v-3.5h1.1v-0.9h-1.1v-0.1c0-0.7,0.3-0.9,0.9-0.9c0.1,0,0.2,0,0.2,0v-1
		C21.9,35.5,21.7,35.5,21.5,35.5 M15.5,39.4c0-0.7,0.3-1.2,1-1.2c0.6,0,0.9,0.4,0.9,1v2.6h1v-2.6c0-1.3-0.7-2-1.8-2
		c-0.5,0-0.9,0.2-1.2,0.5v-0.4h-1v4.5h1V39.4z M12,36c0,0.4,0.3,0.7,0.7,0.7c0.4,0,0.7-0.3,0.7-0.7s-0.3-0.6-0.7-0.6
		C12.3,35.4,12,35.7,12,36 M12.1,41.9h1v-4.5h-1V41.9z"/>
	<path class="st1" d="M32.6,13.7h-1.1v2.5h1.1v16.7h2.7V16.2h2.2v-2.5h-2.2v-2.3c0-0.9,0.4-1.3,1.3-1.3h1V7.6h-1.1
		c-2.6,0-3.9,1.3-3.9,3.9V13.7z M24.2,17.7c0-1.1,0.6-1.7,1.7-1.7h0.4c1.1,0,1.7,0.6,1.7,1.7v4h-3.8V17.7z M30.7,24.3v-6.5
		c0-2.9-1.5-4.3-4.3-4.3h-0.6c-2.9,0-4.3,1.5-4.3,4.3v10.9c0,2.9,1.5,4.3,4.3,4.3h0.6c2.9,0,4.3-1.5,4.3-4.3v-2.1h-2.6v2.2
		c0,1.1-0.6,1.7-1.7,1.7h-0.5c-1.1,0-1.7-0.6-1.7-1.7v-4.6H30.7z M15.2,30.5c-0.9,0-1.3-0.5-1.3-1.4v-2.9c0-1.1,0.3-1.6,1.3-2
		l2.5-0.9v6.3C16.8,30.2,16.1,30.5,15.2,30.5 M11.2,29.7c0,2.1,1,3.4,3.2,3.4c1.6,0,2.6-0.7,3.3-1.4v1.2h2.7V17.8
		c0-2.9-1.5-4.3-4.3-4.3h-0.3c-2.9,0-4.3,1.5-4.3,4.3v2.3h2.6v-2.4c0-1.1,0.6-1.7,1.7-1.7H16c1.1,0,1.7,0.6,1.7,1.7v3.2l-3.6,1.2
		c-2.1,0.7-2.8,1.7-2.8,4V29.7z"/>
</g>
</svg>
