<svg xmlns="http://www.w3.org/2000/svg" viewBox="0 0 200 200"><defs><style>.cls-1{fill:none;}.cls-2{fill:red;}.cls-3{fill:#34bab5;}</style></defs><g id="Calque_1" data-name="Calque 1"><g id="frame"><rect class="cls-1" width="200" height="200"/></g></g><g id="Calque_6" data-name="Calque 6"><polygon class="cls-2" points="127.62 114.68 121.41 116.14 124.52 120.93 131.73 132 119.45 124.26 114.15 120.91 112.65 127.06 116.25 129.33 151.7 151.7 129.55 117.65 127.62 114.68"/><polygon class="cls-2" points="79.73 125.03 67.79 132.47 75.44 120.58 77.63 117.17 71.53 115.56 70.39 117.34 48.3 151.7 82.91 130.12 83.24 129.91 81.62 123.85 79.73 125.03"/><polygon class="cls-2" points="120.51 75.48 132.31 67.9 124.31 80.63 121.39 85.29 127.58 86.72 129.4 83.82 151.7 48.3 117.27 70.43 112.92 73.23 114.44 79.38 120.51 75.48"/><polygon class="cls-2" points="48.3 48.3 70.74 83.62 72.17 85.87 78.35 84.41 75.8 80.4 67.79 67.79 80 75.55 82.62 77.21 84.14 71.07 83.22 70.49 48.3 48.3"/><path class="cls-3" d="M127.58,86.72l-6.19-1.43L115.58,84l-1.14-4.57-1.52-6.15L98.24,14,84.14,71.07l-1.52,6.14L81,83.79l-2.65.62-6.18,1.46L12.25,100l59.28,15.56,6.1,1.61,2.37.62,1.62,6.06,1.62,6.06,15,56.08,14.41-58.93,1.5-6.15.8-3.26,6.46-1.51,6.21-1.46,60.13-14.09Zm-3.44,22.62-6.21,1.45-4.35,1-3.58.84-.88,3.58-.32,1.31-1.5,6.14L98,161.79l-9.42-35.2-1.62-6.06-1.15-4.29-.9-3.37L81.52,112l-.47-.12-6.11-1.6-37.87-10,38.5-9.08,6.19-1.46.62-.14,3.56-.84.88-3.56L88,80.61l1.52-6.15L98.25,39l9.34,37.67,1.52,6.15.64,2.59.89,3.57,3.59.83,3.78.87,6.19,1.43,37.05,8.54Z"/><path class="cls-2" d="M112.39,98a13.54,13.54,0,1,0-15.06,15.4,13.13,13.13,0,0,0,1.67.12,14.12,14.12,0,0,0,2.17-.19A13.65,13.65,0,0,0,112.55,100,14.28,14.28,0,0,0,112.39,98ZM99,107.55a7.55,7.55,0,1,1,7.55-7.55A7.56,7.56,0,0,1,99,107.55Z"/></g></svg>