<?xml version="1.0" encoding="UTF-8"?>
<svg width="282px" height="159px" viewBox="0 0 282 159" version="1.1" xmlns="http://www.w3.org/2000/svg" xmlns:xlink="http://www.w3.org/1999/xlink">
    <title>placeholder_homme</title>
    <g id="placeholder_homme" stroke="none" stroke-width="1" fill="none" fill-rule="evenodd">
        <g id="Group-13-Copy">
            <rect id="Rectangle" fill="#E2F4F2" x="0" y="0" width="282" height="159"></rect>
            <path d="M226,158.969378 C225.639907,158.979605 225.279814,159 224.919721,159 C168.937616,159 112.955512,159 56.9734073,159 C56.6492624,159 56.3249131,158.989629 56,158.98431 C55.9658414,154.680895 57.5363207,150.977437 60.2399799,147.710908 C64.2898517,142.818171 69.7120802,140.395225 75.7531867,139.048234 C80.183985,138.060236 84.5097988,136.701995 88.7626953,135.110153 C93.4880223,133.341575 98.0850803,131.284985 102.562856,128.963497 C104.031823,128.202146 105.451974,127.346699 106.900108,126.544846 C107.500603,126.212445 107.753261,125.838315 107.565555,125.065918 C107.183607,123.493713 107.351296,123.149448 108.70282,122.324275 C110.580695,121.177543 112.555386,120.201614 114.587675,119.367646 C115.798061,118.871193 116.683281,118.238097 116.942883,116.848559 C117.587292,113.398135 117.960049,109.937075 117.374259,106.450445 C117.132223,105.009564 116.346064,103.796761 115.399569,102.667007 C113.019238,99.8257461 111.938346,96.3955734 111.16097,92.8533049 C110.830289,91.3461481 110.568645,89.8222178 110.326813,88.2978784 C110.245113,87.783015 110.085797,87.56496 109.529012,87.5279357 C107.281034,87.3788155 106.342914,86.292018 106.149284,84.0241234 C106.024692,82.5634004 105.774077,81.0895859 105.371296,79.6814335 C104.530602,76.740964 104.591877,73.7037403 104.256703,70.711314 C104.134765,69.6241073 104.000164,68.5176726 104.206253,67.3961008 C104.404171,66.3207584 104.83616,65.7113908 105.923179,65.6827532 C106.752844,65.6610704 106.929111,65.2875541 106.807991,64.6063879 C105.939928,59.72572 105.821259,54.7982091 105.973017,49.8647661 C106.10006,45.7352219 106.714445,41.7038638 108.770835,38.0071567 C109.256133,37.1349367 109.050658,36.0536622 109.369901,35.0779377 C110.226526,32.4598459 111.854808,30.5184201 114.035791,28.9050996 C115.706149,27.669591 117.029281,25.945402 118.941062,25.0525221 C124.658024,22.3820644 130.120081,18.9997574 136.572956,18.2791122 C140.367719,17.855071 144.161053,17.93587 147.972361,18.3750483 C152.249767,18.8678198 156.286363,20.3352931 160.513319,21.0596202 C159.92753,22.5080699 159.91262,22.5403895 161.285181,23.1775764 C163.616696,24.2598738 165.805441,25.5581805 167.727434,27.2768466 C170.500947,29.7568641 172.329599,32.7394718 172.817961,36.5108413 C173.02936,38.1421626 173.52099,39.7364596 173.867194,41.3516211 C174.187254,42.8444591 174.244444,44.3792308 174.068789,45.8696141 C173.839211,47.8179948 174.438073,49.6366879 174.630681,51.515111 C174.954009,54.6695444 175.133749,57.8166138 174.812259,60.9886388 C174.681743,62.2765133 174.587992,63.5633651 174.344935,64.8373299 C174.265277,65.2544163 174.341871,65.5772031 174.909074,65.6676162 C176.648264,65.9445828 177.271431,66.9642865 177.076168,68.7972985 C176.825348,71.1525378 176.657251,73.5171867 176.491399,75.8804036 C176.361701,77.7295754 175.688492,79.45581 175.323497,81.2520021 C175.071657,82.4911927 175.087997,83.7555434 174.788362,84.9789833 C174.351879,86.7614703 173.537125,87.4751606 171.69867,87.5258901 C170.937634,87.5467547 170.754421,87.9127025 170.624927,88.5699358 C169.788931,92.8146441 168.811798,97.0174188 166.793398,100.898838 C166.229055,101.984409 165.378558,102.895494 164.968832,104.075568 C164.623036,105.07093 164.357716,106.072428 164.371809,107.129156 C164.418378,110.648924 164.058081,114.196715 165.173899,117.64223 C165.357316,118.208436 165.594042,118.53286 166.147968,118.794485 C168.426174,119.869623 170.653113,121.054197 172.931932,122.127903 C174.294485,122.769795 174.783256,123.722609 174.309191,125.14508 C174.068584,125.867362 174.345752,126.2149 174.996084,126.562029 C177.469145,127.882018 179.821698,129.457292 182.369514,130.602387 C187.615271,132.959672 192.910864,135.201179 198.406827,136.962802 C202.624388,138.314702 207.022302,138.975208 211.181244,140.515912 C216.863891,142.620981 221.354126,146.117634 224.157255,151.592532 C225.171153,153.572824 225.685659,155.691393 225.818013,157.909786 C225.839255,158.265301 225.937499,158.616317 226,158.969378" id="Fill-1-Copy" fill="#B4E7E4"></path>
        </g>
    </g>
</svg>