<svg xmlns="http://www.w3.org/2000/svg" viewBox="0 0 200 200"><defs><style>.cls-1{fill:none;}.cls-2{fill:#34bab5;}.cls-3{fill:red;}</style></defs><g id="Calque_1" data-name="Calque 1"><g id="frame"><rect class="cls-1" width="200" height="200"/></g></g><g id="Calque_6" data-name="Calque 6"><path class="cls-1" d="M40,152H160V72H40Zm22.46-4.46a15.23,15.23,0,1,1,15.23-15.23A15.24,15.24,0,0,1,62.46,147.54Zm86.66-9.66a3,3,0,0,1,0,4.24,3,3,0,0,1-4.24,0L138,135.24l-6.88,6.88a3,3,0,0,1-4.24,0,3,3,0,0,1,0-4.24l6.88-6.88-6.88-6.88a3,3,0,0,1,4.24-4.24l6.88,6.88,6.88-6.88a3,3,0,0,1,4.24,4.24L142.24,131Zm-11.66-58.8a15.23,15.23,0,1,1-15.23,15.23A15.24,15.24,0,0,1,137.46,79.08Zm-37,0A15.23,15.23,0,1,1,85.23,94.31,15.24,15.24,0,0,1,100.46,79.08Zm0,38a15.23,15.23,0,1,1-15.23,15.23A15.24,15.24,0,0,1,100.46,117.08Zm-38-38A15.23,15.23,0,1,1,47.23,94.31,15.24,15.24,0,0,1,62.46,79.08Z"/><path class="cls-1" d="M140,58V53.72a2.64,2.64,0,0,1,0-1.44V48h-5v4.31a2.69,2.69,0,0,1,0,1.38V58Z"/><circle class="cls-1" cx="62.46" cy="94.31" r="9.23"/><circle class="cls-1" cx="100.46" cy="132.31" r="9.23"/><circle class="cls-1" cx="62.46" cy="132.31" r="9.23"/><circle class="cls-1" cx="137.46" cy="94.31" r="9.23"/><circle class="cls-1" cx="100.46" cy="94.31" r="9.23"/><path class="cls-1" d="M143,64H132a3,3,0,0,1-3-3V56H71v5a3,3,0,0,1-3,3H57a3,3,0,0,1-3-3V56H40V66H160V56H146v5A3,3,0,0,1,143,64Z"/><rect class="cls-1" x="60" y="48" width="5" height="10"/><path class="cls-2" d="M62.46,109.54A15.23,15.23,0,1,0,47.23,94.31,15.24,15.24,0,0,0,62.46,109.54Zm0-24.46a9.23,9.23,0,1,1-9.23,9.23A9.24,9.24,0,0,1,62.46,85.08Z"/><path class="cls-2" d="M100.46,109.54A15.23,15.23,0,1,0,85.23,94.31,15.24,15.24,0,0,0,100.46,109.54Zm0-24.46a9.23,9.23,0,1,1-9.23,9.23A9.24,9.24,0,0,1,100.46,85.08Z"/><path class="cls-2" d="M62.46,117.08a15.23,15.23,0,1,0,15.23,15.23A15.24,15.24,0,0,0,62.46,117.08Zm0,24.46a9.23,9.23,0,1,1,9.23-9.23A9.24,9.24,0,0,1,62.46,141.54Z"/><path class="cls-2" d="M100.46,147.54a15.23,15.23,0,1,0-15.23-15.23A15.24,15.24,0,0,0,100.46,147.54Zm0-24.46a9.23,9.23,0,1,1-9.23,9.23A9.24,9.24,0,0,1,100.46,123.08Z"/><path class="cls-2" d="M137.46,109.54a15.23,15.23,0,1,0-15.23-15.23A15.24,15.24,0,0,0,137.46,109.54Zm0-24.46a9.23,9.23,0,1,1-9.23,9.23A9.24,9.24,0,0,1,137.46,85.08Z"/><path class="cls-3" d="M149.12,119.88a3,3,0,0,0-4.24,0L138,126.76l-6.88-6.88a3,3,0,0,0-4.24,4.24l6.88,6.88-6.88,6.88a3,3,0,0,0,0,4.24,3,3,0,0,0,4.24,0l6.88-6.88,6.88,6.88a3,3,0,0,0,4.24,0,3,3,0,0,0,0-4.24L142.24,131l6.88-6.88A3,3,0,0,0,149.12,119.88Z"/><rect class="cls-2" x="71" y="50" width="58" height="6"/><path class="cls-2" d="M163,50H146v6h14V66H40V56H54V50H37a3,3,0,0,0-3,3V155a3,3,0,0,0,3,3H163a3,3,0,0,0,3-3V53A3,3,0,0,0,163,50Zm-3,102H40V72H160Z"/><path class="cls-3" d="M68,42H57a3,3,0,0,0-3,3V61a3,3,0,0,0,3,3H68a3,3,0,0,0,3-3V45A3,3,0,0,0,68,42ZM65,58H60V48h5Z"/><path class="cls-3" d="M143,42H132a3,3,0,0,0-3,3V61a3,3,0,0,0,3,3h11a3,3,0,0,0,3-3V45A3,3,0,0,0,143,42Zm-3,16h-5V48h5V58Z"/></g></svg>