<svg version="1.1" viewBox="0 0 1220 500" xml:space="preserve" enable-background="new 0 0 1220 500"><style type="text/css">
	.st0{fill:#010202;}
	.st1{fill:#DD006D;}
	.st2{fill:#FFFFFF;}
</style><g transform="translate(-100,0)"><polygon class="st0" points="566,211 586.5,211 586.5,322.6 620.2,322.6 620.2,341.2 566,341.2 "></polygon><polygon class="st0" points="630,211 685.8,211 685.8,229.6 650.5,229.6 650.5,264 678.6,264 678.6,282.6 650.5,282.6 650.5,322.6 685.8,322.6 685.8,341.2 630,341.2 "></polygon><polygon class="st1" points="727.3,211 756.5,211 769.5,304.2 769.9,304.2 782.9,211 812.1,211 812.1,341.2 792.7,341.2 792.7,242.6 792.4,242.6 777.5,341.2 760.4,341.2 745.5,242.6 745.1,242.6 745.1,341.2 727.3,341.2 "></polygon><path class="st0" d="M857.1,180.9h22.3l-19.9,21.4h-15.4L857.1,180.9z M827.3,211h55.8v18.6h-35.3V264h28.1v18.6h-28.1v40h35.3v18.6 h-55.8V211z"></path><g><path class="st0" d="M925.7,322.6c3.3,0,5.9-1,7.7-3c1.8-2,2.7-5.2,2.7-9.7v-67.7c0-4.5-0.9-7.7-2.7-9.7c-1.8-2-4.4-3-7.7-3h-10.4 v93H925.7z M894.8,211h31.2c10.2,0,17.8,2.7,22.9,8.2c5.1,5.5,7.6,13.5,7.6,24V309c0,10.5-2.5,18.5-7.6,24 c-5.1,5.5-12.7,8.2-22.9,8.2h-31.2V211z"></path></g><rect x="970.4" y="211" class="st0" width="20.4" height="130.2"></rect><path class="st0" d="M1034.7,233.7h0.4l9.1,64.3h-18.4L1034.7,233.7z M1021.9,211l-21.2,130.2h19l3.7-25.5h23.2v-0.4l3.7,25.9h20.5 v0L1049.6,211H1021.9z"></path><g><g><polygon points="307.1,116.8 306.9,107.4 287.7,110.9 287.6,101.6 307.9,98 307.7,88.1 276.7,93.7 277.4,142.3 309.7,136.6 309.5,126.5 288,130.4 287.9,120.3 		"></polygon><polygon points="304.5,74.9 293.7,76.9 287.1,88 295.1,86.5 		"></polygon><path d="M345.2,89.4c-1-1.7-2.3-3-3.9-3.9c-1.6-0.9-3.6-1.4-5.8-1.5c-2.2-0.1-4.6,0-7.1,0.5l-17,3l0.7,48.6l11.2-2l-0.3-18.3 l5.5-1c2.4-0.4,4.7-1.1,6.9-2.1c2.2-0.9,4.2-2.2,5.8-3.7c1.7-1.5,3-3.3,4-5.4c1-2.1,1.4-4.6,1.4-7.4 C346.7,93.4,346.2,91.2,345.2,89.4z M335.6,98.3c0,1.1-0.2,2.1-0.6,3c-0.4,0.8-1,1.5-1.8,2.1c-0.8,0.6-1.6,1.1-2.6,1.4 c-1,0.4-2,0.6-3,0.8l-4.7,0.8L322.8,95l4.9-0.9c1-0.2,2-0.3,2.9-0.3c0.9,0,1.8,0.1,2.5,0.4c0.7,0.3,1.3,0.7,1.8,1.4 C335.3,96.2,335.6,97.1,335.6,98.3z"></path><path d="M376.4,75.9l0.5,29.3c0,1.3-0.1,2.6-0.4,3.9c-0.3,1.2-0.8,2.4-1.5,3.5c-0.7,1.1-1.6,2-2.7,2.7c-1.1,0.7-2.4,1.3-4,1.5 c-1.6,0.3-2.9,0.2-4-0.1c-1.1-0.4-2-0.9-2.7-1.8c-0.7-0.8-1.2-1.8-1.6-2.9c-0.3-1.1-0.5-2.4-0.5-3.7L359,79l-11.1,2l0.5,30.3 c0,2.9,0.5,5.5,1.5,7.8c1,2.2,2.3,4.1,4,5.5c1.7,1.4,3.8,2.4,6.3,2.9c2.5,0.5,5.2,0.5,8.2,0c3-0.5,5.7-1.5,8.2-2.9 c2.4-1.4,4.5-3.1,6.2-5.1c1.7-2,3-4.3,3.9-6.9c0.9-2.6,1.3-5.3,1.3-8.3l-0.5-30.3L376.4,75.9z"></path><g><path d="M423.3,86.8c1.4-2,2-4.4,2-7.1c0-2.5-0.5-4.4-1.5-5.9c-1-1.4-2.2-2.5-3.8-3.1c-1.5-0.7-3.2-1-5.1-1.1 c-1.9-0.1-3.7,0.1-5.5,0.4L391,73.3l0.7,48.6l18.4-3.3c2.2-0.4,4.4-1,6.5-1.9c2.1-0.9,4-2,5.6-3.4c1.6-1.4,2.9-3.1,3.9-5.1 c1-2,1.4-4.3,1.4-7c0-1.6-0.3-3-0.8-4.2c-0.5-1.2-1.2-2.2-2.1-3c-0.9-0.8-1.9-1.4-3-1.8c-1.2-0.4-2.4-0.6-3.7-0.6l0-0.1 C420.1,90.4,422,88.8,423.3,86.8z M416.4,102.3c0,1.2-0.2,2.2-0.7,3c-0.5,0.8-1.1,1.5-1.8,2.1c-0.8,0.5-1.6,1-2.5,1.3 c-0.9,0.3-1.8,0.6-2.7,0.7l-6.3,1.1l-0.2-11.1l6.2-1.1c2.4-0.4,4.3-0.4,5.8,0.1C415.6,99,416.3,100.3,416.4,102.3z M414.6,83.2 c0,1.7-0.5,3.2-1.7,4.3c-1.1,1.1-2.8,1.8-4.8,2.2l-6,1.1l-0.2-10l5.5-1c2.3-0.4,4.1-0.4,5.3,0.2 C413.9,80.5,414.5,81.6,414.6,83.2z"></path></g><polygon points="440,64.6 428.8,66.6 429.5,115.2 458.3,110.1 458.2,99.9 440.6,103 		"></polygon><polygon points="460.6,60.9 461.3,109.6 472.6,107.6 471.8,58.9 		"></polygon><polygon points="506.1,52.9 490.9,55.6 474.3,81.1 492.2,104.1 505.6,101.7 488.5,79.3 		"></polygon><path d="M271.5,117.4c1.7-2.6,2.5-5.5,2.4-8.9c0-2.8-0.6-5.1-1.6-6.8c-1-1.7-2.4-3-4.1-3.9c-1.7-0.9-3.6-1.3-5.8-1.4 c-2.1-0.1-4.3,0-6.6,0.4L238,100l0.1,9.6l17-3c0.8-0.1,1.7-0.2,2.6-0.3c0.9,0,1.7,0.1,2.5,0.4c0.7,0.3,1.3,0.7,1.8,1.3 c0.5,0.6,0.7,1.5,0.7,2.7c0,1.3-0.2,2.3-0.7,3.2c-0.5,0.9-1.1,1.6-1.9,2.2c-0.8,0.6-1.7,1-2.6,1.3c-1,0.3-1.9,0.6-2.9,0.8 l-5.9,1.1l15.1,25.6l12.9-2.3l-12.2-19C267.5,122,269.9,119.9,271.5,117.4z"></path></g><polygon class="st1" points="261.8,150.4 504.5,126 457.7,427.1 187.6,367.8 	"></polygon><g><path class="st2" d="M303,168.5h29.6v193.2H303V168.5z"></path><path class="st2" d="M378.9,196.1h-31v-27.6h91.6v27.6h-31v165.6h-29.6V196.1z"></path></g></g></g></svg>