<?xml version="1.0" encoding="utf-8"?>
<!-- Generator: Adobe Illustrator 25.0.1, SVG Export Plug-In . SVG Version: 6.00 Build 0)  -->
<svg version="1.1" id="Calque_1" xmlns="http://www.w3.org/2000/svg" xmlns:xlink="http://www.w3.org/1999/xlink" x="0px" y="0px"
	 viewBox="0 0 996 280" style="enable-background:new 0 0 996 280;" xml:space="preserve">
<style type="text/css">
	.st0{fill:#CAEDEB;}
	.st1{fill:#E1000F;}
	.st2{fill:#000091;}
	.st3{fill:#34BAB5;}
	.st4{enable-background:new    ;}
	.st5{fill:none;stroke:#000091;}
</style>
<g id="Calque_2_1_">
	<polygon class="st0" points="996,280 0,280 0,0 996,0 996,280 	"/>
	<polygon class="st1" points="132.3,208.1 111,172.9 89.8,208.1 132.3,208.1 	"/>
	<polygon class="st1" points="138.7,142.6 127,131.6 122.7,147 138.7,142.6 	"/>
	<polygon class="st1" points="192.3,208.8 178.5,185.9 164.7,208.8 192.3,208.8 	"/>
	<polygon class="st1" points="205.2,172.8 192.5,176.3 201.5,185.9 205.2,172.8 	"/>
	<polygon class="st2" points="157.5,189.5 213.2,133.8 192.7,113.4 137.1,169 137.1,169 137.1,169 137,169.1 137.1,169.1 137.1,188 
		135.7,189.3 137.4,191 138.9,189.5 157.4,189.5 157.5,189.5 157.5,189.5 157.5,189.5 	"/>
	<path class="st2" d="M131.9,246.8h4.9v1.7h-3.1l-0.1,1.1h0.2c2.2,0,3.1,0.9,3.1,2.5c0,1.5-1.2,2.6-2.6,2.6c-0.1,0-0.2,0-0.3,0
		c-1.3,0.1-2.6-0.7-3.2-1.9l1.6-1c0.4,0.9,0.9,1.2,1.5,1.2c0.5,0.1,0.9-0.3,1-0.8c0,0,0-0.1,0-0.1c0-0.6-0.5-0.9-1.3-0.9h-2.1
		L131.9,246.8z"/>
	<path class="st2" d="M142.3,246.8h2.4l1.5,2.8l1.5-2.8h2.4v7.7h-2v-5l-1.3,2.3h-1.3l-1.3-2.3v5h-2L142.3,246.8z"/>
	<path class="st2" d="M160.3,250.6c0,2.3-1.8,4.1-4.1,4.2c-2.3,0-4.1-1.8-4.2-4.1c0-2.3,1.8-4.1,4.1-4.2c0,0,0,0,0,0
		c2.2-0.1,4.1,1.7,4.1,3.9C160.3,250.5,160.3,250.6,160.3,250.6z M158.3,250.6c-0.1-1.2-1.1-2-2.2-2c-1.2,0.1-2,1.1-2,2.2
		c0.1,1.1,1,2,2.1,2c1.2,0,2.1-1,2.1-2.1C158.3,250.7,158.3,250.7,158.3,250.6L158.3,250.6z"/>
	<path class="st2" d="M162.2,246.8h2v7.7h-2V246.8z"/>
	<path class="st2" d="M167.4,252.1c0.4,0.5,1,0.9,1.6,0.9c0.5,0,0.7-0.2,0.7-0.6c0-1.2-3.4-0.8-3.4-3.4c0.1-1.4,1.2-2.4,2.6-2.4
		c0,0,0.1,0,0.1,0c1.1,0,2.2,0.5,2.9,1.3l-1.4,1.3c-0.3-0.5-0.9-0.8-1.5-0.9c-0.3,0-0.6,0.2-0.7,0.5c0,0,0,0,0,0
		c0,1.1,3.4,0.8,3.4,3.4c0,1.4-1.1,2.4-2.5,2.4c-0.1,0-0.1,0-0.2,0c-1.1,0.1-2.3-0.4-3-1.3L167.4,252.1z"/>
	<path class="st2" d="M105.2,84.9h1.6v4.2c0,2.2-1.3,3.6-3.4,3.6s-3.4-1.3-3.4-3.6v-4.2h1.6v4.3c-0.1,1,0.6,2,1.6,2.1
		c1,0.1,2-0.6,2.1-1.6c0-0.2,0-0.3,0-0.5V84.9z"/>
	<path class="st2" d="M109.7,84.9h1.5v0.7c0.6-0.7,1.5-1,2.4-1c1.7,0,2.9,1.1,2.9,3.3v4.5H115V88c0.1-0.9-0.5-1.8-1.5-1.9
		c-0.1,0-0.2,0-0.3,0c-0.9,0-1.6,0.5-2,1.3v5.1h-1.5L109.7,84.9z"/>
	<path class="st2" d="M124.1,84.9h1.5v0.8c0.6-0.7,1.6-1.1,2.5-1.1c2.2,0.1,4,2,3.9,4.3c-0.1,2.1-1.8,3.8-3.9,3.9
		c-1,0-1.9-0.4-2.5-1.1v4.4h-1.5V84.9z M125.6,87.3V90c0.5,0.8,1.4,1.3,2.4,1.3c1.4-0.1,2.5-1.4,2.4-2.8c-0.1-1.3-1.1-2.3-2.4-2.4
		C127,86,126.2,86.5,125.6,87.3z"/>
	<path class="st2" d="M134.5,84.9h1.5v0.8c0.5-0.6,1.3-1,2.1-1c0.2,0,0.4,0,0.7,0.1v1.5c-0.3-0.1-0.5-0.1-0.8-0.1
		c-0.8,0-1.6,0.4-2,1.2v5h-1.5L134.5,84.9z"/>
	<path class="st2" d="M148.3,88.7c0,2.3-1.8,4.1-4.1,4.1c-2.3,0-4.1-1.8-4.1-4.1c0-2.3,1.8-4.1,4.1-4.1c0,0,0,0,0,0
		c2.2,0,4,1.7,4.1,3.9C148.3,88.6,148.3,88.6,148.3,88.7z M146.7,88.7c-0.1-1.4-1.2-2.4-2.6-2.3c-1.4,0.1-2.4,1.2-2.3,2.6
		c0.1,1.3,1.2,2.4,2.5,2.3C145.6,91.3,146.7,90.1,146.7,88.7C146.7,88.7,146.7,88.7,146.7,88.7z"/>
	<path class="st2" d="M151.1,86.3h-1.4v-1.4h1.4V83h1.6v1.9h2.5v1.4h-2.5v3.5c0,1,0.5,1.3,1.4,1.3c0.4,0,0.8,0,1.1-0.2v1.4
		c-0.4,0.2-0.9,0.2-1.4,0.2c-1.3,0.2-2.5-0.8-2.7-2.1c0-0.2,0-0.4,0-0.7V86.3z"/>
	<path class="st2" d="M167.4,86.3H166v-1.4h1.4V83h1.6v1.9h2.5v1.4H169v3.5c0,1,0.5,1.3,1.4,1.3c0.4,0,0.8,0,1.1-0.2v1.4
		c-0.4,0.2-0.9,0.2-1.4,0.2c-1.3,0.2-2.5-0.8-2.7-2.1c0-0.2,0-0.4,0-0.7V86.3z"/>
	<path class="st2" d="M165,88.7c0,2.3-1.8,4.1-4.1,4.1c-2.3,0-4.1-1.8-4.1-4.1s1.8-4.1,4.1-4.1c0,0,0,0,0,0c2.2,0,4,1.7,4.1,3.9
		C165,88.6,165,88.6,165,88.7z M163.4,88.7c-0.1-1.4-1.2-2.4-2.6-2.3c-1.4,0.1-2.4,1.2-2.3,2.6c0.1,1.3,1.2,2.4,2.5,2.3
		C162.3,91.3,163.4,90.1,163.4,88.7C163.4,88.7,163.4,88.7,163.4,88.7z"/>
	<path class="st2" d="M173.8,96.1c-0.4,0-0.9-0.1-1.3-0.2v-1.4c0.3,0.1,0.7,0.2,1,0.2c0.7,0.1,1.4-0.4,1.7-1.1l0.5-1.2l-3.2-7.5h1.7
		l2.3,5.5l2.3-5.5h1.6l-3.9,9.3C176.2,95.4,175.1,96.2,173.8,96.1z"/>
	<path class="st2" d="M182.4,84.9h1.5v0.8c0.6-0.7,1.6-1.1,2.5-1.1c2.2,0.1,4,2,3.9,4.3c-0.1,2.1-1.8,3.8-3.9,3.9
		c-1,0-1.9-0.4-2.5-1.1v4.4h-1.5V84.9z M184,87.3V90c0.5,0.8,1.4,1.3,2.3,1.3c1.4-0.1,2.5-1.4,2.4-2.8c-0.1-1.3-1.1-2.3-2.4-2.4
		C185.4,86.1,184.5,86.5,184,87.3z"/>
	<path class="st2" d="M196.4,92.7c-2.2,0.1-4-1.6-4.1-3.7c0-0.1,0-0.2,0-0.3c-0.2-2.1,1.4-3.9,3.5-4c0.1,0,0.2,0,0.4,0
		c1.8-0.1,3.3,1.2,3.4,3c0,0.1,0,0.2,0,0.3c0,0.3,0,0.6-0.1,0.9h-5.6c-0.1,1.3,1,2.4,2.3,2.5c0.1,0,0.2,0,0.2,0c0.8,0,1.6-0.3,2.1-1
		l1.1,0.9C198.9,92.2,197.7,92.8,196.4,92.7z M194,87.7h4c0-1-0.8-1.8-1.8-1.8c0,0,0,0-0.1,0C195,85.9,194.1,86.7,194,87.7L194,87.7
		z"/>
	<path class="st3" d="M94.5,36c-10.4,0-18.8,8.4-18.8,18.8c0,0,0,0,0,0l0,0c0,10.4,8.4,18.8,18.8,18.8h114
		c10.4,0,18.8-8.4,18.8-18.8l0,0c0-10.4-8.4-18.8-18.8-18.8c0,0,0,0,0,0H94.5z"/>
	<g class="st4">
		<path class="st2" d="M98.9,57.6l2.7,2.1c-1.3,1.7-3.3,2.7-5.7,2.7c-4.3,0-7.2-3.3-7.2-7.1c0-3.9,2.9-7.1,7.2-7.1
			c2.5,0,4.5,1.1,5.7,2.7L98.9,53c-0.6-0.9-1.7-1.6-3-1.6c-2.2,0-3.7,1.7-3.7,3.9c0,2.3,1.5,3.9,3.7,3.9
			C97.2,59.2,98.2,58.6,98.9,57.6z"/>
		<path class="st2" d="M117.7,55.3c0,3.9-2.9,7.1-7.2,7.1c-4.3,0-7.2-3.3-7.2-7.1c0-3.9,2.9-7.1,7.2-7.1
			C114.8,48.1,117.7,51.4,117.7,55.3z M114.2,55.3c0-2.3-1.5-3.9-3.7-3.9c-2.2,0-3.7,1.7-3.7,3.9c0,2.3,1.5,3.9,3.7,3.9
			C112.6,59.2,114.2,57.5,114.2,55.3z"/>
		<path class="st2" d="M120.9,48.5h4.4l4.8,8.4v-8.4h3.4v13.5h-4.4l-4.8-8.4v8.4h-3.4V48.5z"/>
		<path class="st2" d="M146.9,57.6l2.7,2.1c-1.3,1.7-3.3,2.7-5.7,2.7c-4.3,0-7.2-3.3-7.2-7.1c0-3.9,2.9-7.1,7.2-7.1
			c2.5,0,4.5,1.1,5.7,2.7l-2.7,2.1c-0.6-0.9-1.7-1.6-3-1.6c-2.2,0-3.7,1.7-3.7,3.9c0,2.3,1.5,3.9,3.7,3.9
			C145.2,59.2,146.3,58.6,146.9,57.6z"/>
		<path class="st2" d="M152.4,48.5h8.3v2.8h-4.9v2.4h4.1v2.8h-4.1v2.6h4.9v2.8h-8.3V48.5z"/>
		<path class="st2" d="M166.7,48.5l3.5,9.6l3.5-9.6h3.7l-4.9,13.5h-4.5L163,48.5H166.7z"/>
	</g>
	<g class="st4">
		<path class="st2" d="M192.3,55.3c0,3.9-2.9,7.1-7.2,7.1c-4.3,0-7.2-3.3-7.2-7.1c0-3.9,2.9-7.1,7.2-7.1
			C189.3,48.1,192.3,51.4,192.3,55.3z M188.7,55.3c0-2.3-1.5-3.9-3.7-3.9c-2.2,0-3.7,1.7-3.7,3.9c0,2.3,1.5,3.9,3.7,3.9
			C187.2,59.2,188.7,57.5,188.7,55.3z"/>
		<path class="st2" d="M195.4,48.5h3.4v13.5h-3.4V48.5z"/>
		<path class="st2" d="M203.2,48.5h4.5c3.2,0,5.1,1.6,5.1,4.2c0,1.6-0.8,2.9-2.1,3.6l4.1,5.7h-4l-3.4-5.1h-0.8v5.1h-3.4V48.5z
			 M206.6,51.4v2.7h1.3c0.9,0,1.4-0.6,1.4-1.4c0-0.8-0.5-1.3-1.4-1.3H206.6z"/>
	</g>
	<path class="st2" d="M45.8,239.2v-9l39.1-0.2v9L45.8,239.2z M88.8,239.1v-9l39.1-0.2v9L88.8,239.1z M131.9,238.9v-9l39.1-0.2v9
		L131.9,238.9z M175,238.8v-9l39.1-0.2v9L175,238.8z M218.1,238.6v-9l39.1-0.2v9L218.1,238.6z"/>
	<path class="st2" d="M483.7,254.7c-1.3,0.1-2.6-0.7-3.1-1.9l1.6-1c0.4,0.8,0.8,1.2,1.5,1.2c0.5,0,1-0.3,1-0.8c0,0,0,0,0-0.1
		c0-0.6-0.5-0.9-1.1-0.9h-1.2v-1.6h1.2c0.5,0,0.9-0.2,0.9-0.7s-0.3-0.7-0.8-0.7c-0.5,0-1,0.3-1.2,0.8l-1.5-0.9
		c0.6-1,1.7-1.5,2.8-1.5c1.5,0,2.5,0.8,2.5,2.1c0,0.7-0.3,1.3-0.8,1.7c0.7,0.4,1.1,1.1,1.1,1.9C486.6,253.8,485.4,254.7,483.7,254.7
		z"/>
	<path class="st2" d="M492,246.8h2.4l1.5,2.8l1.5-2.8h2.4v7.7h-2v-5l-1.3,2.3h-1.3l-1.3-2.3v5h-2V246.8z"/>
	<path class="st2" d="M510,250.6c0,2.3-1.8,4.1-4.1,4.2c-2.3,0-4.1-1.8-4.2-4.1c0-2.3,1.8-4.1,4.1-4.2c0,0,0,0,0.1,0
		c2.2-0.1,4,1.7,4.1,3.9C510.1,250.5,510.1,250.6,510,250.6z M508,250.6c-0.1-1.2-1.1-2-2.2-2c-1.2,0.1-2,1.1-2,2.2
		c0.1,1.1,1,2,2.1,2C507.1,252.9,508,251.9,508,250.6C508,250.7,508,250.7,508,250.6L508,250.6z"/>
	<path class="st2" d="M512,246.8h2v7.7h-2V246.8z"/>
	<path class="st2" d="M517.1,252.1c0.4,0.5,0.9,0.8,1.6,0.9c0.5,0,0.7-0.2,0.7-0.6c0-1.2-3.4-0.8-3.4-3.4c0.1-1.4,1.2-2.4,2.6-2.4
		c0,0,0.1,0,0.1,0c1.1,0,2.2,0.5,2.9,1.3l-1.4,1.3c-0.3-0.5-0.9-0.8-1.5-0.9c-0.3,0-0.6,0.2-0.7,0.5c0,0,0,0,0,0
		c0,1.1,3.4,0.8,3.4,3.4c0,1.4-1.1,2.4-2.5,2.4c-0.1,0-0.1,0-0.2,0c-1.1,0.1-2.3-0.4-3-1.3L517.1,252.1z"/>
	<polygon class="st1" points="463.5,180.8 479.8,207.7 496,180.8 463.5,180.8 	"/>
	<polygon class="st1" points="514.5,147.5 498.2,120.6 482,147.5 514.5,147.5 	"/>
	<polygon class="st1" points="533.6,178.2 517.3,151.3 501.1,178.2 533.6,178.2 	"/>
	<polygon class="st1" points="495.4,178.2 479.2,151.3 462.9,178.2 495.4,178.2 	"/>
	<polygon class="st1" points="482.2,150.5 498.4,177.4 514.7,150.5 482.2,150.5 	"/>
	<polygon class="st1" points="477.6,208.8 461.4,181.9 445.1,208.8 477.6,208.8 	"/>
	<polygon class="st1" points="551.8,208.8 535.5,181.9 519.3,208.8 551.8,208.8 	"/>
	<polygon class="st1" points="514.5,208.8 498.3,181.9 482,208.8 514.5,208.8 	"/>
	<polygon class="st1" points="500.8,180.3 517.1,207.2 533.3,180.3 500.8,180.3 	"/>
	<path class="st2" d="M458.7,81.2h1.5v11.2h-1.5V81.2z"/>
	<path class="st2" d="M462.9,90.5c0-1.1,0.9-2,2.5-2.2l2.4-0.4v-0.4c0-0.8-0.7-1.5-1.5-1.5c-0.1,0-0.1,0-0.2,0c-0.8,0-1.5,0.4-1.9,1
		l-1.1-0.9c0.7-1,1.9-1.5,3.1-1.5c2,0,3.1,1.2,3.1,2.8v5h-1.5v-0.8c-0.6,0.7-1.5,1.1-2.4,1.1c-1.2,0.2-2.3-0.7-2.5-1.9
		C462.9,90.7,462.9,90.6,462.9,90.5z M465.7,91.4c0.9,0,1.7-0.4,2.1-1.2v-1.3l-2,0.3c-0.9,0.2-1.3,0.6-1.3,1.1
		S464.9,91.4,465.7,91.4z"/>
	<path class="st2" d="M477.3,90.4c0.4,0.6,1.1,1,1.8,1c0.5,0.1,1-0.3,1.1-0.9c0,0,0-0.1,0-0.1c0-1.5-3.7-1-3.7-3.6
		c0.1-1.3,1.2-2.3,2.4-2.2c0,0,0.1,0,0.1,0c1,0,2,0.5,2.6,1.3l-1,0.9c-0.3-0.5-0.9-0.9-1.5-0.9c-0.7,0-1.1,0.4-1.1,0.9
		c0,1.5,3.7,1,3.7,3.6c0,1.3-1.1,2.4-2.5,2.4c0,0-0.1,0-0.1,0c-1.1,0-2.2-0.5-2.9-1.3L477.3,90.4z"/>
	<path class="st2" d="M491.9,88.7c0,2.3-1.8,4.1-4.1,4.1s-4.1-1.8-4.1-4.1s1.8-4.1,4.1-4.1c0,0,0,0,0,0c2.2,0,4,1.7,4.1,3.9
		C491.9,88.6,491.9,88.6,491.9,88.7z M490.2,88.7c-0.1-1.4-1.2-2.4-2.6-2.3c-1.4,0.1-2.4,1.2-2.3,2.6c0.1,1.3,1.2,2.4,2.5,2.3
		C489.2,91.3,490.3,90.1,490.2,88.7C490.2,88.7,490.2,88.7,490.2,88.7L490.2,88.7z"/>
	<path class="st2" d="M494.4,81.2h1.5v11.2h-1.5V81.2z"/>
	<path class="st2" d="M504.1,84.9h1.5v4.2c0,2.2-1.3,3.6-3.4,3.6s-3.4-1.3-3.4-3.6v-4.2h1.5v4.3c0,1.3,0.7,2.1,1.9,2.1
		c1,0,1.8-0.8,1.9-1.8c0-0.1,0-0.2,0-0.3L504.1,84.9z"/>
	<path class="st2" d="M509,86.3h-1.4v-1.4h1.4V83h1.6v1.9h2.5v1.4h-2.4v3.5c0,1,0.5,1.3,1.4,1.3c0.4,0,0.8,0,1.1-0.2v1.4
		c-0.4,0.2-0.9,0.2-1.4,0.2c-1.3,0.2-2.5-0.7-2.7-2.1c0-0.2,0-0.5,0-0.7V86.3z"/>
	<path class="st2" d="M515.2,82.2c0-0.6,0.4-1,1-1s1,0.4,1,1s-0.4,1-1,1C515.7,83.2,515.3,82.7,515.2,82.2z M515.5,84.9h1.5v7.5
		h-1.5V84.9z"/>
	<path class="st2" d="M527.7,88.7c0,2.3-1.8,4.1-4.1,4.1c-2.3,0-4.1-1.8-4.1-4.1c0-2.3,1.8-4.1,4.1-4.1c0,0,0,0,0,0
		c2.2,0,4,1.7,4.1,3.9C527.7,88.6,527.7,88.6,527.7,88.7z M526.1,88.7c-0.1-1.4-1.2-2.4-2.6-2.3c-1.4,0.1-2.4,1.2-2.3,2.6
		c0.1,1.3,1.2,2.4,2.5,2.3C525,91.3,526.1,90.1,526.1,88.7C526.1,88.7,526.1,88.7,526.1,88.7z"/>
	<path class="st2" d="M530.2,84.9h1.5v0.7c0.6-0.7,1.5-1,2.4-1c1.7,0,2.9,1.1,2.9,3.3v4.5h-1.5V88c0.1-0.9-0.5-1.8-1.5-1.9
		c-0.1,0-0.2,0-0.3,0c-0.9,0-1.6,0.5-2,1.3v5.1h-1.5L530.2,84.9z"/>
	<path class="st3" d="M432.6,36c-10.4,0-18.8,8.4-18.8,18.8l0,0c0,10.4,8.4,18.8,18.8,18.8h131.7c10.4,0,18.8-8.4,18.8-18.8l0,0
		c0-10.4-8.4-18.8-18.8-18.8H432.6z"/>
	<g class="st4">
		<path class="st2" d="M440.8,57.6l2.7,2.1c-1.3,1.7-3.3,2.7-5.7,2.7c-4.3,0-7.2-3.3-7.2-7.1c0-3.9,2.9-7.1,7.2-7.1
			c2.5,0,4.5,1.1,5.7,2.7l-2.7,2.1c-0.6-0.9-1.7-1.6-3-1.6c-2.2,0-3.7,1.7-3.7,3.9c0,2.3,1.5,3.9,3.7,3.9
			C439.2,59.2,440.2,58.6,440.8,57.6z"/>
		<path class="st2" d="M459.7,55.3c0,3.9-2.9,7.1-7.2,7.1c-4.3,0-7.2-3.3-7.2-7.1c0-3.9,2.9-7.1,7.2-7.1
			C456.7,48.1,459.7,51.4,459.7,55.3z M456.1,55.3c0-2.3-1.5-3.9-3.7-3.9c-2.2,0-3.7,1.7-3.7,3.9c0,2.3,1.5,3.9,3.7,3.9
			C454.6,59.2,456.1,57.5,456.1,55.3z"/>
		<path class="st2" d="M462.8,48.5h4.4L472,57v-8.4h3.4v13.5h-4.4l-4.8-8.4v8.4h-3.4V48.5z"/>
		<path class="st2" d="M480.9,57.9c0.7,0.9,1.8,1.6,2.8,1.6c0.8,0,1.3-0.3,1.3-1.1c0-2.1-5.9-1.4-5.9-6c0-2.3,1.9-4.1,4.6-4.1
			c2.1,0,3.8,0.9,5.1,2.3l-2.5,2.3c-0.8-0.9-1.6-1.6-2.5-1.6c-0.7,0-1.2,0.4-1.2,1c0,2,5.9,1.3,5.9,6.1c0,2.7-2.2,4.2-4.7,4.2
			c-2.5,0-4.1-0.9-5.3-2.3L480.9,57.9z"/>
		<path class="st2" d="M504.9,55.3c0,3.9-2.9,7.1-7.2,7.1c-4.3,0-7.2-3.3-7.2-7.1c0-3.9,2.9-7.1,7.2-7.1
			C502,48.1,504.9,51.4,504.9,55.3z M501.4,55.3c0-2.3-1.5-3.9-3.7-3.9c-2.2,0-3.7,1.7-3.7,3.9c0,2.3,1.5,3.9,3.7,3.9
			C499.9,59.2,501.4,57.5,501.4,55.3z"/>
		<path class="st2" d="M508.1,48.5h3.4v10.4h4.9v3.1h-8.3V48.5z"/>
		<path class="st2" d="M519.5,48.5h3.4v13.5h-3.4V48.5z"/>
		<path class="st2" d="M527.2,48.5h5.4c4.3,0,7.2,3.1,7.2,6.8c0,3.7-2.9,6.8-7.2,6.8h-5.4V48.5z M530.7,51.6v7.3h2
			c2.1,0,3.7-1.6,3.7-3.7c0-2.1-1.5-3.7-3.7-3.7H530.7z"/>
		<path class="st2" d="M543,48.5h8.3v2.8h-4.9v2.4h4.1v2.8h-4.1v2.6h4.9v2.8H543V48.5z"/>
		<path class="st2" d="M555.2,48.5h4.5c3.2,0,5.1,1.6,5.1,4.2c0,1.6-0.8,2.9-2.1,3.6l4.1,5.7h-4l-3.4-5.1h-0.8v5.1h-3.4V48.5z
			 M558.6,51.4v2.7h1.3c0.9,0,1.4-0.6,1.4-1.4c0-0.8-0.5-1.3-1.4-1.3H558.6z"/>
	</g>
	<polygon class="st1" points="774.3,208.8 764.2,192.2 754.2,208.8 774.3,208.8 	"/>
	<polygon class="st1" points="822.8,208.2 800.9,171.9 778.9,208.2 822.8,208.2 	"/>
	<polygon class="st1" points="923.3,208.2 875.6,129.2 827.8,208.2 923.3,208.2 	"/>
	<path class="st2" d="M818.6,252.8l2.7-2.5c0.4-0.3,0.7-0.8,0.7-1.3c0-0.4-0.3-0.8-0.7-0.8c0,0-0.1,0-0.1,0c-0.7,0-1.1,0.5-1.5,1.1
		l-1.5-0.9c0.6-1.1,1.8-1.9,3.1-1.8c1.3-0.1,2.4,0.8,2.5,2.1c0,0.1,0,0.1,0,0.2c-0.1,1-0.6,1.9-1.3,2.5l-1.6,1.5h3.2v1.7h-5.5
		L818.6,252.8z"/>
	<path class="st2" d="M829.6,246.8h2.4l1.5,2.8l1.5-2.8h2.4v7.7h-2v-5l-1.3,2.3h-1.3l-1.3-2.3v5h-2L829.6,246.8z"/>
	<path class="st2" d="M847.6,250.6c0,2.3-1.8,4.1-4.1,4.2c-2.3,0-4.1-1.8-4.2-4.1c0-2.3,1.8-4.1,4.1-4.2c0,0,0,0,0.1,0
		c2.2-0.1,4,1.7,4.1,3.9C847.6,250.5,847.6,250.6,847.6,250.6z M845.6,250.6c-0.1-1.2-1.1-2-2.2-2c-1.2,0.1-2,1.1-2,2.2
		c0.1,1.1,1,2,2.1,2c1.2,0,2.1-0.9,2.1-2.1C845.6,250.7,845.6,250.7,845.6,250.6L845.6,250.6z"/>
	<path class="st2" d="M849.5,246.8h2v7.7h-2V246.8z"/>
	<path class="st2" d="M854.7,252.1c0.4,0.5,0.9,0.8,1.6,0.9c0.5,0,0.7-0.2,0.7-0.6c0-1.2-3.4-0.8-3.4-3.4c0.1-1.4,1.2-2.4,2.6-2.4
		c0,0,0.1,0,0.1,0c1.1,0,2.2,0.5,2.9,1.3l-1.4,1.3c-0.3-0.5-0.9-0.8-1.5-0.9c-0.3,0-0.6,0.2-0.7,0.5c0,0,0,0,0,0
		c0,1.1,3.4,0.8,3.4,3.4c0,1.4-1.1,2.4-2.5,2.4c-0.1,0-0.1,0-0.2,0c-1.1,0.1-2.3-0.4-3-1.3L854.7,252.1z"/>
	<path class="st2" d="M808.5,81.2h1.5v11.2h-1.5L808.5,81.2z"/>
	<path class="st2" d="M812.4,86.1l1.3-4.1h1.8l-1.6,4.1L812.4,86.1z"/>
	<path class="st2" d="M817.5,82.2c0-0.6,0.4-1,1-1s1,0.4,1,1s-0.4,1-1,1C818,83.2,817.6,82.7,817.5,82.2z M817.8,84.9h1.5v7.5h-1.5
		V84.9z"/>
	<path class="st2" d="M822.5,84.9h1.5v0.7c0.6-0.6,1.4-1,2.2-1c1,0,1.9,0.5,2.4,1.4c0.6-0.9,1.6-1.4,2.6-1.4c1.6,0,2.8,1.1,2.8,3.2
		v4.7h-1.5v-4.6c0.1-0.8-0.5-1.6-1.3-1.7c-0.1,0-0.2,0-0.3,0c-0.8,0-1.5,0.5-1.9,1.2c0,0.1,0,0.3,0,0.4v4.7h-1.5v-4.6
		c0.1-0.8-0.5-1.6-1.3-1.7c-0.1,0-0.2,0-0.3,0c-0.8,0-1.6,0.5-1.9,1.3v5.1h-1.5L822.5,84.9z"/>
	<path class="st2" d="M837,84.9h1.5v0.8c0.6-0.7,1.6-1.1,2.5-1.1c2.2,0.1,4,2,3.9,4.3c-0.1,2.1-1.8,3.8-3.9,3.9
		c-1,0-1.9-0.4-2.5-1.1v4.4H837V84.9z M838.5,87.3V90c0.5,0.8,1.4,1.3,2.3,1.3c1.4-0.1,2.5-1.4,2.4-2.8c-0.1-1.3-1.1-2.3-2.4-2.4
		C839.9,86.1,839.1,86.5,838.5,87.3L838.5,87.3z"/>
	<path class="st2" d="M846.9,90.5c0-1.1,0.9-2,2.5-2.2l2.4-0.4v-0.4c0-0.8-0.7-1.5-1.5-1.5c-0.1,0-0.1,0-0.1,0c-0.8,0-1.5,0.4-1.9,1
		l-1.2-0.9c0.7-1,1.9-1.5,3.1-1.5c2,0,3.1,1.2,3.1,2.8v5h-1.5v-0.8c-0.6,0.7-1.5,1.1-2.4,1.1c-1.2,0.2-2.3-0.7-2.5-1.9
		C846.9,90.7,846.9,90.6,846.9,90.5z M849.7,91.4c0.9,0,1.7-0.4,2.1-1.2v-1.3l-2,0.3c-0.9,0.2-1.3,0.6-1.3,1.1
		S848.9,91.4,849.7,91.4z"/>
	<path class="st2" d="M861.8,90.3l1.2,0.9c-0.8,1-1.9,1.6-3.2,1.5c-2.2,0.1-4.1-1.6-4.3-3.9c-0.1-2.2,1.6-4.1,3.9-4.3
		c0.1,0,0.3,0,0.4,0c1.2,0,2.4,0.5,3.2,1.5l-1.2,0.9c-0.5-0.6-1.2-1-2-1c-1.4,0-2.6,1.2-2.6,2.6s1.2,2.6,2.6,2.6
		C860.6,91.3,861.3,90.9,861.8,90.3z"/>
	<path class="st2" d="M865.7,86.3h-1.4v-1.4h1.4V83h1.5v1.9h2.5v1.4h-2.5v3.5c0,1,0.5,1.3,1.4,1.3c0.4,0,0.8,0,1.1-0.2v1.4
		c-0.4,0.2-0.9,0.2-1.4,0.2c-1.3,0.2-2.5-0.8-2.7-2.1c0-0.2,0-0.4,0-0.7V86.3z"/>
	<path class="st3" d="M784.9,36c-10.4,0-18.8,8.4-18.8,18.8l0,0c0,10.4,8.4,18.8,18.8,18.8h107.8c10.4,0,18.8-8.4,18.8-18.8l0,0
		c0-10.4-8.4-18.8-18.8-18.8H784.9z"/>
	<g class="st4">
		<path class="st2" d="M788.7,48.5h4.5l4.9,13.5h-3.7l-1.1-3.2h-4.8l-1.1,3.2h-3.7L788.7,48.5z M792.3,56l-1.4-4l-1.4,4H792.3z"/>
		<path class="st2" d="M800.4,48.5h4.2l2.7,4.8l2.7-4.8h4.2v13.5h-3.4v-8.7l-2.3,4.1h-2.3l-2.3-4.1v8.7h-3.4V48.5z"/>
		<path class="st2" d="M818.4,48.5h4.8c3.2,0,5.1,1.6,5.1,4.2c0,2.6-2,4.2-5.1,4.2h-1.4v5.1h-3.4V48.5z M821.8,51.4v2.7h1.6
			c0.9,0,1.4-0.6,1.4-1.4c0-0.8-0.5-1.3-1.4-1.3H821.8z"/>
		<path class="st2" d="M830.9,48.5h3.4v10.4h4.9v3.1h-8.3V48.5z"/>
		<path class="st2" d="M842.1,48.5h3.4v13.5h-3.4V48.5z"/>
		<path class="st2" d="M849.6,48.5h8.3v2.8h-4.9v2.4h4.1v2.8h-4.1v5.5h-3.4V48.5z"/>
		<path class="st2" d="M860.8,48.5h3.4v13.5h-3.4V48.5z"/>
		<path class="st2" d="M868.4,48.5h8.3v2.8h-4.9v2.4h4.1v2.8h-4.1v2.6h4.9v2.8h-8.3V48.5z"/>
		<path class="st2" d="M880.3,48.5h4.5c3.2,0,5.1,1.6,5.1,4.2c0,1.6-0.8,2.9-2.1,3.6l4.1,5.7h-4l-3.4-5.1h-0.8v5.1h-3.4V48.5z
			 M883.7,51.4v2.7h1.3c0.9,0,1.4-0.6,1.4-1.4c0-0.8-0.5-1.3-1.4-1.3H883.7z"/>
	</g>
	<path class="st5" d="M242,57.8h157 M591.6,57.8h157"/>
	<path class="st2" d="M797.7,233.5v-9l39.1-0.2v9L797.7,233.5z M435.3,233.5v-9l39.1-0.2v9L435.3,233.5z M840.8,233.4v-9l39.1-0.2v9
		L840.8,233.4z M478.4,233.4v-9l39.1-0.2v9L478.4,233.4z M521.5,233.2v-9l39.1-0.2v9L521.5,233.2z"/>
</g>
</svg>
