<svg xmlns="http://www.w3.org/2000/svg" viewBox="0 0 200 200"><defs><style>.cls-1{fill:none;}.cls-2{fill:red;}.cls-3{fill:#34bab5;}</style></defs><g id="Calque_1" data-name="Calque 1"><g id="frame"><rect class="cls-1" width="200" height="200"/></g></g><g id="Calque_6" data-name="Calque 6"><path class="cls-2" d="M97.79,177.26a3,3,0,0,0,6,0v-26h-6Z"/><path class="cls-2" d="M75.69,175.7a3,3,0,0,0,2.39,3.5,2.74,2.74,0,0,0,.56.06,3,3,0,0,0,3-2.44l4.84-25.56H80.32Z"/><path class="cls-2" d="M125.89,175.7l-4.62-24.44h-6.11L120,176.82a3,3,0,0,0,2.94,2.44,2.6,2.6,0,0,0,.56-.06A3,3,0,0,0,125.89,175.7Z"/><path class="cls-3" d="M167.5,57.26H92.61A15.15,15.15,0,0,1,93.08,61a15.72,15.72,0,0,1-.19,2.29H164.5v71H35.5v-71H62.82A14.44,14.44,0,0,1,62.63,61a15.15,15.15,0,0,1,.47-3.71H32.5a3,3,0,0,0-3,3v77a3,3,0,0,0,3,3h2.72v8a3,3,0,0,0,3,3H161.78a3,3,0,0,0,3-3v-8h2.72a3,3,0,0,0,3-3v-77A3,3,0,0,0,167.5,57.26Zm-8.72,88H41.22v-5H158.78Z"/><path class="cls-2" d="M121.85,69.74a15.21,15.21,0,0,0-12.31,6.31L92.41,65.44a14.34,14.34,0,0,0,.48-2.18A15.72,15.72,0,0,0,93.08,61a15.15,15.15,0,0,0-.47-3.71c-.1-.38-.2-.75-.32-1.11L110.38,45a15.21,15.21,0,1,0-3.75-10,15,15,0,0,0,.77,4.76L89.29,51A15.23,15.23,0,0,0,62.63,61a14.44,14.44,0,0,0,.19,2.29,15.2,15.2,0,0,0,26.72,7.46L107,81.55a14.82,14.82,0,0,0-.4,3.42,15.23,15.23,0,1,0,15.22-15.23Zm0-44A9.23,9.23,0,1,1,112.63,35,9.24,9.24,0,0,1,121.85,25.74ZM87.06,61.36a9.23,9.23,0,1,1,0-.78c0,.13,0,.26,0,.39S87.07,61.23,87.06,61.36ZM121.85,94.2A9.23,9.23,0,1,1,131.08,85,9.24,9.24,0,0,1,121.85,94.2Z"/></g></svg>