<svg xmlns="http://www.w3.org/2000/svg" viewBox="0 0 200 200"><defs><style>.cls-1{fill:none;}.cls-2{fill:#00c8c7;}.cls-3{fill:red;}</style></defs><g id="pictos"><path class="cls-1" d="M50.1,148.34a20.31,20.31,0,0,0,20.05-17.28H30.05A20.31,20.31,0,0,0,50.1,148.34Z"/><polygon class="cls-1" points="151.59 82.32 131.35 125.06 168.75 125.06 151.59 82.32"/><polygon class="cls-1" points="31.56 125.06 68.95 125.06 51.79 82.32 31.56 125.06"/><path class="cls-1" d="M149.9,148.34a20.31,20.31,0,0,0,20-17.28h-40.1A20.3,20.3,0,0,0,149.9,148.34Z"/><path class="cls-2" d="M176,126.94,154.6,73.71a3,3,0,0,0-2.7-1.88H118.42a24.93,24.93,0,0,1-32.14,0H52.1a3,3,0,0,0-2.79,1.72L24.1,126.77a3.15,3.15,0,0,0-.28,1.29,26.29,26.29,0,0,0,52.57,0,3,3,0,0,0-.22-1.12L56.46,77.83H99.35V179.5H87.93a3,3,0,0,0,0,6h28.83a3,3,0,0,0,0-6H105.35V77.83h41.72L123.9,126.77a3,3,0,0,0-.29,1.29,26.29,26.29,0,0,0,52.57,0A3,3,0,0,0,176,126.94ZM50.1,148.34a20.31,20.31,0,0,1-20-17.28h40.1A20.31,20.31,0,0,1,50.1,148.34ZM69,125.06H31.56L51.79,82.32Zm82.64-42.74,17.16,42.74h-37.4Zm-1.69,66a20.3,20.3,0,0,1-20.05-17.28H170A20.31,20.31,0,0,1,149.9,148.34Z"/><path class="cls-3" d="M105.35,27.89V20.5h5.25a3,3,0,0,0,0-6H94.1a3,3,0,0,0,0,6h5.25v7.39a25,25,0,1,0,6,0Zm-3,43.81a19,19,0,1,1,19-19A19,19,0,0,1,102.35,71.7Z"/><path class="cls-3" d="M111.06,51.9h-6.42v-7a3,3,0,0,0-6,0v10a3,3,0,0,0,3,3h9.42a3,3,0,0,0,0-6Z"/></g><g id="Calque_2" data-name="Calque 2"><rect class="cls-1" width="200" height="200"/></g></svg>