<svg xmlns="http://www.w3.org/2000/svg" viewBox="0 0 200 200"><defs><style>.cls-1{fill:red;}.cls-2{fill:#00c8c7;}.cls-3{fill:none;}</style></defs><g id="pictos"><path class="cls-1" d="M91.35,110,64.85,87.32a3,3,0,0,0-3.79-.09l-27.5,21.42a3,3,0,0,0,3.69,4.74L42.9,109V132.6a3,3,0,0,0,3,3h33a3,3,0,0,0,3-3V109.81l5.55,4.74a3,3,0,1,0,3.9-4.55ZM75.9,105.6v24H65.4v-12a3,3,0,0,0-6,0v12H48.9v-25a2.48,2.48,0,0,0,0-.27L62.81,93.47,76,104.78A3.19,3.19,0,0,0,75.9,105.6Z"/><path class="cls-2" d="M159.75,95.6h-56a3,3,0,0,0,0,6h56a3,3,0,0,0,0-6Z"/><path class="cls-2" d="M159.75,111.6h-56a3,3,0,0,0,0,6h56a3,3,0,0,0,0-6Z"/><path class="cls-2" d="M159.75,127.6h-56a3,3,0,0,0,0,6h56a3,3,0,0,0,0-6Z"/><path class="cls-2" d="M167.83,57.5H114.5v-22a3,3,0,0,0-3-3h-23a3,3,0,0,0-3,3v22H32.17A15.19,15.19,0,0,0,17,72.67v79.66A15.19,15.19,0,0,0,32.17,167.5H167.83A15.19,15.19,0,0,0,183,152.33V72.67A15.19,15.19,0,0,0,167.83,57.5Zm-76.33,6v-25h17v30h-17ZM177,152.33a9.19,9.19,0,0,1-9.17,9.17H32.17A9.19,9.19,0,0,1,23,152.33V72.67a9.19,9.19,0,0,1,9.17-9.17H85.5v8a3,3,0,0,0,3,3h23a3,3,0,0,0,3-3v-8h53.33A9.19,9.19,0,0,1,177,72.67Z"/></g><g id="Calque_2" data-name="Calque 2"><rect class="cls-3" width="200" height="200"/></g></svg>