<svg xmlns="http://www.w3.org/2000/svg" viewBox="0 0 200 200"><defs><style>.cls-1{fill:#00c8c7;}.cls-2{fill:red;}.cls-3{fill:none;}</style></defs><g id="pictos"><path class="cls-1" d="M40.52,110.27l8.18,36.16a33.24,33.24,0,1,0,64.84-14.68l-8.19-36.16ZM30.18,60.91A33.21,33.21,0,0,0,31,68.27l8.19,36.14L103.9,89.76l.13,0-.06-.27L95.84,53.57a33.24,33.24,0,0,0-65.66,7.34Zm-5,8.68a39.24,39.24,0,1,1,76.54-17.34l5.2,23,3.65,16.13,1,4.33,7.86,34.74a39.14,39.14,0,0,1-4.92,29.35l-.15.25a39.24,39.24,0,0,1-71.47-12.27L34,108.68h0l-.08-.32Z"/><path class="cls-2" d="M157.78,58.79a3,3,0,0,1,.06,4.25L137.48,84a3,3,0,0,1-2.15.91l-.46,0a3,3,0,0,1-2.22-1.62L129,76a3,3,0,1,1,5.36-2.7l1.74,3.45,17.42-17.9A3,3,0,0,1,157.78,58.79Z"/><path class="cls-2" d="M111.53,95.68l-1-4.33-3.65-16.13,3.45-16.79a33.08,33.08,0,0,1,64.8,13.31l-13.38,65.14a33.06,33.06,0,0,1-39.06,25.75,33.72,33.72,0,0,1-8.23-2.86,39.1,39.1,0,0,0,2.77-5.33,27.07,27.07,0,0,0,38.64-18.77L162,106Zm-1.4-6.41,53,10.89,6.09-29.63a27.07,27.07,0,1,0-53-10.89Z"/><path class="cls-1" d="M54.17,79.25a3,3,0,1,1,3.77-4.67l4.3,3.47L72.76,48.92a3,3,0,1,1,5.64,2L66.45,84a3,3,0,0,1-2,1.87,2.82,2.82,0,0,1-.81.11,3,3,0,0,1-1.88-.66Z"/></g><g id="Calque_2" data-name="Calque 2"><rect class="cls-3" width="200" height="200"/></g></svg>