<svg xmlns="http://www.w3.org/2000/svg" viewBox="0 0 200 200"><defs><style>.cls-1{fill:red;}.cls-2{fill:#00c8c7;}.cls-3{fill:none;}</style></defs><g id="Calque_2" data-name="Calque 2"><path class="cls-1" d="M128.22,72.23c0,.2,0,.4,0,.6,0,1.82-.09,3.62-.26,5.39a49,49,0,1,1-50.19,49.41c-1.5.12-3,.2-4.55.2l-1.45,0a55,55,0,1,0,56.44-55.57Z"/><path class="cls-1" d="M96.55,128.41c0,.22,0,.43,0,.65H92.24a3,3,0,0,0,0,6h5A35.08,35.08,0,0,0,149,158.92a3,3,0,1,0-3-5.21,29.08,29.08,0,0,1-42.67-18.65h26.28a3,3,0,0,0,0-6H102.56c0-.22,0-.43,0-.65a29.86,29.86,0,0,1,.26-3.91h26.8a3,3,0,0,0,0-6H103.85a53.94,53.94,0,0,1-7.1,4A2.62,2.62,0,0,0,97,123,35.73,35.73,0,0,0,96.55,128.41Z"/><path class="cls-2" d="M128.22,72.23A55.06,55.06,0,0,0,73.6,17.84a3,3,0,0,0-.31,0,2.4,2.4,0,0,0-.28,0,55,55,0,0,0-1.23,110l1.45,0c1.53,0,3-.08,4.55-.2a54.53,54.53,0,0,0,19-5.09,53.94,53.94,0,0,0,7.1-4,55.4,55.4,0,0,0,16.09-16.71c.35-.58.72-1.14,1-1.73a53.67,53.67,0,0,0,2.93-5.88,54.68,54.68,0,0,0,4-16c.17-1.77.26-3.57.26-5.39C128.23,72.63,128.22,72.43,128.22,72.23Zm-53.16-30a3,3,0,0,0,1.23-2.42V23.94a49.07,49.07,0,0,1,45.84,45.8h-12.5v-.06a13.05,13.05,0,1,0-26.1,0v.06H76.29V58.91a3,3,0,0,0-3.91-2.86,6.86,6.86,0,0,1-2.15.34,7.05,7.05,0,1,1,2.14-13.77A3,3,0,0,0,75.06,42.19ZM70.29,23.93V36.29h-.06a13.05,13.05,0,0,0,0,26.1h.06v7.18s0,0,0,.06H59.46a3,3,0,0,0-2.86,3.91,7.16,7.16,0,0,1,.34,2.15,7,7,0,1,1-14.1,0,7.15,7.15,0,0,1,.33-2.15,3,3,0,0,0-2.86-3.91h-16A49.06,49.06,0,0,1,70.29,23.93Zm1.12,79.25a3,3,0,0,0-1.23,2.43v16.12a49.06,49.06,0,0,1-45.86-46.1H36.84v.06a13,13,0,1,0,26.1,0v-.06h7.24V86.46a3,3,0,0,0,3.91,2.86A7.16,7.16,0,0,1,76.24,89a7.05,7.05,0,1,1,0,14.1,7.15,7.15,0,0,1-2.15-.33A3,3,0,0,0,71.41,103.18Zm4.77,18.56V109.08h.06a13,13,0,1,0,0-26.1h-.06V75.8s0,0,0-.06H87a3,3,0,0,0,2.86-3.91,6.86,6.86,0,0,1-.34-2.15,7,7,0,1,1,14.1,0,7.15,7.15,0,0,1-.33,2.15,3,3,0,0,0,.43,2.68,3,3,0,0,0,2.42,1.23h16A49.06,49.06,0,0,1,76.18,121.74Z"/><path class="cls-1" d="M149,97.89a35,35,0,0,0-25-3.71,53.67,53.67,0,0,1-2.93,5.88c-.33.59-.7,1.15-1,1.73a15.73,15.73,0,0,1,3.56-1.32,29.07,29.07,0,0,1,22.5,2.64,3,3,0,0,0,4.09-1.12A3,3,0,0,0,149,97.89Z"/><rect class="cls-3" width="200" height="200"/></g></svg>