<svg xmlns="http://www.w3.org/2000/svg" viewBox="0 0 200 200"><defs><style>.cls-1{fill:none;}.cls-2{fill:red;}.cls-3{fill:#00c8c7;}</style></defs><g id="Calque_2" data-name="Calque 2"><path class="cls-1" d="M79.82,52.3a11.9,11.9,0,1,0-11.9-11.9A11.92,11.92,0,0,0,79.82,52.3Z"/><path class="cls-1" d="M82.32,127.06l26,.57a43.48,43.48,0,0,0-.9-7.3h-15a3,3,0,0,1-3-3V94a42.36,42.36,0,0,0-7.05-3.78Z"/><path class="cls-2" d="M79.82,58.3a17.9,17.9,0,1,0-17.9-17.9A17.92,17.92,0,0,0,79.82,58.3Zm0-29.8a11.9,11.9,0,1,1-11.9,11.9A11.92,11.92,0,0,1,79.82,28.5Z"/><path class="cls-3" d="M179.19,59.57H156.48V49.88a3,3,0,0,0-3-3h-35.4a3,3,0,0,0-3,3v9.69H92.37a3,3,0,0,0-3,3v54.76a3,3,0,0,0,3,3h86.82a3,3,0,0,0,3-3V62.57A3,3,0,0,0,179.19,59.57Zm-58.11-6.69h29.4v6.69h-29.4Zm55.11,61.45H95.37V90.1h28.05a3.12,3.12,0,0,0,.92-.16,12,12,0,0,0,22.82.16h29Zm-46.4-28a6,6,0,1,1,6,6A6,6,0,0,1,129.79,86.34Zm46.4-2.24H147.55a12,12,0,0,0-23.55.06,2.78,2.78,0,0,0-.58-.06h-28V65.57h80.82Z"/><path class="cls-2" d="M108.28,127.63l-26-.57V90.22A42.36,42.36,0,0,1,89.37,94V87a47.62,47.62,0,0,0-7.05-3.22v-13a3,3,0,0,0-5.57-1.53l-7,11.85C68.51,81,67.29,81,66.07,81a48.26,48.26,0,1,0,48,52.77l9.26.21,15.4,34a3,3,0,1,0,5.47-2.47l-16.18-35.77a3,3,0,0,0-2.67-1.76l-11.11-.24a48.65,48.65,0,0,0-.8-7.43h-6.1A43.48,43.48,0,0,1,108.28,127.63ZM66.07,171.5a42.26,42.26,0,0,1,0-84.52h.16l-22.5,37.91A3,3,0,0,0,48.89,128l24-40.42c1.16.19,2.31.42,3.44.71V130a3,3,0,0,0,2.94,3l28.84.63A42.32,42.32,0,0,1,66.07,171.5Z"/><rect class="cls-1" width="200" height="200"/></g></svg>