<svg xmlns="http://www.w3.org/2000/svg" viewBox="0 0 200 200"><defs><style>.cls-1{fill:#00c8c7;}.cls-2{fill:red;}.cls-3{fill:none;}</style></defs><g id="pictos"><path class="cls-1" d="M103.32,80.29a9.85,9.85,0,0,0-3.5-1c-.32,0-.63,0-1,0h0a10,10,0,1,0,4.51,1.06ZM98.86,93.23a4,4,0,1,1,4-4A4,4,0,0,1,98.86,93.23Z"/><path class="cls-1" d="M145.24,56.23h-92a3,3,0,0,0-3,3h0v52.52a3.2,3.2,0,0,0,.17,1c1,6.33,6.85,12.38,15.3,16.94.93.5,1.88,1,2.86,1.45s2,.89,3,1.31a74.5,74.5,0,0,0,27.66,5.32A75.51,75.51,0,0,0,123,133.89c1.22-.42,2.42-.85,3.58-1.32s2.27-.95,3.36-1.46c10-4.68,17-11.36,18.15-18.38a2.93,2.93,0,0,0,.18-1V59.23A3,3,0,0,0,145.24,56.23Zm-21.46,71.11c-1.17.46-2.39.88-3.65,1.28s-2.58.77-3.93,1.1a70.71,70.71,0,0,1-17,2A68.85,68.85,0,0,1,76.43,128c-1.08-.38-2.12-.78-3.13-1.2s-2-.88-3-1.35c-6.38-3.14-10.91-7-12.93-10.68h83.65C138.62,119.18,132.45,124,123.78,127.34Zm18.46-42.09v23.5h-86V73.23h85.62c.13,0,.25,0,.38,0Zm0-18c-.13,0-.25,0-.38,0H56.24v-5h86Z"/><path class="cls-2" d="M71.58,132.43c-1-.42-2-.86-3-1.31s-1.93-1-2.86-1.45L47.05,146.78a19.37,19.37,0,1,0,4.61,3.91ZM37,176.56a13.31,13.31,0,1,1,13.31-13.3A13.32,13.32,0,0,1,37,176.56Z"/><path class="cls-2" d="M154.56,137.2a15.28,15.28,0,0,0-9.45,3.27l-15.2-9.36c-1.09.51-2.21,1-3.36,1.46s-2.36.9-3.58,1.32l18.18,11.19a15.2,15.2,0,0,0-2,7.49,15.37,15.37,0,1,0,15.37-15.37Zm0,24.74a9.37,9.37,0,1,1,9.37-9.37A9.38,9.38,0,0,1,154.56,161.94Z"/><path class="cls-2" d="M41.24,42.24A12.07,12.07,0,1,0,37,46.52l13.2,12.71h0a3,3,0,0,1,3-3h2.53Zm-16.38-6a6,6,0,1,1,6,6A6,6,0,0,1,24.86,36.26Z"/><path class="cls-2" d="M149.5,17.44a16.47,16.47,0,0,0-12.34,27.41l-13.9,11.38h9.47l9.3-7.61a16.32,16.32,0,0,0,7.47,1.81,16.5,16.5,0,0,0,0-33Zm0,27A10.5,10.5,0,1,1,160,33.93,10.51,10.51,0,0,1,149.5,44.43Z"/><path class="cls-2" d="M182.09,77.15h0a12,12,0,0,0-23.76,3l-10.09,3.17v6.29l12.08-3.8a12,12,0,0,0,9.92,5.3,11.7,11.7,0,0,0,2-.17A12,12,0,0,0,182.09,77.15Zm-6.93,5.48a6,6,0,1,1-5.9-9.38,7,7,0,0,1,1-.08,6,6,0,0,1,5.9,5A5.92,5.92,0,0,1,175.16,82.63Z"/></g><g id="Calque_2" data-name="Calque 2"><rect class="cls-3" width="200" height="200"/></g></svg>