<svg xmlns="http://www.w3.org/2000/svg" viewBox="0 0 200 200"><defs><style>.cls-1{font-size:22px;fill:#fff;font-family:MyriadPro-Regular, Myriad Pro;}.cls-2{letter-spacing:0em;}.cls-3{fill:none;}.cls-4{fill:#34bab5;}.cls-5{fill:red;}</style></defs><g id="Calque_1" data-name="Calque 1"><g id="frame"><text class="cls-1" transform="translate(-121.92 144.68)">p<tspan class="cls-2" x="12.52" y="0">a</tspan><tspan x="23.03" y="0">thfindé</tspan></text><rect class="cls-3" width="200" height="200"/></g></g><g id="Calque_6" data-name="Calque 6"><path class="cls-3" d="M134.77,121.94a9.23,9.23,0,1,0-9.23-9.23A9.24,9.24,0,0,0,134.77,121.94Z"/><path class="cls-3" d="M33.82,114.61l32.93,57h65.86l32.93-57-32.93-57H66.75Zm101-17.12a15.23,15.23,0,1,1-15.23,15.22A15.24,15.24,0,0,1,134.77,97.49Zm-36,0a15.23,15.23,0,1,1-15.23,15.22A15.24,15.24,0,0,1,98.77,97.49ZM78,112.71A15.23,15.23,0,1,1,62.77,97.49,15.24,15.24,0,0,1,78,112.71Z"/><path class="cls-3" d="M98.77,121.94a9.23,9.23,0,1,0-9.23-9.23A9.24,9.24,0,0,0,98.77,121.94Z"/><path class="cls-3" d="M53.54,112.71a9.23,9.23,0,1,0,9.23-9.22A9.24,9.24,0,0,0,53.54,112.71Z"/><polygon class="cls-4" points="30 51.58 30 57.58 59.82 57.58 63.29 51.58 30 51.58"/><polygon class="cls-4" points="171 177.65 171 171.65 139.54 171.65 136.07 177.65 171 177.65"/><polygon class="cls-4" points="190.85 82.26 185.65 79.26 168.85 108.36 172.32 114.36 190.85 82.26"/><polyline class="cls-4" points="9.15 145.03 14.35 148.03 30.27 120.46 26.89 114.61"/><polygon class="cls-4" points="118.37 21.26 113.16 24.23 128.74 51.58 135.64 51.58 118.37 21.26"/><path class="cls-5" d="M98.77,127.94a15.23,15.23,0,1,0-15.23-15.23A15.24,15.24,0,0,0,98.77,127.94Zm0-24.45a9.23,9.23,0,1,1-9.23,9.22A9.23,9.23,0,0,1,98.77,103.49Z"/><path class="cls-4" d="M134.77,127.94a15.23,15.23,0,1,0-15.23-15.23A15.24,15.24,0,0,0,134.77,127.94Zm0-24.45a9.23,9.23,0,1,1-9.23,9.22A9.23,9.23,0,0,1,134.77,103.49Z"/><path class="cls-4" d="M47.54,112.71A15.23,15.23,0,1,0,62.77,97.49,15.25,15.25,0,0,0,47.54,112.71Zm24.46,0a9.23,9.23,0,1,1-9.23-9.22A9.24,9.24,0,0,1,72,112.71Z"/><polygon class="cls-5" points="28.79 111.33 26.89 114.61 30.27 120.46 33.85 114.26 28.79 111.33"/><path class="cls-5" d="M172.32,114.36l-3.47-6L136.07,51.58H63.29l-3.47,6-31,53.76,5.06,2.92-3.58,6.2,33,57.18h72.78l3.47-6,32.92-57Zm-39.71,57.28H66.75l-32.93-57,32.93-57h65.86l32.93,57Z"/></g></svg>