<svg xmlns="http://www.w3.org/2000/svg" viewBox="0 0 996 280"><defs><style>.cls-1{fill:#caedeb;}.cls-2{font-size:19.28px;font-family:Marianne-ExtraBold, Marianne;font-weight:800;letter-spacing:0.03em;}.cls-2,.cls-4{fill:#000091;}.cls-3{fill:#34bab5;}.cls-5{fill:#e1000f;}</style></defs><g id="Calque_2" data-name="Calque 2"><polygon class="cls-1" points="996.85 279.78 0.85 279.78 0.85 0.08 996.85 0.08 996.85 279.78 996.85 279.78"/><text/><text class="cls-2" transform="translate(165.79 200.75)"><tspan xml:space="preserve">    </tspan></text><path class="cls-3" d="M100,175.22A18.8,18.8,0,0,0,81.18,194h0A18.81,18.81,0,0,0,100,212.81H254.36A18.81,18.81,0,0,0,273.18,194h0a18.81,18.81,0,0,0-18.82-18.79Z"/><path class="cls-4" d="M99.18,187.25h4.54c3.17,0,5.12,1.56,5.12,4.21a3.79,3.79,0,0,1-2.13,3.56l4.13,5.73h-4l-3.4-5.11h-.81v5.11H99.18Zm3.44,2.84v2.72h1.31a1.28,1.28,0,0,0,1.37-1.39,1.27,1.27,0,0,0-1.37-1.33Z"/><path class="cls-4" d="M113.37,187.25h8.34v2.84h-4.9v2.37h4.13v2.83h-4.13v2.63h4.9v2.83h-8.34Z"/><path class="cls-4" d="M134.88,196.34l2.72,2.06a7.13,7.13,0,1,1,0-8.81l-2.72,2.08a3.55,3.55,0,0,0-3-1.58,3.92,3.92,0,0,0,0,7.83A3.6,3.6,0,0,0,134.88,196.34Z"/><path class="cls-4" d="M140.69,187.25h4.54c3.16,0,5.11,1.56,5.11,4.21a3.78,3.78,0,0,1-2.12,3.56l4.13,5.73h-4l-3.39-5.11h-.81v5.11h-3.44Zm3.44,2.84v2.72h1.31a1.28,1.28,0,0,0,1.37-1.39,1.27,1.27,0,0,0-1.37-1.33Z"/><path class="cls-4" d="M162.35,187.25h3.44v8.08c0,3.59-2.09,5.81-5.66,5.81s-5.64-2.22-5.64-5.81v-8.08h3.44v8.41a2.21,2.21,0,1,0,4.42,0Z"/><path class="cls-4" d="M168.68,187.25H180v3.11h-3.93v10.39h-3.44V190.36h-3.94Z"/><path class="cls-4" d="M183.3,187.25h8.33v2.84h-4.9v2.37h4.13v2.83h-4.13v2.63h4.9v2.83H183.3Z"/><path class="cls-4" d="M195.71,187.25H200l2.66,4.82,2.68-4.82h4.25v13.5h-3.44v-8.68l-2.31,4.05h-2.34l-2.31-4.05v8.68h-3.44Z"/><path class="cls-4" d="M214.15,187.25h8.33v2.84h-4.9v2.37h4.13v2.83h-4.13v2.63h4.9v2.83h-8.33Z"/><path class="cls-4" d="M226.56,187.25h4.36l4.85,8.43v-8.43h3.43v13.5h-4.36L230,192.32v8.43h-3.44Z"/><path class="cls-4" d="M242.49,187.25H253.8v3.11h-3.94v10.39h-3.43V190.36h-3.94Z"/><polygon class="cls-4" points="188.96 141.22 170.68 110.91 152.39 141.22 188.96 141.22 188.96 141.22"/><circle class="cls-4" cx="170.93" cy="111.86" r="11.19"/><path class="cls-5" d="M215.05,153.23l-19.34-19.35a30.95,30.95,0,1,0-8,7.88l19.38,19.38ZM149.2,116.59a21.09,21.09,0,1,1,39.5,10.29h0c-.23.4-.47.8-.72,1.19l0,0a20.32,20.32,0,0,1-1.68,2.23l0,0a21.37,21.37,0,0,1-5.4,4.48,21.1,21.1,0,0,1-31.65-18.26Z"/><path class="cls-3" d="M372.81,175.22A18.8,18.8,0,0,0,354,194h0a18.81,18.81,0,0,0,18.81,18.8H559.19A18.81,18.81,0,0,0,578,194h0a18.8,18.8,0,0,0-18.81-18.79Z"/><path class="cls-4" d="M377.61,196.08l2.72,2.06a7.13,7.13,0,1,1,0-8.81l-2.72,2.08a3.55,3.55,0,0,0-3-1.58,3.92,3.92,0,0,0,0,7.83A3.6,3.6,0,0,0,377.61,196.08Z"/><path class="cls-4" d="M396.72,193.74a7.23,7.23,0,1,1-7.22-7.13A7,7,0,0,1,396.72,193.74Zm-3.53,0a3.71,3.71,0,1,0-3.69,3.92A3.68,3.68,0,0,0,393.19,193.74Z"/><path class="cls-4" d="M403.9,194.09v3h-5.21v-3Z"/><path class="cls-4" d="M407,187h8.34v2.84h-4.9v2.37h4.13V195h-4.13v5.46H407Z"/><path class="cls-4" d="M418.67,187h3.44v13.5h-3.44Z"/><path class="cls-4" d="M426.72,187h4.36l4.85,8.43V187h3.44v13.5H435l-4.84-8.43v8.43h-3.44Z"/><path class="cls-4" d="M447.13,187h4.48l4.9,13.5h-3.65l-1.1-3.18H447l-1.1,3.18h-3.64Zm3.63,7.43-1.39-4-1.39,4Z"/><path class="cls-4" d="M459.37,187h4.36l4.84,8.43V187H472v13.5h-4.36l-4.85-8.43v8.43h-3.43Z"/><path class="cls-4" d="M485.72,196.08l2.72,2.06a7.13,7.13,0,1,1,0-8.81l-2.72,2.08a3.55,3.55,0,0,0-3-1.58,3.92,3.92,0,0,0,0,7.83A3.6,3.6,0,0,0,485.72,196.08Z"/><path class="cls-4" d="M491.53,187h8.34v2.84H495v2.37h4.13V195H495v2.63h4.9v2.83h-8.34Z"/><path class="cls-4" d="M503.94,187h4.25l2.66,4.82,2.69-4.82h4.24v13.5h-3.43v-8.68L512,195.86H509.7l-2.32-4.05v8.68h-3.44Z"/><path class="cls-4" d="M522.38,187h8.34v2.84h-4.9v2.37H530V195h-4.13v2.63h4.9v2.83h-8.34Z"/><path class="cls-4" d="M534.79,187h4.37l4.84,8.43V187h3.44v13.5h-4.37l-4.84-8.43v8.43h-3.44Z"/><path class="cls-4" d="M550.72,187H562v3.11h-3.94v10.39h-3.43V190.1h-3.94Z"/><path class="cls-5" d="M460.73,87.1a30.95,30.95,0,0,0,0,61.59Z"/><path class="cls-4" d="M466.15,87.1a31,31,0,0,1,0,61.59Z"/><path class="cls-3" d="M661.64,175.22A18.81,18.81,0,0,0,642.82,194h0a18.81,18.81,0,0,0,18.82,18.8H896A18.81,18.81,0,0,0,914.82,194h0A18.8,18.8,0,0,0,896,175.22Z"/><path class="cls-4" d="M662.39,186.48h4.48l4.9,13.5h-3.65L667,196.8h-4.79l-1.1,3.18h-3.64ZM666,193.9l-1.39-4-1.39,4Z"/><path class="cls-4" d="M674.63,186.48h3.44V200h-3.44Z"/><path class="cls-4" d="M682.68,186.48h5.4c4.31,0,7.24,3.1,7.24,6.75s-2.93,6.75-7.24,6.75h-5.4Zm3.44,3.1v7.29h2a3.65,3.65,0,1,0,0-7.29Z"/><path class="cls-4" d="M698.78,186.48h8.34v2.83h-4.9v2.38h4.13v2.83h-4.13v2.62h4.9V200h-8.34Z"/><path class="cls-4" d="M720.42,186.48h4.48l4.9,13.5h-3.65l-1.1-3.18h-4.78l-1.1,3.18h-3.65Zm-1.78-3.76h3.48l2.18,2.6h-3.13Zm5.41,11.18-1.39-4-1.39,4Z"/><path class="cls-4" d="M738.74,186.48h3.44v10.39h4.9V200h-8.34Z"/><path class="cls-4" d="M748.47,192.3l1.83-5.82h3.44l-2.43,5.82Z"/><path class="cls-4" d="M756.46,186.48h3.44V200h-3.44Z"/><path class="cls-4" d="M764.51,186.48h4.37l4.84,8.43v-8.43h3.44V200h-4.37L768,191.55V200h-3.44Z"/><path class="cls-4" d="M781.77,186.48h4.36l4.85,8.43v-8.43h3.44V200h-4.37l-4.84-8.43V200h-3.44Z"/><path class="cls-4" d="M812.33,193.23a7.23,7.23,0,1,1-7.22-7.14A7,7,0,0,1,812.33,193.23Zm-3.53,0a3.7,3.7,0,1,0-3.69,3.91A3.68,3.68,0,0,0,808.8,193.23Z"/><path class="cls-4" d="M817.68,186.48l3.49,9.62,3.5-9.62h3.65L823.41,200h-4.48l-4.9-13.5Z"/><path class="cls-4" d="M834.32,186.48h4.48l4.9,13.5h-3.65L839,196.8h-4.78l-1.1,3.18h-3.65ZM838,193.9l-1.39-4-1.39,4Z"/><path class="cls-4" d="M845.23,186.48h11.31v3.1H852.6V200h-3.43v-10.4h-3.94Z"/><path class="cls-4" d="M859.84,186.48h3.44V200h-3.44Z"/><path class="cls-4" d="M881.19,193.23a7.23,7.23,0,1,1-7.22-7.14A7,7,0,0,1,881.19,193.23Zm-3.53,0a3.7,3.7,0,1,0-3.69,3.91A3.67,3.67,0,0,0,877.66,193.23Z"/><path class="cls-4" d="M884.65,186.48H889l4.85,8.43v-8.43h3.43V200h-4.36l-4.84-8.43V200h-3.44Z"/><circle class="cls-5" cx="771.82" cy="114.83" r="23.6"/><rect class="cls-5" x="761.87" y="130.25" width="20.1" height="16.36"/><rect class="cls-5" x="761.67" y="149.97" width="20.1" height="4.41"/><rect class="cls-4" x="770.03" y="74" width="3.47" height="12.54"/><rect class="cls-4" x="770.03" y="120.72" width="3.47" height="25.89"/><rect class="cls-4" x="730.34" y="110.76" width="11.71" height="3.47"/><rect class="cls-4" x="799.91" y="110.76" width="11.71" height="3.47"/><rect class="cls-4" x="792.37" y="88.13" width="11.71" height="3.47" transform="translate(80.8 451.17) rotate(-33.15)"/><rect class="cls-4" x="743.68" y="84.01" width="3.47" height="11.71" transform="translate(262.52 664.78) rotate(-56.85)"/><rect class="cls-4" x="764.49" y="110" width="3.47" height="15.36" transform="translate(248.66 694.81) rotate(-56.85)"/><rect class="cls-4" x="769.44" y="115.95" width="15.36" height="3.47" transform="translate(62.15 444.16) rotate(-33.15)"/></g></svg>