<svg xmlns="http://www.w3.org/2000/svg" viewBox="0 0 200 200"><defs><style>.cls-1{fill:none;}.cls-2{fill:red;}.cls-3{fill:#34bab5;}</style></defs><g id="Calque_1" data-name="Calque 1"><g id="frame"><rect class="cls-1" width="200" height="200"/></g></g><g id="Calque_6" data-name="Calque 6"><path class="cls-2" d="M100,112.8a15.23,15.23,0,1,1,15.23-15.23A15.24,15.24,0,0,1,100,112.8Zm0-24.46a9.23,9.23,0,1,0,9.23,9.23A9.24,9.24,0,0,0,100,88.34Z"/><polygon class="cls-3" points="100 165.86 42.97 132.93 42.97 67.07 100 34.14 144.74 59.98 149.21 55.63 100 27.22 36.97 63.61 36.97 136.39 100 172.78 152.19 142.65 147.43 138.47 100 165.86"/><polygon class="cls-2" points="52.95 70.77 52.95 125.09 100 152.26 138.08 130.27 133.32 126.09 100 145.33 58.95 121.63 58.95 74.23 100 50.53 134.19 70.27 138.65 65.92 100 43.6 52.95 70.77"/><polygon class="cls-3" points="67.19 78.43 67.19 116.31 100 135.26 126.4 120.01 121.64 115.83 100 128.33 73.19 112.85 73.19 81.89 100 66.41 123.96 80.24 128.42 75.89 100 59.48 67.19 78.43"/></g></svg>