<svg id="Calque_1" data-name="Calque 1" xmlns="http://www.w3.org/2000/svg" viewBox="0 0 200 200"><defs><style>.cls-1{fill:none;}.cls-2{fill:red;}.cls-3{fill:#34bab5;}</style></defs><g id="frame"><rect class="cls-1" width="200" height="200"/></g><path class="cls-2" d="M55.16,145.5H44.49l-9.75-28H31.36a3,3,0,0,1-1.83-.62l-1.85-1.43,11.85,34a3,3,0,0,0,2.83,2h17a3,3,0,0,0,2.84-4l-10.3-30H45.56Z"/><path class="cls-3" d="M116.79,48.86a3,3,0,0,0-3.07.13L68.47,78.5H31.36a2.92,2.92,0,0,0-1.57.45l-13,8a3,3,0,0,0-1.43,2.55v15a3,3,0,0,0,1.17,2.38l11.15,8.57,1.85,1.43a3,3,0,0,0,1.83.62H68.42L113.65,149a3,3,0,0,0,3.1.2,3,3,0,0,0,1.61-2.66v-95A3,3,0,0,0,116.79,48.86ZM54.36,111.5h-22l-11-8.48V91.18L32.21,84.5H54.36Zm58,29.26L71.07,112a3,3,0,0,0-1.71-.54h-9v-27h9A3,3,0,0,0,71,84l41.36-27Z"/><path class="cls-2" d="M140.78,83.34A15.23,15.23,0,1,0,156,98.57,15.24,15.24,0,0,0,140.78,83.34Zm0,24.46A9.23,9.23,0,1,1,150,98.57,9.24,9.24,0,0,1,140.78,107.8Z"/><path class="cls-3" d="M160.36,80.5a3,3,0,0,0,2.12-.88l11-11a3,3,0,1,0-4.24-4.24l-11,11a3,3,0,0,0,2.12,5.12Z"/><path class="cls-3" d="M181.64,96H166.08a3,3,0,0,0,0,6h15.56a3,3,0,0,0,0-6Z"/><path class="cls-3" d="M162.4,119a3,3,0,1,0-4.24,4.24l11,11a3,3,0,0,0,2.12.88A3,3,0,0,0,173.4,130Z"/></svg>