<svg xmlns="http://www.w3.org/2000/svg" viewBox="0 0 200 200"><defs><style>.cls-1{fill:#34bab5;}.cls-2{fill:red;}.cls-3{fill:none;}</style></defs><g id="pictos"><g id="g4986"><g id="path4186"><path class="cls-1" d="M151.53,139.16H50.7a3.2,3.2,0,1,1,0-6.4H151.53a3.2,3.2,0,0,1,0,6.4Z"/></g><g id="path4180"><path class="cls-2" d="M61.54,160.55a3,3,0,0,1-3-3V52.39a3,3,0,0,1,6,0V157.55A3,3,0,0,1,61.54,160.55Z"/></g><path class="cls-1" d="M154.58,62.63H50.09a2.31,2.31,0,0,0-.46,0,15.85,15.85,0,1,0,0,5.9,2.31,2.31,0,0,0,.46,0H154.58a3,3,0,1,0,0-6ZM34.07,75.48a9.85,9.85,0,1,1,9.85-9.85A9.86,9.86,0,0,1,34.07,75.48Z"/><path class="cls-2" d="M116.44,38.17A15.85,15.85,0,1,0,97.59,53.72v102.4a3,3,0,0,0,6,0V53.72A15.87,15.87,0,0,0,116.44,38.17ZM100.59,48a9.85,9.85,0,1,1,9.85-9.84A9.85,9.85,0,0,1,100.59,48Z"/><g id="circle4266"><path class="cls-1" d="M153.08,100.8a12.75,12.75,0,0,1,.35-2.92,3.08,3.08,0,0,0-.68-.08H48.26a3,3,0,0,0,0,6H152.75a3.09,3.09,0,0,0,.68-.09A12.73,12.73,0,0,1,153.08,100.8Z"/><path class="cls-1" d="M165.93,116.64a15.85,15.85,0,1,1,15.85-15.84A15.86,15.86,0,0,1,165.93,116.64Zm0-25.69a9.85,9.85,0,1,0,9.85,9.85A9.86,9.86,0,0,0,165.93,91Z"/></g><path class="cls-2" d="M142.63,146.28V51.67a3,3,0,0,0-6,0v94.61a15.85,15.85,0,1,0,6,0Zm-3,25.4a9.85,9.85,0,1,1,9.85-9.85A9.85,9.85,0,0,1,139.63,171.68Z"/></g></g><g id="frame"><rect class="cls-3" width="200" height="200"/></g></svg>