<svg xmlns="http://www.w3.org/2000/svg" viewBox="0 0 200 200"><defs><style>.cls-1{fill:#34bab5;}.cls-2{fill:red;}.cls-3{fill:none;}</style></defs><g id="pictos"><g id="g4998"><g id="circle4285"><path class="cls-1" d="M179.57,107,163.32,25.68a3,3,0,0,0-3.23-2.4l-83.6,8.13a3,3,0,0,0-1.58.64L60.74,43.32a13.13,13.13,0,0,1,3,5.31L78,37.3l80-7.78,15.39,77-69.62,64L26.44,155l2.21-78.51L44.78,63.68a13.25,13.25,0,0,1-4.51-4.07L23.82,72.69A3,3,0,0,0,22.69,75l-2.32,82.44a3,3,0,0,0,2.41,3l81.28,16.25a2.86,2.86,0,0,0,.58.06,3,3,0,0,0,2-.79l72-66.18A3,3,0,0,0,179.57,107Z"/><path class="cls-1" d="M51.07,68.29A16.13,16.13,0,1,1,67.19,52.16,16.15,16.15,0,0,1,51.07,68.29Zm0-26.25A10.13,10.13,0,1,0,61.19,52.16,10.13,10.13,0,0,0,51.07,42Z"/></g><g id="circle4287"><path class="cls-2" d="M164.46,101.05,154,56.93a3,3,0,0,0-3.21-2.3l-47.61,4.65a3,3,0,0,0-1.38.5L89.39,68.16a13,13,0,0,1,3.81,4.66l11.33-7.64,44.24-4.32,9.43,39.79-54.33,46.57L56.75,135.44l3.17-40.15L72.15,87a12.78,12.78,0,0,1-2.9-5.28L55.36,91.13a3,3,0,0,0-1.31,2.25L50.57,137.5a3,3,0,0,0,2.26,3.15l51.09,12.77a3,3,0,0,0,.72.09,3,3,0,0,0,2-.72L163.49,104A3,3,0,0,0,164.46,101.05Z"/><path class="cls-2" d="M81.64,94.24A15.85,15.85,0,1,1,97.49,78.39,15.87,15.87,0,0,1,81.64,94.24Zm0-25.7a9.85,9.85,0,1,0,9.85,9.85A9.86,9.86,0,0,0,81.64,68.54Z"/></g></g></g><g id="frame"><rect class="cls-3" width="200" height="200"/></g></svg>