<svg xmlns="http://www.w3.org/2000/svg" viewBox="0 0 200 200"><defs><style>.cls-1{fill:#34bab5;}.cls-2{fill:red;}.cls-3{fill:none;}</style></defs><g id="pictos"><g id="g5019"><path class="cls-1" d="M165.6,61.59H34.4a3,3,0,0,0-3,3v70.82a3,3,0,0,0,3,3H165.6a3,3,0,0,0,3-3V64.59A3,3,0,0,0,165.6,61.59Zm-29.95,70.82h-71L38,105.72a2.64,2.64,0,0,0-.57-.44V95a2.64,2.64,0,0,0,.57-.44l26.71-26.7.23-.28h70.51a3.29,3.29,0,0,0,.34.42l26.71,26.71.13.11v10.64l-.13.1-26.71,26.71ZM162.6,85.8,144.39,67.59H162.6ZM56.47,67.59,37.4,86.66V67.59Zm-19.07,46,18.78,18.78H37.4Zm107.28,18.78,17.92-17.92v17.92Z"/><g id="circle4814"><path class="cls-2" d="M100,115.85A15.85,15.85,0,1,1,115.85,100,15.87,15.87,0,0,1,100,115.85Zm0-25.7a9.85,9.85,0,1,0,9.85,9.85A9.86,9.86,0,0,0,100,90.15Z"/></g></g></g><g id="frame"><rect class="cls-3" width="200" height="200"/></g></svg>