<svg xmlns="http://www.w3.org/2000/svg" viewBox="0 0 200 200"><defs><style>.cls-1{fill:red;}.cls-2{fill:#34bab5;}.cls-3{fill:none;}</style></defs><g id="pictos"><g id="g17758"><path class="cls-1" d="M154.79,122.47a15.85,15.85,0,1,0-19.28,15.46v14H87.09V105.47a3.2,3.2,0,0,0-6.4,0v49.68a3.2,3.2,0,0,0,3.2,3.2h54.82a3.2,3.2,0,0,0,3.2-3.2V138A15.85,15.85,0,0,0,154.79,122.47ZM139,132.31a9.85,9.85,0,1,1,9.84-9.84A9.85,9.85,0,0,1,139,132.31Z"/><g id="path4815"><path class="cls-2" d="M103.21,108.67H64.45a3.2,3.2,0,0,1-3.09-2.37L45.12,45.67a3.19,3.19,0,0,1,3.09-4H62.55a3.2,3.2,0,0,1,0,6.4H52.38l14.53,54.22h33.84l14.53-54.22H105.11a3.2,3.2,0,0,1,0-6.4h14.34a3.19,3.19,0,0,1,3.09,4L106.3,106.3A3.2,3.2,0,0,1,103.21,108.67Z"/></g></g></g><g id="frame"><rect class="cls-3" width="200" height="200"/></g></svg>