<svg xmlns="http://www.w3.org/2000/svg" viewBox="0 0 200 200"><defs><style>.cls-1{fill:#34bab5;}.cls-2{fill:red;}.cls-3{fill:none;}</style></defs><g id="pictos"><g id="circle17614"><path class="cls-1" d="M99.65,113.86A15.85,15.85,0,1,1,115.5,98,15.87,15.87,0,0,1,99.65,113.86Zm0-25.69A9.85,9.85,0,1,0,109.5,98,9.86,9.86,0,0,0,99.65,88.17Z"/></g><g id="g17071"><g id="path17073"><path class="cls-2" d="M130.59,168a3.18,3.18,0,0,1-2-.72L112,153.78a3.1,3.1,0,0,1-1-1.3l-.31-.79a2.06,2.06,0,0,1-.12-.35l-3.89-14.59h-14l-3.89,14.59a2.53,2.53,0,0,1-.12.36l-.31.78a3.1,3.1,0,0,1-1,1.3L70.73,167.26a3.19,3.19,0,0,1-3.61.29l-11.57-6.66A3.2,3.2,0,0,1,54,157.61l3.39-21.1A3.26,3.26,0,0,1,58,135l.52-.66a3.33,3.33,0,0,1,.25-.28l10.72-10.65-7-12.11L47.9,115.26l-.37.08-.84.12a3.12,3.12,0,0,1-1.6-.18l-20-7.61a3.22,3.22,0,0,1-2.06-3V91.36a3.2,3.2,0,0,1,2.06-3l20-7.62a3.12,3.12,0,0,1,1.6-.17l.84.12.37.07,14.61,3.94,7.18-12L59,62.1a3.86,3.86,0,0,1-.41-.44L58,61a3.26,3.26,0,0,1-.66-1.48L54,38.42a3.21,3.21,0,0,1,1.56-3.28l11.57-6.66a3.21,3.21,0,0,1,3.61.29L87.35,42.25a3.16,3.16,0,0,1,1,1.3l.31.79a1.9,1.9,0,0,1,.12.36l3.89,14.58h14l3.89-14.58a2.53,2.53,0,0,1,.12-.36l.31-.78a3.19,3.19,0,0,1,1-1.31l16.62-13.48a3.21,3.21,0,0,1,3.61-.29l11.57,6.66a3.21,3.21,0,0,1,1.56,3.28l-3.39,21.1a3.24,3.24,0,0,1-.65,1.48l-.53.66a2.26,2.26,0,0,1-.25.28L129.77,72.59l7,12.12,14.61-3.94.37-.07.84-.12a3.12,3.12,0,0,1,1.6.17l20,7.62a3.2,3.2,0,0,1,2.06,3v13.32a3.22,3.22,0,0,1-2.06,3l-20,7.61a3.12,3.12,0,0,1-1.6.18l-.84-.12-.37-.08-14.61-3.93-7,12.11,10.72,10.65a3.33,3.33,0,0,1,.25.28l.53.66a3.24,3.24,0,0,1,.65,1.48l3.39,21.1a3.2,3.2,0,0,1-1.56,3.28l-11.57,6.66A3.11,3.11,0,0,1,130.59,168Zm-13.93-18.62,14.24,11.55,7.74-4.46-2.9-18.06-12.23-12.15a3.19,3.19,0,0,1-.51-3.87L132.48,106a3.18,3.18,0,0,1,3.6-1.49L152.75,109l17.14-6.52V93.56L152.75,87l-16.67,4.48a3.19,3.19,0,0,1-3.6-1.48L123,73.66a3.2,3.2,0,0,1,.51-3.87l12.23-12.15,2.9-18-7.74-4.46L116.66,46.67,112.22,63.3a3.19,3.19,0,0,1-3.09,2.38h-19a3.19,3.19,0,0,1-3.09-2.38L82.64,46.67,68.41,35.13l-7.75,4.46,2.9,18L75.79,69.79a3.2,3.2,0,0,1,.51,3.87L66.82,90a3.19,3.19,0,0,1-3.6,1.48L46.56,87,29.41,93.56v8.91L46.56,109l16.66-4.48a3.18,3.18,0,0,1,3.6,1.49l9.48,16.37a3.19,3.19,0,0,1-.51,3.87L63.56,138.39l-2.9,18.06,7.75,4.46,14.23-11.55,4.44-16.63a3.2,3.2,0,0,1,3.09-2.38h19a3.2,3.2,0,0,1,3.09,2.38Z"/></g></g></g><g id="frame"><rect class="cls-3" width="200" height="200"/></g></svg>