<svg xmlns="http://www.w3.org/2000/svg" viewBox="0 0 200 200"><defs><style>.cls-1{fill:none;}.cls-2{fill:red;}.cls-3{fill:#34bab5;}</style></defs><g id="pictos"><path class="cls-1" d="M102.81,50.83a9.85,9.85,0,0,0-9.5,7.32h19A9.85,9.85,0,0,0,102.81,50.83Z"/><path class="cls-1" d="M102.81,70.53A9.87,9.87,0,0,0,112,64.15H93.61A9.85,9.85,0,0,0,102.81,70.53Z"/><path class="cls-1" d="M164.41,72.19a9.85,9.85,0,1,0-9.85-9.85A9.86,9.86,0,0,0,164.41,72.19Z"/><path class="cls-1" d="M164.41,78.19a16.28,16.28,0,0,1-3.22-.33L150.81,116.6H178L167.63,77.86A16.28,16.28,0,0,1,164.41,78.19Z"/><path class="cls-2" d="M57,64.15H87.36a15.91,15.91,0,0,1-.4-3.47,15.16,15.16,0,0,1,.23-2.53H56.48A15.84,15.84,0,1,0,32.41,75.51L20.8,118.82a3,3,0,0,0,2.9,3.78h35a3,3,0,0,0,2.38-1.17,3,3,0,0,0,.52-2.61L50,75.51A15.86,15.86,0,0,0,57,64.15ZM54.81,116.6H27.61L38,77.86a15.87,15.87,0,0,0,6.44,0ZM41.21,72.19a9.85,9.85,0,1,1,9.85-9.85A9.86,9.86,0,0,1,41.21,72.19Z"/><path class="cls-2" d="M184.82,118.82,173.21,75.51a15.84,15.84,0,1,0-24.07-17.36h-30.7a16.3,16.3,0,0,1,.22,2.53,15.91,15.91,0,0,1-.4,3.47h30.42a15.85,15.85,0,0,0,6.93,11.36L144,118.82a3,3,0,0,0,2.9,3.78h35a3,3,0,0,0,2.38-1.17A3,3,0,0,0,184.82,118.82ZM154.56,62.34a9.85,9.85,0,1,1,9.85,9.85A9.86,9.86,0,0,1,154.56,62.34Zm-3.75,54.26,10.38-38.74a15.87,15.87,0,0,0,6.44,0L178,116.6Z"/><path class="cls-3" d="M133.44,156.58H105.81V76.23a15.93,15.93,0,0,0,12.85-15.55,16.3,16.3,0,0,0-.22-2.53,15.82,15.82,0,0,0-31.25,0A15.16,15.16,0,0,0,87,60.68,15.93,15.93,0,0,0,99.81,76.23v80.35H72.18a3,3,0,0,0,0,6h29.94a3.18,3.18,0,0,0,.69.09,3.1,3.1,0,0,0,.69-.09h29.94a3,3,0,0,0,0-6ZM102.81,70.53A9.91,9.91,0,0,1,93,60.68a9.6,9.6,0,0,1,.35-2.53,9.83,9.83,0,0,1,19,0,9.67,9.67,0,0,1-.3,6A9.87,9.87,0,0,1,102.81,70.53Z"/></g><g id="frame"><rect class="cls-1" width="200" height="200"/></g></svg>