<svg xmlns="http://www.w3.org/2000/svg" viewBox="0 0 200 200"><defs><style>.cls-1{fill:#34bab5;}.cls-2{fill:red;}.cls-3{fill:none;}</style></defs><g id="pictos"><g id="g17708"><g id="path4708"><path class="cls-1" d="M147.87,123.19h-71A3,3,0,0,1,74,121L56.79,59.81H27.87a3,3,0,0,1,0-6h31.2A3,3,0,0,1,62,56l4,14.35h93.15a3,3,0,0,1,2.92,3.7l-11.26,46.83A3,3,0,0,1,147.87,123.19Zm-68.76-6h66.4l9.81-40.83H67.66Z"/></g><path class="cls-2" d="M80,127.49a15.85,15.85,0,1,0,15.85,15.85A15.87,15.87,0,0,0,80,127.49Zm0,25.7a9.85,9.85,0,1,1,9.85-9.85A9.86,9.86,0,0,1,80,153.19Z"/><path class="cls-2" d="M142.39,127.49a15.85,15.85,0,1,0,15.85,15.85A15.87,15.87,0,0,0,142.39,127.49Zm0,25.7a9.85,9.85,0,1,1,9.85-9.85A9.86,9.86,0,0,1,142.39,153.19Z"/></g></g><g id="frame"><rect class="cls-3" width="200" height="200"/></g></svg>