<svg xmlns="http://www.w3.org/2000/svg" viewBox="0 0 200 200"><defs><style>.cls-1{fill:#34bab5;}.cls-2{fill:red;}.cls-3{fill:none;}</style></defs><g id="pictos"><path class="cls-1" d="M141.41,38.54a3,3,0,0,0-3-3l-80.28-.22h0a3,3,0,0,0-3,3L55,57.91a15.88,15.88,0,1,0,6,0l.09-16.59,74.31.2.13,104.57h-62a15.84,15.84,0,0,0-26.8-8.48h0A15.85,15.85,0,1,0,73.47,152.1h65.07a3,3,0,0,0,3-3ZM67.81,73.47a9.83,9.83,0,1,1-2.88-7A9.8,9.8,0,0,1,67.81,73.47Zm-2.88,82.32A9.85,9.85,0,0,1,51,141.86h0a9.85,9.85,0,0,1,13.93,13.93Z"/><path class="cls-2" d="M156.75,136.12l0,0-.08-.07-.18-.14c-.46-.49-1-1-1.58-1.53l-5.29-4.9-16.06-14.82-15-13.84a15.86,15.86,0,1,0-4.14,4.34c14.14,13,35.08,32.33,38,35.08l.31.31a3.23,3.23,0,0,0,2.16.89,3.05,3.05,0,0,0,2.22-1C158.54,138.84,158,137.55,156.75,136.12ZM95.42,92.22a9.85,9.85,0,1,1,9.84,9.85A9.85,9.85,0,0,1,95.42,92.22Z"/></g><g id="frame"><rect class="cls-3" width="200" height="200"/></g></svg>