<svg xmlns="http://www.w3.org/2000/svg" viewBox="0 0 200 200"><defs><style>.cls-1{fill:#34bab5;}.cls-2{fill:red;}.cls-3{fill:none;}</style></defs><g id="pictos"><g id="g17634"><g id="circle4295"><path class="cls-1" d="M34.58,116.27a15.85,15.85,0,1,1,15.85-15.85A15.87,15.87,0,0,1,34.58,116.27Zm0-25.7a9.85,9.85,0,1,0,9.85,9.85A9.86,9.86,0,0,0,34.58,90.57Z"/></g><g id="circle4297"><path class="cls-1" d="M100.09,100.42a13.28,13.28,0,0,1,.3-2.77H99v6h1.48A13.17,13.17,0,0,1,100.09,100.42Z"/><path class="cls-1" d="M112.94,116.27a15.85,15.85,0,1,1,15.84-15.85A15.87,15.87,0,0,1,112.94,116.27Zm0-25.7a9.85,9.85,0,1,0,9.84,9.85A9.86,9.86,0,0,0,112.94,90.57Z"/></g><g id="circle4316"><path class="cls-2" d="M146.42,97.14,128.59,58.53a3,3,0,0,0-2.72-1.74h0L67,57.13a3,3,0,0,0-2.29,1.08,3,3,0,0,0-.65,2.45l5,27.8a12.72,12.72,0,0,1,4.67-.89,11,11,0,0,1,1.28.07L70.61,63.11,124,62.8l17,36.86a3,3,0,0,0,2.73,1.74,2.92,2.92,0,0,0,1.25-.28A3,3,0,0,0,146.42,97.14Z"/><path class="cls-2" d="M73.76,116.27A15.85,15.85,0,1,1,89.6,100.42,15.87,15.87,0,0,1,73.76,116.27Zm0-25.7a9.85,9.85,0,1,0,9.84,9.85A9.86,9.86,0,0,0,73.76,90.57Z"/></g></g><path class="cls-1" d="M125.48,97.65a12.77,12.77,0,0,1-.12,6h47L148,137.21H38l-.13-24.4a12.63,12.63,0,0,1-3.33.46,12.83,12.83,0,0,1-2.66-.28l.15,30.22h119l33.1-45.56Z"/></g><g id="frame"><rect class="cls-3" width="200" height="200"/></g></svg>