<svg xmlns="http://www.w3.org/2000/svg" viewBox="0 0 200 200"><defs><style>.cls-1{fill:red;}.cls-2{fill:#34bab5;}.cls-3{fill:none;}</style></defs><g id="pictos"><g id="g17618"><g id="path4499"><path class="cls-1" d="M99.63,127.1a3,3,0,0,1-2-.73L23.14,61.87a3,3,0,1,1,3.93-4.54l74.52,64.5a3,3,0,0,1-2,5.27Z"/></g><g id="path4501"><path class="cls-1" d="M108.43,103.9a3,3,0,0,1-1.75-5.44l63.07-45.3a3,3,0,0,1,3.5,4.88l-63.07,45.3A3,3,0,0,1,108.43,103.9Z"/></g><g id="path4368"><path class="cls-1" d="M104.47,130.77l-.38,0-48.36-6.22A3,3,0,0,1,53.49,123L17.34,57.58a3,3,0,0,1,3.56-4.3L93,76.91a3,3,0,0,1,2,2l13,46.57a3,3,0,0,1-.5,2.63A3,3,0,0,1,104.47,130.77ZM58,118.77l43.39,5.58L89.62,82.11,26.28,61.36Z"/></g><g id="path4378"><path class="cls-1" d="M138.87,106.64h0l-31.61-.26a3,3,0,0,1-2.86-2.16A3,3,0,0,1,104,101l16.58-34.09a3,3,0,0,1,1.78-1.54l56.75-18.25a3,3,0,0,1,3.3,4.68l-41.17,53.64A3,3,0,0,1,138.87,106.64ZM111,100.41l26.42.21,34.4-44.83L125.42,70.71Z"/></g><path class="cls-2" d="M108.15,142.66l-.24-117.72h-6l.23,117.6a15.83,15.83,0,1,0,6,.11ZM104.84,168a9.85,9.85,0,1,1,9.85-9.85A9.85,9.85,0,0,1,104.84,168Z"/></g></g><g id="frame"><rect class="cls-3" width="200" height="200"/></g></svg>