<svg xmlns="http://www.w3.org/2000/svg" viewBox="0 0 200 200"><defs><style>.cls-1{fill:none;}.cls-2{fill:red;}.cls-3{fill:#34bab5;}</style></defs><g id="Calque_1" data-name="Calque 1"><g id="frame"><rect class="cls-1" width="200" height="200"/></g></g><g id="pictos"><path class="cls-2" d="M144.9,72.85A19.11,19.11,0,0,0,126,89.13a18.33,18.33,0,0,0-7.14.15,19.08,19.08,0,0,0-37.76-.15,18.33,18.33,0,0,0-7.14.15,19.1,19.1,0,1,0-14.88,21.34,19.08,19.08,0,0,0,37.76.15,18.33,18.33,0,0,0,7.14-.15,19.08,19.08,0,0,0,37.76.15,19.09,19.09,0,1,0,3.13-37.92ZM42,92a13.09,13.09,0,0,1,26.18-.35,19.1,19.1,0,0,0-8.93,12.77,13.27,13.27,0,0,1-4.15.68A13.12,13.12,0,0,1,42,92Zm36,29.1A13.11,13.11,0,0,1,64.92,108.3a19.1,19.1,0,0,0,8.93-12.77A13.27,13.27,0,0,1,78,94.85a13.07,13.07,0,0,1,3.21.41,19.15,19.15,0,0,0,9.85,13.56A13.11,13.11,0,0,1,78,121.05Zm18.79-16.41a19.15,19.15,0,0,0-9.85-13.56,13.09,13.09,0,0,1,26.14.52,19.1,19.1,0,0,0-8.93,12.77,13.27,13.27,0,0,1-4.15.68A13.07,13.07,0,0,1,96.79,104.64Zm26.11,16.41a13.11,13.11,0,0,1-13.08-12.75,19.1,19.1,0,0,0,8.93-12.77,13.27,13.27,0,0,1,4.15-.68,13.07,13.07,0,0,1,3.21.41A19.15,19.15,0,0,0,136,108.82,13.11,13.11,0,0,1,122.9,121.05Zm22-16a13.07,13.07,0,0,1-3.21-.41,19.15,19.15,0,0,0-9.85-13.56,13.09,13.09,0,1,1,13.06,14Z"/><path class="cls-3" d="M196.6,111.83V89.28a3,3,0,0,0,0-1.45V52.55a3,3,0,0,0-3-3H6.3a3,3,0,0,0-3,3v61.69h0v33.21a3,3,0,0,0,3,3H193.6a3,3,0,0,0,3-3V113.28A3,3,0,0,0,196.6,111.83Zm-6-56.28V81.09l-25-25.54Zm-181.3,0H34.37L9.3,81.19Zm33.46,0H157.24L190.6,89.67V111.4l-33.43,33H40.55L9.3,113V89.77Zm-33.46,66,22.79,22.93H9.3Zm156.4,22.93,24.9-24.62v24.62Z"/></g></svg>