<svg xmlns="http://www.w3.org/2000/svg" viewBox="0 0 200 200"><defs><style>.cls-1{fill:none;}.cls-2{fill:#34bab5;}.cls-3{fill:red;}</style></defs><g id="Calque_1" data-name="Calque 1"><g id="frame"><rect class="cls-1" width="200" height="200"/></g></g><g id="pictos"><path class="cls-2" d="M179.17,56.76H20.83a3,3,0,0,0-3,3v112.1a3,3,0,0,0,2.77,3l79.11,6.05h.52l79.22-7.54a3,3,0,0,0,2.72-3V59.76A3,3,0,0,0,179.17,56.76Zm-155.34,6H176.17V142H23.83ZM176.17,167.65,99.92,174.9l-76.09-5.82V148H176.17Z"/><path class="cls-3" d="M110.41,63.13l16.21-16.32a3,3,0,1,0-4.26-4.23L110.13,54.89v-13a3.07,3.07,0,0,0,.5-.39l12.55-12.56a3,3,0,0,0-4.24-4.24l-8.81,8.8V22.09a3,3,0,0,0-6,0V75a21.34,21.34,0,0,0-4.19-.42,22,22,0,0,0-3,.24V32.48a3,3,0,1,0-6,0V44.53l-7.21-7.21a3,3,0,1,0-4.24,4.24L90.06,52.18a2.86,2.86,0,0,0,.83.57V66.93L77.51,53.64a3,3,0,1,0-4.22,4.25L90.75,75.24l.14.12v1.25a21.35,21.35,0,1,0,19.24.55V63.35ZM115.32,96a15.39,15.39,0,1,1-9.48-14.2l.22.1A15.38,15.38,0,0,1,115.32,96Z"/></g></svg>