<svg xmlns="http://www.w3.org/2000/svg" viewBox="0 0 200 200"><defs><style>.cls-1{fill:none;}.cls-2{fill:#34bab5;}.cls-3{fill:red;}</style></defs><g id="Calque_1" data-name="Calque 1"><g id="frame"><rect class="cls-1" width="200" height="200"/></g></g><g id="pictos"><path class="cls-2" d="M185.2,24.23H14.8a3,3,0,0,0-3,3V148.76a3,3,0,0,0,3,3H97V183.2H44.21a3,3,0,0,0,0,6H155.79a3,3,0,1,0,0-6H103V151.76h82.2a3,3,0,0,0,3-3V27.23A3,3,0,0,0,185.2,24.23Zm-3,121.53H17.8V30.23H182.2Z"/><path class="cls-3" d="M158.46,111.19H131.9a3,3,0,0,1,0-6h23.56v-49H109.87a3,3,0,0,1-1.81-.6l-8.24-6.22h-26V63.47a3,3,0,0,1-6,0V46.32a3,3,0,0,1,3-3h30a3,3,0,0,1,1.81.61l8.23,6.21h47.59a3,3,0,0,1,3,3v55.05A3,3,0,0,1,158.46,111.19Z"/><path class="cls-2" d="M131.9,128.34H44.31a3,3,0,0,1-3-3V63.47a3,3,0,0,1,3-3h30a3,3,0,0,1,1.83.62l8.23,6.3H131.9a3,3,0,0,1,3,3v55A3,3,0,0,1,131.9,128.34Zm-84.59-6H128.9V73.39H83.31a3,3,0,0,1-1.82-.62l-8.23-6.3H47.31Z"/></g></svg>