<svg xmlns="http://www.w3.org/2000/svg" viewBox="0 0 200 200"><defs><style>.cls-1{fill:none;}.cls-2{fill:#34bab5;}.cls-3{fill:red;}</style></defs><g id="Calque_1" data-name="Calque 1"><g id="frame"><rect class="cls-1" width="200" height="200"/></g></g><g id="pictos"><path class="cls-2" d="M155.49,164.23a3,3,0,0,0-3,3v18.34H94.26l34.49-61.43a3.43,3.43,0,0,0,.55.06,3,3,0,0,0,1.72-5.47l-5.64-3.91a3.11,3.11,0,0,0-.67-.47l-14.2-9.87s0,0,0,0l9.85-44,2.25,0a3,3,0,0,0,3-3V47.49l6.46-10.65a3,3,0,0,0,.34-2.28A3,3,0,0,0,131,32.71l-15.28-9.13a3.11,3.11,0,0,0-1.14-.4l-9-1.21a3,3,0,0,0-.8,6l8.43,1.13,12.16,7.26-4.45,7.35H57.85l-4.38-7.23,13.7-7.37,7.66-1A3,3,0,1,0,74,22.07l-8.2,1.11a2.86,2.86,0,0,0-1,.34l-17,9.13a3,3,0,0,0-1.47,1.85,3,3,0,0,0,.33,2.34l6.46,10.65V57.93a3,3,0,0,0,3,3h1.27l8.62,42.42L17.37,137a3,3,0,0,0-1.29,2.47v49.11a3,3,0,0,0,3,3H155.49a3,3,0,0,0,3-3V167.23A3,3,0,0,0,155.49,164.23Zm-42.16-24.88H63.2l-3.85-6.67h57.73Zm-3.37,6L106.21,152H70.49l-3.84-6.67ZM102.85,158l-3.76,6.68H77.79L74,158Zm-7.12,12.67L89.16,182.4H88l-6.74-11.71Zm24.71-44H56.35a3,3,0,0,0-.43,0l-3.74-6.5.4-.28a2.91,2.91,0,0,0,.6.06h69.15l1.35.94-.07.09ZM71.63,106.77H103.8a2.94,2.94,0,0,0,.87,1l9,6.27H61.17ZM59.16,49.66H119.6V54.4l-60.44.5ZM114.1,60.93l-8.91,39.84H71.66l-8.1-39.84Zm-92,80.1,25.15-17.38,35.66,61.92H22.08Z"/><path class="cls-3" d="M183.72,119.64l-3.63-9.32a.37.37,0,0,1-.05-.11l-4-9.13a3,3,0,0,0-1.56-1.55l-9.2-4L156,91.86a3,3,0,0,0-2.24,0l-9.27,3.75-9.23,3.91a3,3,0,0,0-1.58,1.58l-3.94,9.2L126,119.62a3,3,0,0,0,0,2.24l3.75,9.27,2.93,6.9v40a3,3,0,0,0,1.56,2.63,3.05,3.05,0,0,0,1.44.37,3,3,0,0,0,1.61-.47l17.63-11.2,17.54,11.19A2.94,2.94,0,0,0,174,181a3.08,3.08,0,0,0,1.44-.37A3,3,0,0,0,177,178V138.09l3-6.94a.36.36,0,0,0,0-.09l3.64-9.23A3.06,3.06,0,0,0,183.72,119.64ZM171,172.56l-14.21-9.07a2.94,2.94,0,0,0-1.94-.44,3,3,0,0,0-1.93.43l-14.31,9.1V143.4l5.85,2.48,9.22,3.72a2.9,2.9,0,0,0,1.12.22,3.09,3.09,0,0,0,1.12-.21l9.38-3.76,5.7-2.44Zm3.49-43.75L171,136.89l-8,3.42-8.2,3.28-8.06-3.26-8.11-3.44-.25-.59a.54.54,0,0,0,0-.11l-3.12-7.36-3.27-8.1,3.25-8.13,3.44-8,8.06-3.42,8.11-3.27,8.13,3.25,8,3.44,3.51,8,3.18,8.17Z"/><path class="cls-3" d="M165.15,112.7,152,125.34l-4.17-4.73a3,3,0,0,0-4.5,4l6.24,7.08a3,3,0,0,0,2.13,1h.12a3,3,0,0,0,2.09-.84L169.31,117a3,3,0,1,0-4.16-4.32Z"/><g id="circle17614"><path class="cls-3" d="M89.33,44.44a18,18,0,1,1,18-18A18,18,0,0,1,89.33,44.44Zm0-30a12,12,0,1,0,12,12A12,12,0,0,0,89.33,14.43Z"/></g></g></svg>