<svg xmlns="http://www.w3.org/2000/svg" viewBox="0 0 200 200"><defs><style>.cls-1{fill:none;}.cls-2{fill:#34bab5;}.cls-3{fill:red;}</style></defs><g id="Calque_1" data-name="Calque 1"><g id="frame"><rect class="cls-1" width="200" height="200"/></g></g><g id="pictos"><path class="cls-2" d="M49.87,100.65,20.93,52.89l16.51.7a3,3,0,0,0,.25-6l-22.1-.94a3,3,0,0,0-2.7,4.56L44,102.56l-11.26,33a3,3,0,0,0,5.68,1.94l11.71-34.29A3,3,0,0,0,49.87,100.65Z"/><path class="cls-2" d="M179.89,64.35a3,3,0,0,0-4.07,1.19l-24.55,44.87a3,3,0,0,0-.17,2.49l16,42.81-23.77,18.62-26.93-9.39a3,3,0,0,0-2.93.55l-20.7,17.64L44.89,159.55a3,3,0,0,0-2.65,5.39l49.64,24.44a3,3,0,0,0,3.27-.4L116,171.17l26.86,9.36a3,3,0,0,0,2.83-.47l26.79-21a3,3,0,0,0,1-3.41L157.2,112.08l23.88-43.66A3,3,0,0,0,179.89,64.35Z"/><path class="cls-2" d="M62.56,38.48l10.77,5.34a3,3,0,0,0,3.31-.44l29.46-26L138,49.16a3.11,3.11,0,0,0,1.29.75l16.4,4.69a2.89,2.89,0,0,0,.82.11,3,3,0,0,0,.82-5.88L141.7,44.36,108.34,11.18a3,3,0,0,0-4.1-.12l-30,26.48-9-4.44a3,3,0,1,0-2.66,5.38Z"/><path class="cls-3" d="M171.52,35.32a18.07,18.07,0,0,0-17.21,23.61L116.93,70.2a18,18,0,0,0-27-2.76L63.25,49.59a18.15,18.15,0,1,0-4.1,4.48L86.23,72.2a18,18,0,0,0,3.63,21.64L47.29,140.56a17.82,17.82,0,1,0,3,5.65l0,0,44.64-49a17.81,17.81,0,0,0,12.38.8l19.79,34.61a18.25,18.25,0,1,0,5.17-3L112.7,95.35a18.07,18.07,0,0,0,7.58-14.69,18.29,18.29,0,0,0-.71-5l37.58-11.33a18.07,18.07,0,1,0,14.37-29ZM33,163.65a12.08,12.08,0,1,1,12.08-12.08A12.09,12.09,0,0,1,33,163.65Zm117.83-17.24a12.08,12.08,0,1,1-18.43-10.25l.16-.07a2.18,2.18,0,0,0,.31-.22,12.06,12.06,0,0,1,18,10.54ZM36,39.82A12.08,12.08,0,1,1,48.06,51.9,12.1,12.1,0,0,1,36,39.82ZM102.2,92.74A12.09,12.09,0,0,1,90.12,80.66a12,12,0,0,1,2.3-7.06,3.16,3.16,0,0,0,.47-.55,1.39,1.39,0,0,0,.11-.21,12.08,12.08,0,1,1,9.2,19.9Zm69.32-27.26a12.07,12.07,0,0,1-10.15-5.55,3,3,0,0,0-.64-1.13,12.07,12.07,0,1,1,10.79,6.68Z"/></g></svg>