<svg xmlns="http://www.w3.org/2000/svg" viewBox="0 0 200 200"><defs><style>.cls-1{fill:none;}.cls-2{fill:#e9222e;}.cls-3{fill:#34bab5;}</style></defs><g id="Calque_1" data-name="Calque 1"><g id="frame"><rect class="cls-1" width="200" height="200"/></g></g><g id="pictos"><path class="cls-2" d="M125.23,124.84h0l-1.48-15.58a3,3,0,0,0-6,.57l1.49,15.59h0l4.4,43.83H32.6L44.2,70.48a2.06,2.06,0,0,0,0-.35V30.73h65.92V47.79a3,3,0,1,0,6,0V27.73a3,3,0,0,0-3-3H41.22a3,3,0,0,0-3,3V70l-12,102a3,3,0,0,0,3,3.35H127a3,3,0,0,0,3-3.3Z"/><path class="cls-3" d="M173.49,98.19a3,3,0,0,0-2.57-1.54l-29.26-.53A3,3,0,0,0,139,97.59l-.79,1.33a17.1,17.1,0,0,0-13.61-20.1h4.45a3,3,0,0,0,2.6-1.5L146.31,52a3,3,0,0,0-2.6-4.5H99.91A3,3,0,0,0,97.31,52l14.54,25.32a3,3,0,0,0,2.6,1.5h3.84a17.07,17.07,0,0,0-13.2,21.72l-1.71-2.93a3,3,0,0,0-2.59-1.49h0l-29.26.09a3,3,0,0,0-2.58,4.51L91,138.56a3,3,0,0,0,2.6,1.49h0a3,3,0,0,0,2.59-1.5l14.54-25.32a3,3,0,0,0,0-3l-1.66-2.84a17.05,17.05,0,0,0,23.31,1.37l-.81,1.36a3,3,0,0,0,0,3l14.28,25.58a3,3,0,0,0,2.58,1.54h0a3,3,0,0,0,2.58-1.46l22.42-37.58A3,3,0,0,0,173.49,98.19Zm-68.4-44.68h33.42L127.35,72.82H116.19Zm-11.5,77.55L76.75,102.2l22.32-.07,5.61,9.62Zm27.87-24.34a11.1,11.1,0,1,1,11.1-11.1A11.11,11.11,0,0,1,121.46,106.72Zm27.07,24.51L137.62,111.7l5.68-9.55,22.34.41Z"/><path class="cls-3" d="M181.64,169.27H18.36a3,3,0,1,0,0,6H181.64a3,3,0,0,0,0-6Z"/></g></svg>