<?xml version="1.0" encoding="UTF-8"?>
<svg width="179px" height="179px" viewBox="0 0 179 179" version="1.1" xmlns="http://www.w3.org/2000/svg" xmlns:xlink="http://www.w3.org/1999/xlink">
    <title>DataMed-40-path0</title>
    <g id="Pages" stroke="none" stroke-width="1" fill="none" fill-rule="evenodd">
        <g id="XL-1440_Detail_V2" transform="translate(-325.000000, -213.000000)">
            <g id="DataMed-40-path0" transform="translate(325.000000, 213.000000)">
                <path d="M105.272727,31 L30.7272727,31 C28.6687568,31 27,32.65095 27,34.6875 L27,56.8125 C27,58.84905 28.6687568,60.5 30.7272727,60.5 L38.1818182,60.5 L38.1818182,145.3125 C38.1818182,147.34905 39.850575,149 41.9090909,149 L94.0909091,149 C96.149425,149 97.8181818,147.34905 97.8181818,145.3125 L97.8181818,60.5 L105.272727,60.5 C107.331243,60.5 109,58.84905 109,56.8125 L109,34.6875 C109,32.65095 107.331243,31 105.272727,31 Z M45.6363636,97.375 L66.1363636,97.375 C68.1948795,97.375 69.8636364,95.72405 69.8636364,93.6875 C69.8636364,91.65095 68.1948795,90 66.1363636,90 L45.6363636,90 L45.6363636,76.65125 L73.5909091,76.65125 L73.5909091,118.4675 L45.6363636,118.4675 L45.6363636,97.375 Z M90.3636364,141.625 L45.6363636,141.625 L45.6363636,125.8425 L77.3181818,125.8425 C79.3766977,125.8425 81.0454545,124.19155 81.0454545,122.155 L81.0454545,72.96375 C81.0454545,70.9272 79.3766977,69.27625 77.3181818,69.27625 L45.6363636,69.27625 L45.6363636,60.5 L90.3636364,60.5 L90.3636364,141.625 Z M101.545455,53.125 L34.4545455,53.125 L34.4545455,38.375 L101.545455,38.375 L101.545455,53.125 Z" id="Shape" fill="#00C8C7" fill-rule="nonzero"></path>
                <path d="M131.5,113 C121.282732,113 113,121.282732 113,131.5 C113,141.717268 121.282732,150 131.5,150 C141.717268,150 150,141.717268 150,131.5 C150,121.282732 141.717268,113 131.5,113 Z M131.5,142.6 C125.369639,142.6 120.4,137.630361 120.4,131.5 C120.4,125.369639 125.369639,120.4 131.5,120.4 C137.630361,120.4 142.6,125.369639 142.6,131.5 C142.6,137.630361 137.630361,142.6 131.5,142.6 Z" id="Shape" fill="#FF424D" fill-rule="nonzero"></path>
                <rect id="Rectangle" x="0" y="0" width="179" height="179"></rect>
            </g>
        </g>
    </g>
</svg>