<svg xmlns="http://www.w3.org/2000/svg" viewBox="0 0 200 200"><defs><style>.cls-1{fill:none;}.cls-2{fill:#34bab5;}.cls-3{fill:red;}</style></defs><g id="Calque_1" data-name="Calque 1"><g id="frame"><rect class="cls-1" width="200" height="200"/></g></g><g id="Calque_6" data-name="Calque 6"><path class="cls-2" d="M100.43,172,53.5,141.84V28.63h93V141.82ZM59.5,138.56l40.9,26.24,40.1-26.22v-104h-81Z"/><path class="cls-3" d="M117.2,102.33A3,3,0,0,0,113,98.08l-6.46,6.46V99l7.42-7.42a3,3,0,0,0-4.25-4.24l-3.17,3.17V85.63a3,3,0,0,0-6,0v33.28c-.46,0-.92-.07-1.39-.07s-.72,0-1.07.06V91.8a3,3,0,0,0-6,0v4.53l-4-4a3,3,0,0,0-4.24,4.24L92,104.82v6.51l-7-7a3,3,0,0,0-4.24,4.24L92,119.82v.78a15.22,15.22,0,1,0,14.46.16V113Zm-18.09,41a9.23,9.23,0,0,1-3.62-17.72,2.86,2.86,0,0,0,1-.36,9.15,9.15,0,0,1,2.58-.38,9.23,9.23,0,0,1,0,18.46Z"/><path class="cls-2" d="M69.5,84.25V65.68L129.5,39V57.58Zm6-14.67V75l48-21.33V48.25Z"/></g></svg>