<svg xmlns="http://www.w3.org/2000/svg" viewBox="0 0 200 200"><defs><style>.cls-1{fill:none;}.cls-2{fill:#34bab5;}.cls-3{fill:red;}</style></defs><g id="Calque_1" data-name="Calque 1"><g id="frame"><rect class="cls-1" width="200" height="200"/></g></g><g id="Calque_6" data-name="Calque 6"><path class="cls-2" d="M100.52,172.57l-56-35.93V42h111v94.62Zm-50-39.21,50,32.07,49-32.05V48h-99Z"/><path class="cls-3" d="M120.5,140h-41V118.5H58v-41H79.5V56h41V77.5H142v41H120.5Zm-35-6h29V112.5H136v-29H114.5V62h-29V83.5H64v29H85.5Z"/><path class="cls-2" d="M100,112.67a15.23,15.23,0,1,1,15.23-15.23A15.24,15.24,0,0,1,100,112.67Zm0-24.46a9.23,9.23,0,1,0,9.23,9.23A9.24,9.24,0,0,0,100,88.21Z"/></g></svg>