<svg xmlns="http://www.w3.org/2000/svg" viewBox="0 0 200 200"><defs><style>.cls-1{fill:none;}.cls-2{fill:red;}.cls-3{fill:#34bab5;}</style></defs><g id="Calque_1" data-name="Calque 1"><g id="frame"><rect class="cls-1" width="200" height="200"/></g></g><g id="Calque_6" data-name="Calque 6"><circle class="cls-1" cx="100" cy="93.86" r="9.23"/><rect class="cls-1" x="91.5" y="127" width="17" height="31"/><path class="cls-1" d="M88.5,121h23a3,3,0,0,1,3,3v34H138V91.65L100,67.53,62,90.68V158H85.5V124A3,3,0,0,1,88.5,121ZM100,78.63A15.23,15.23,0,1,1,84.77,93.86,15.24,15.24,0,0,1,100,78.63Z"/><path class="cls-1" d="M153,57.09a9.23,9.23,0,1,0-9.23-9.23A9.24,9.24,0,0,0,153,57.09Z"/><path class="cls-2" d="M91.5,127h17v31h6V124a3,3,0,0,0-3-3h-23a3,3,0,0,0-3,3v34h6Z"/><path class="cls-3" d="M100,109.09A15.23,15.23,0,1,0,84.77,93.86,15.24,15.24,0,0,0,100,109.09Zm0-24.46a9.23,9.23,0,1,1-9.23,9.23A9.24,9.24,0,0,1,100,84.63Z"/><path class="cls-3" d="M100,60.47,56,87.32V164h88V88.35ZM138,158H62V90.68l38-23.15,38,24.12Z"/><path class="cls-2" d="M153,63.09a15.23,15.23,0,1,0-15.23-15.23A15.24,15.24,0,0,0,153,63.09Zm0-24.46a9.23,9.23,0,1,1-9.23,9.23A9.24,9.24,0,0,1,153,38.63Z"/><path class="cls-2" d="M167.61,87.37,100,44.52,32.44,85.73a3,3,0,1,0,3.12,5.12L100,51.58l64.42,40.86a3.05,3.05,0,0,0,1.61.46,3,3,0,0,0,1.61-5.53Z"/></g></svg>