<svg xmlns="http://www.w3.org/2000/svg" viewBox="0 0 200 200"><defs><style>.cls-1{fill:none;}.cls-2{fill:red;}.cls-3{fill:#34bab5;}</style></defs><g id="Calque_1" data-name="Calque 1"><g id="frame"><rect class="cls-1" width="200" height="200"/></g></g><g id="Calque_6" data-name="Calque 6"><path class="cls-1" d="M124.79,62.07a9.23,9.23,0,1,0-4.57-5.38A9.17,9.17,0,0,0,124.79,62.07Z"/><path class="cls-1" d="M65.79,62.07a9.23,9.23,0,1,0-4.57-5.38A9.17,9.17,0,0,0,65.79,62.07Z"/><path class="cls-1" d="M133.21,139.65a9.22,9.22,0,1,0,4,12.42A9.15,9.15,0,0,0,133.21,139.65Z"/><circle class="cls-1" cx="45" cy="99.86" r="9.23"/><path class="cls-1" d="M74.21,139.65a9.22,9.22,0,1,0,4,12.42A9.15,9.15,0,0,0,74.21,139.65Z"/><path class="cls-1" d="M140.5,63.82a15.12,15.12,0,0,1-6.84,4.54,15.34,15.34,0,0,1-4.68.73,15.21,15.21,0,0,1-14.36-20.21L99.94,40.4,84.52,49.31a15.21,15.21,0,0,1-9.86,19,15.34,15.34,0,0,1-4.68.73,15.14,15.14,0,0,1-6.93-1.68,15.34,15.34,0,0,1-4.25-3.25L47.49,70.69V84.85a15.21,15.21,0,0,1,0,30v16.38l11.18,6.46A15.24,15.24,0,0,1,77,134.31h0a15.23,15.23,0,0,1,7.5,18.29l15.49,8.94L114.69,153c-.06-.17-.13-.33-.19-.5A15.23,15.23,0,0,1,136,134.31h0a15.27,15.27,0,0,1,4.69,3.73l11.75-6.79v-16.4a15.21,15.21,0,0,1,0-30V70.69Z"/><circle class="cls-1" cx="155" cy="99.86" r="9.23"/><path class="cls-2" d="M77,134.31h0a15.24,15.24,0,0,0-18.28,3.4l-11.18-6.46V114.87a15.68,15.68,0,0,1-2.49.22,15.06,15.06,0,0,1-3.51-.43v20.06l14.14,8.16A15.21,15.21,0,0,0,70,163.09a15.34,15.34,0,0,0,4.68-.73,15.12,15.12,0,0,0,6.84-4.54,15.36,15.36,0,0,0,2-3,14.43,14.43,0,0,0,.9-2.21A15.23,15.23,0,0,0,77,134.31Zm1.26,17.76a9.23,9.23,0,1,1-4-12.42A9.15,9.15,0,0,1,78.21,152.07Z"/><path class="cls-3" d="M143.52,143.3a15.16,15.16,0,0,0-7.57-9h0a15.23,15.23,0,0,0-21.45,18.21c.06.17.13.33.19.5l-14.75,8.52L84.45,152.6a14.43,14.43,0,0,1-.9,2.21,15.36,15.36,0,0,1-2,3l18.44,10.64,17.85-10.3a15.54,15.54,0,0,0,4.26,3.25,15.14,15.14,0,0,0,6.93,1.68,15.34,15.34,0,0,0,4.68-.73,15.22,15.22,0,0,0,9.86-19.06Zm-6.31,8.77a9.23,9.23,0,1,1-4-12.42A9.15,9.15,0,0,1,137.21,152.07Z"/><path class="cls-2" d="M99.94,33.48,81.64,44A15.15,15.15,0,0,0,77,40.31h0A15.23,15.23,0,0,0,55.5,58.52c.06.17.13.33.19.5a15.14,15.14,0,0,0,3.11,5.14,15.34,15.34,0,0,0,4.25,3.25A15.14,15.14,0,0,0,70,69.09a15.34,15.34,0,0,0,4.68-.73,15.21,15.21,0,0,0,9.86-19L99.94,40.4l14.68,8.48a16.12,16.12,0,0,1,.83-2,15.2,15.2,0,0,1,2.22-3.2ZM78.21,58.07a9.23,9.23,0,1,1-4-12.42A9.15,9.15,0,0,1,78.21,58.07Z"/><path class="cls-3" d="M143.45,58.6A15.23,15.23,0,0,0,136,40.31h0a15.31,15.31,0,0,0-20.5,6.6,16.12,16.12,0,0,0-.83,2A15.22,15.22,0,0,0,129,69.09a15.34,15.34,0,0,0,4.68-.73,15.12,15.12,0,0,0,6.84-4.54l11.89,6.87V84.87a14.45,14.45,0,0,1,6,.16V67.22Zm-6.24-.53a9.23,9.23,0,1,1-4-12.42A9.15,9.15,0,0,1,137.21,58.07Z"/><path class="cls-3" d="M47.49,84.85V70.69L58.8,64.16A15.14,15.14,0,0,1,55.69,59l-14.2,8.2V85.06a15.2,15.2,0,0,0,0,29.6,15.06,15.06,0,0,0,3.51.43,15.68,15.68,0,0,0,2.49-.22,15.21,15.21,0,0,0,0-30ZM45,109.09a9.23,9.23,0,1,1,9.23-9.23A9.24,9.24,0,0,1,45,109.09Z"/><path class="cls-2" d="M158.39,85a15.21,15.21,0,1,0-6,29.82v16.4L140.64,138a15.31,15.31,0,0,1,2.88,5.26l14.87-8.58v-20a15.21,15.21,0,0,0,0-29.66ZM155,109.09a9.23,9.23,0,1,1,9.23-9.23A9.24,9.24,0,0,1,155,109.09Z"/></g></svg>