<?xml version="1.0" encoding="utf-8"?>
<!-- Generator: Adobe Illustrator 25.0.1, SVG Export Plug-In . SVG Version: 6.00 Build 0)  -->
<svg version="1.1" id="Calque_1" xmlns="http://www.w3.org/2000/svg" xmlns:xlink="http://www.w3.org/1999/xlink" x="0px" y="0px"
	 viewBox="0 0 996 280" style="enable-background:new 0 0 996 280;" xml:space="preserve">
<style type="text/css">
	.st0{fill:#CAEDEB;}
	.st1{fill:none;stroke:#000091;}
	.st2{fill:#34BAB5;}
	.st3{enable-background:new    ;}
	.st4{fill:#000091;}
	.st5{fill:#BFEAE2;}
	.st6{fill:none;stroke:#E5F7F4;stroke-width:0.5;stroke-miterlimit:10;}
	.st7{fill:#E1000F;}
</style>
<g id="Calque_2_1_">
	<polygon class="st0" points="996,280 0,280 0,0 996,0 	"/>
	<path class="st1" d="M212.6,200.9h62 M419.5,200.9h62 M670.5,200.9h62"/>
	<path class="st2" d="M55.4,180.2c-10.4,0-18.8,8.4-18.8,18.8l0,0c0,10.4,8.4,18.8,18.8,18.8h129.4c10.4,0,18.8-8.4,18.8-18.8l0,0
		c0-10.4-8.4-18.8-18.8-18.8H55.4z"/>
	<g class="st3">
		<path class="st4" d="M80,192.7h4.8c3.2,0,5.1,1.6,5.1,4.2c0,2.6-2,4.2-5.1,4.2h-1.4v5.1H80V192.7z M83.5,195.6v2.7h1.6
			c0.9,0,1.4-0.6,1.4-1.4c0-0.8-0.5-1.3-1.4-1.3H83.5z"/>
		<path class="st4" d="M106.6,199.5c0,3.9-2.9,7.1-7.2,7.1c-4.3,0-7.2-3.3-7.2-7.1c0-3.9,2.9-7.1,7.2-7.1
			C103.7,192.3,106.6,195.6,106.6,199.5z M103.1,199.5c0-2.3-1.5-3.9-3.7-3.9s-3.7,1.7-3.7,3.9c0,2.3,1.5,3.9,3.7,3.9
			S103.1,201.7,103.1,199.5z"/>
	</g>
	<g class="st3">
		<path class="st4" d="M110.4,202.1c0.7,0.9,1.8,1.6,2.8,1.6c0.8,0,1.3-0.3,1.3-1.1c0-2.1-5.9-1.4-5.9-6c0-2.3,1.9-4.1,4.6-4.1
			c2.1,0,3.8,0.9,5.1,2.3l-2.5,2.3c-0.8-0.9-1.6-1.6-2.5-1.6c-0.7,0-1.2,0.4-1.2,1c0,2,5.9,1.3,5.9,6.1c0,2.7-2.2,4.2-4.7,4.2
			s-4.1-0.9-5.3-2.3L110.4,202.1z"/>
		<path class="st4" d="M119.7,192.7H131v3.1h-3.9v10.4h-3.4v-10.4h-3.9L119.7,192.7L119.7,192.7z"/>
		<path class="st4" d="M141.5,192.7h3.4v8.1c0,3.6-2.1,5.8-5.7,5.8c-3.6,0-5.6-2.2-5.6-5.8v-8.1h3.4v8.4c0,1.4,0.8,2.3,2.2,2.3
			s2.2-0.9,2.2-2.3v-8.4H141.5z"/>
		<path class="st4" d="M148.7,192.7h3.4v10.4h4.9v3.1h-8.3L148.7,192.7L148.7,192.7z"/>
		<path class="st4" d="M159.9,192.7h8.3v2.8h-4.9v2.4h4.1v2.8h-4.1v2.6h4.9v2.8h-8.3V192.7z"/>
		<path class="st4" d="M171.8,192.7h4.5c3.2,0,5.1,1.6,5.1,4.2c0,1.6-0.8,2.9-2.1,3.6l4.1,5.7h-4l-3.4-5.1h-0.8v5.1h-3.4
			L171.8,192.7L171.8,192.7z M175.2,195.6v2.7h1.3c0.9,0,1.4-0.6,1.4-1.4c0-0.8-0.5-1.3-1.4-1.3H175.2z"/>
	</g>
	<path class="st4" d="M56.5,214c8.3,0,15-6.7,15-15s-6.7-15-15-15s-15,6.7-15,15l0,0C41.5,207.3,48.3,214,56.5,214z"/>
	<g class="st3">
		<path class="st5" d="M55.4,196.1l-2.2,1.3l-1.6-2.3l4-2.4h3.1v13.5h-3.3V196.1z"/>
	</g>
	<path class="st6" d="M132.2,112.1v11.4c-0.3,0-6.3,0.9-6.3,6.2H125c0-4.8,4.4-6.4,6.3-6.9V89.9c-3.1-3.5-6.9-2.8-8.6-0.5v27.8h-0.9
		V82.8c-4.2-4.7-9.5-1.8-9.5,2.2v32.2h-0.9V89.4c-1.7-2.3-5.4-3-8.6,0.5V99l0,0v18.2H102V97.8c-1.8-1.9-5.2-2.2-8.1,1v31.9
		c0,0.7,0.2,1.5,0.6,2.1l4.4,7.9v6.5H131v-7.6l8.2-7.1l0,0c1-0.9,1.6-2.1,1.6-3.5v-16.5C137.7,109,133.9,109.8,132.2,112.1z"/>
	<path class="st2" d="M303.4,180.2c-10.4,0-18.8,8.4-18.8,18.8l0,0c0,10.4,8.4,18.8,18.8,18.8h91.4c10.4,0,18.8-8.4,18.8-18.8l0,0
		c0-10.4-8.4-18.8-18.8-18.8H303.4z"/>
	<g class="st3">
		<path class="st4" d="M329.3,192.7l3.5,9.6l3.5-9.6h3.7l-4.9,13.5h-4.5l-4.9-13.5H329.3z"/>
		<path class="st4" d="M355.2,199.5c0,3.9-2.9,7.1-7.2,7.1c-4.3,0-7.2-3.3-7.2-7.1c0-3.9,2.9-7.1,7.2-7.1
			C352.2,192.3,355.2,195.6,355.2,199.5z M351.6,199.5c0-2.3-1.5-3.9-3.7-3.9s-3.7,1.7-3.7,3.9c0,2.3,1.5,3.9,3.7,3.9
			S351.6,201.7,351.6,199.5z"/>
	</g>
	<g class="st3">
		<path class="st4" d="M356.6,192.7h11.3v3.1H364v10.4h-3.4v-10.4h-3.9v-3.1H356.6z"/>
		<path class="st4" d="M370.9,192.7h8.3v2.8h-4.9v2.4h4.1v2.8h-4.1v2.6h4.9v2.8h-8.3V192.7z"/>
		<path class="st4" d="M383.1,192.7h4.5c3.2,0,5.1,1.6,5.1,4.2c0,1.6-0.8,2.9-2.1,3.6l4.1,5.7h-4l-3.4-5.1h-0.8v5.1h-3.4
			L383.1,192.7L383.1,192.7z M386.5,195.6v2.7h1.3c0.9,0,1.4-0.6,1.4-1.4c0-0.8-0.5-1.3-1.4-1.3H386.5z"/>
	</g>
	<path class="st4" d="M304.5,214c8.3,0,15-6.7,15-15s-6.7-15-15-15s-15,6.7-15,15l0,0C289.5,207.3,296.3,214,304.5,214z"/>
	<g class="st3">
		<path class="st5" d="M299.2,203.3l4.7-4.5c0.7-0.6,1.3-1.3,1.3-2.2s-0.6-1.4-1.4-1.4c-1.2,0-1.9,0.8-2.5,2l-2.6-1.6
			c1.2-1.9,3-3.2,5.5-3.2s4.4,1.5,4.4,4c0,1.9-1.2,3.3-2.3,4.3l-2.9,2.7h5.6v2.9h-9.6v-3H299.2z"/>
	</g>
	<path class="st2" d="M506.4,180.2c-10.4,0-18.8,8.4-18.8,18.8l0,0c0,10.4,8.4,18.8,18.8,18.8h139.4c10.4,0,18.8-8.4,18.8-18.8l0,0
		c0-10.4-8.4-18.8-18.8-18.8H506.4z"/>
	<g class="st3">
		<path class="st4" d="M531.2,192.7h8.3v2.8h-4.9v2.4h4.1v2.8h-4.1v2.6h4.9v2.8h-8.3V192.7z M533.8,191.6l2.2-2.6h3.5l-2.5,2.6
			H533.8z"/>
	</g>
	<g class="st3">
		<path class="st4" d="M551.7,201.8l2.7,2.1c-1.3,1.7-3.3,2.7-5.7,2.7c-4.3,0-7.2-3.3-7.2-7.1c0-3.9,2.9-7.1,7.2-7.1
			c2.5,0,4.5,1.1,5.7,2.7l-2.7,2.1c-0.6-0.9-1.7-1.6-3-1.6c-2.2,0-3.7,1.7-3.7,3.9c0,2.3,1.5,3.9,3.7,3.9
			C550,203.4,551,202.8,551.7,201.8z"/>
		<path class="st4" d="M557,192.7h3.4v5.1h5.8v-5.1h3.4v13.5h-3.4v-5.3h-5.8v5.3H557V192.7z"/>
		<path class="st4" d="M576.9,192.7h4.5l4.9,13.5h-3.7l-1.1-3.2h-4.8l-1.1,3.2H572L576.9,192.7z M580.6,200.2l-1.4-4l-1.4,4H580.6z"
			/>
		<path class="st4" d="M588.7,192.7h4.4l4.8,8.4v-8.4h3.4v13.5H597l-4.8-8.4v8.4h-3.4L588.7,192.7L588.7,192.7z"/>
		<path class="st4" d="M614.2,202.6v-1.8h-3.1v-2.9h6.5v6c-1.3,1.7-3.4,2.7-5.9,2.7c-4.4,0-7.4-3.3-7.4-7.1c0-3.9,2.9-7.1,7.2-7.1
			c2.5,0,4.5,1.1,5.7,2.7l-2.7,2.1c-0.6-0.9-1.7-1.6-3-1.6c-2.2,0-3.7,1.7-3.7,3.9c0,2.3,1.6,3.9,3.9,3.9
			C612.7,203.4,613.6,203.1,614.2,202.6z"/>
		<path class="st4" d="M621,192.7h8.3v2.8h-4.9v2.4h4.1v2.8h-4.1v2.6h4.9v2.8H621V192.7z"/>
		<path class="st4" d="M632.9,192.7h4.5c3.2,0,5.1,1.6,5.1,4.2c0,1.6-0.8,2.9-2.1,3.6l4.1,5.7h-4l-3.4-5.1h-0.8v5.1h-3.4
			L632.9,192.7L632.9,192.7z M636.4,195.6v2.7h1.3c0.9,0,1.4-0.6,1.4-1.4c0-0.8-0.5-1.3-1.4-1.3H636.4z"/>
	</g>
	<path class="st4" d="M507.5,214c8.3,0,15-6.7,15-15s-6.7-15-15-15s-15,6.7-15,15l0,0C492.5,207.3,499.3,214,507.5,214z"/>
	<g class="st3">
		<path class="st5" d="M506.9,206.6c-2.7,0-4.4-1.2-5.5-3.3l2.9-1.8c0.7,1.5,1.4,2.1,2.7,2.1c1,0,1.8-0.6,1.8-1.6s-0.9-1.6-2-1.6
			h-2.2v-2.9h2.1c0.8,0,1.5-0.4,1.5-1.3c0-0.8-0.6-1.2-1.4-1.2c-1,0-1.6,0.5-2,1.3l-2.6-1.6c1-1.6,2.6-2.6,4.9-2.6
			c2.6,0,4.5,1.4,4.5,3.7c0,1.2-0.5,2.3-1.4,3c1.3,0.7,2,1.9,2,3.3C512,204.9,509.9,206.6,506.9,206.6z"/>
	</g>
	<path class="st2" d="M757.4,180.2c-10.4,0-18.9,8.4-18.9,18.9l0,0c0,10.4,8.4,18.9,18.9,18.9h184.3c10.4,0,18.9-8.4,18.9-18.9l0,0
		l0,0c0-10.4-8.4-18.9-18.8-18.9l0,0H757.4z"/>
	<path class="st4" d="M782.8,206.3h8.3v-2.8h-4.9v-2.6h4.1V198h-4.1v-2.4h4.9v-2.8h-8.3V206.3z M794.8,206.3h3.4v-8.4l4.8,8.4h4.4
		v-13.5H804v8.4l-4.8-8.4h-4.4V206.3z M810.3,195.9h3.9v10.4h3.4v-10.4h3.9v-3.1h-11.3L810.3,195.9z M824.5,206.3h3.5v-5.1h0.8
		l3.4,5.1h4l-4.1-5.7c1.4-0.7,2.2-2.1,2.1-3.6c0-2.6-2-4.2-5.1-4.2h-4.5L824.5,206.3z M829.3,195.6c0.7-0.1,1.3,0.5,1.4,1.2
		c0,0.1,0,0.1,0,0.2c0.1,0.7-0.5,1.3-1.2,1.4c-0.1,0-0.1,0-0.2,0H828v-2.7L829.3,195.6L829.3,195.6z M838.3,206.3h8.3v-2.8h-4.9
		v-2.6h4.1V198h-4.1v-2.4h4.9v-2.8h-8.3V206.3z M850.3,206.3h3.4v-5.1h1.4c3.2,0,5.1-1.6,5.1-4.2s-2-4.2-5.1-4.2h-4.8L850.3,206.3
		L850.3,206.3z M855.3,195.6c0.7-0.1,1.3,0.5,1.4,1.2c0,0.1,0,0.1,0,0.2c0.1,0.7-0.5,1.3-1.2,1.4c-0.1,0-0.1,0-0.2,0h-1.6v-2.7
		L855.3,195.6L855.3,195.6z M863,206.3h3.4v-5.1h0.8l3.4,5.1h4l-4.1-5.7c1.3-0.7,2.2-2.1,2.1-3.6c0-2.6-2-4.2-5.1-4.2H863V206.3z
		 M867.8,195.6c0.7-0.1,1.3,0.5,1.4,1.2c0,0.1,0,0.1,0,0.2c0.1,0.7-0.5,1.3-1.2,1.4c-0.1,0-0.1,0-0.2,0h-1.3v-2.7L867.8,195.6
		L867.8,195.6z M876.8,206.3h8.3v-2.8h-4.9v-2.6h4.1V198h-4.1v-2.4h4.9v-2.8h-8.3V206.3z M888.8,206.3h3.4v-8.4l4.8,8.4h4.4v-13.5
		H898v8.4l-4.8-8.4h-4.4V206.3z M905.7,206.3h8.3v-2.8h-4.9v-2.6h4.1V198h-4.1v-2.4h4.9v-2.8h-8.3V206.3z M917.1,206.3h11.3v-3.1h-7
		l6.8-7.3v-3.1h-10.9v3.1h6.6l-6.8,7.3L917.1,206.3z M935.5,201.6h2.2l0.7-8.9h-3.5L935.5,201.6z M936.6,206.5c1.1,0,2-0.9,2-2
		s-0.9-2-2-2s-2,0.9-2,2S935.5,206.5,936.6,206.5z"/>
	<path class="st4" d="M758.5,214c8.3,0,15-6.7,15-15s-6.7-15-15-15s-15,6.7-15,15l0,0C743.5,207.3,750.3,214,758.5,214z"/>
	<g class="st3">
		<path class="st5" d="M752.9,200l5.4-7.2h3.7v7.2h1.2v2.9H762v3.4h-3.3v-3.4h-5.9V200H752.9z M758.8,200v-3.4l-2.6,3.4H758.8z"/>
	</g>
	<path class="st7" d="M142,125.7v-17.6c-1.2-1.5-3-2.3-4.9-2.3c-1.4,0.1-2.6,0.7-3.5,1.8v12.5h-0.4c-0.3,0-6.5,0.9-6.5,6.3v0.4h-1.9
		v-0.4c0-5.2,4.5-7.2,6.9-7.8v-35c-1.2-1.5-3-2.3-4.9-2.3c-1.4,0.1-2.6,0.7-3.5,1.8v30.3h-1.9V76c-1.9-2.1-4.3-2.8-6.4-2
		c-1.8,0.7-3,2.4-3,4.3v35.2h-1.9V83.1c-0.8-1.1-2.1-1.7-3.5-1.8c-1.9,0-3.7,0.9-4.9,2.3v29.8H100V92.2c-0.9-0.8-2.1-1.3-3.3-1.3
		c-1.8,0.1-3.4,1-4.6,2.3v34.3c0,0.7,0.2,1.4,0.5,2.1l4.8,8.6v6.7h34v-8l9-7.8C141.4,128.3,142,127,142,125.7z"/>
	<rect x="95.1" y="142.9" class="st4" width="38.5" height="25.4"/>
	<polygon class="st4" points="367.5,113.9 351.2,97.6 358.7,90.1 367.6,99 388.7,78.5 396.1,86.1 	"/>
	<polygon class="st7" points="349.2,155.3 338.3,144.4 327.5,155.3 320,147.8 330.8,136.9 320,126.1 327.5,118.6 338.3,129.4 
		349.2,118.6 356.7,126.1 345.8,136.9 356.7,147.8 	"/>
	<polygon class="st4" points="530.5,85.4 530.5,122.7 543.3,122.7 553.2,132.8 553.2,122.7 584.5,122.7 584.5,85.4 	"/>
	<polygon class="st7" points="607.8,110.7 607.8,100.6 598.8,110.7 561.1,110.7 561.1,148 615,148 615,110.7 	"/>
	<polygon class="st7" points="815.2,148.6 886,148.6 850.6,89.9 	"/>
	<rect x="848.5" y="69.1" class="st4" width="4.1" height="15"/>
	
		<rect x="830.5" y="81" transform="matrix(0.5503 -0.8349 0.8349 0.5503 300.7602 734.7761)" class="st4" width="4.1" height="14.3"/>
	
		<rect x="861.5" y="86" transform="matrix(0.8349 -0.5503 0.5503 0.8349 94.8999 492.5559)" class="st4" width="14.3" height="4.1"/>
	<rect x="815.2" y="103" class="st4" width="14" height="4.1"/>
	<rect x="870.4" y="103" class="st4" width="14" height="4.1"/>
</g>
</svg>
