<?xml version="1.0" encoding="utf-8"?>
<!-- Generator: Adobe Illustrator 25.0.1, SVG Export Plug-In . SVG Version: 6.00 Build 0)  -->
<svg version="1.1" id="Calque_1" xmlns="http://www.w3.org/2000/svg" xmlns:xlink="http://www.w3.org/1999/xlink" x="0px" y="0px"
	 viewBox="0 0 996 280" style="enable-background:new 0 0 996 280;" xml:space="preserve">
<style type="text/css">
	.st0{fill:#CAEDEB;}
	.st1{fill:#34BAB5;}
	.st2{enable-background:new    ;}
	.st3{fill:#000091;}
	.st4{fill:#BFEAE2;}
	.st5{fill:#E1000F;}
</style>
<g id="Calque_2_1_">
	<polygon class="st0" points="996,279.7 0,279.7 0,0 996,0 	"/>
	<path class="st1" d="M156.8,157.9c-10.4,0-18.8,8.4-18.8,18.8l0,0c0,10.4,8.4,18.8,18.8,18.8h129.4c10.4,0,18.8-8.4,18.8-18.8l0,0
		c0-10.4-8.4-18.8-18.8-18.8H156.8z"/>
	<g class="st2">
		<path class="st3" d="M181.5,170.4h4.8c3.2,0,5.1,1.6,5.1,4.2c0,2.6-1.9,4.2-5.1,4.2h-1.4v5.1h-3.4L181.5,170.4L181.5,170.4z
			 M184.9,173.2v2.7h1.6c0.9,0,1.4-0.6,1.4-1.4c0-0.8-0.5-1.3-1.4-1.3H184.9z"/>
		<path class="st3" d="M208.2,177.1c0,3.9-2.9,7.1-7.2,7.1s-7.2-3.3-7.2-7.1s2.9-7.1,7.2-7.1S208.2,173.3,208.2,177.1z M204.7,177.1
			c0-2.3-1.5-3.9-3.7-3.9s-3.7,1.7-3.7,3.9c0,2.3,1.5,3.9,3.7,3.9S204.7,179.4,204.7,177.1z"/>
	</g>
	<g class="st2">
		<path class="st3" d="M211.9,179.7c0.7,0.9,1.8,1.6,2.8,1.6c0.8,0,1.3-0.3,1.3-1.1c0-2.1-5.9-1.4-5.9-6c0-2.3,1.9-4.1,4.6-4.1
			c2.1,0,3.8,0.9,5.1,2.3l-2.5,2.3c-0.8-0.9-1.6-1.6-2.5-1.6c-0.7,0-1.2,0.4-1.2,1c0,2,5.9,1.3,5.9,6.1c0,2.7-2.2,4.2-4.7,4.2
			s-4.1-0.9-5.3-2.3L211.9,179.7z"/>
		<path class="st3" d="M221.2,170.4h11.3v3.1h-3.9v10.4h-3.4v-10.4h-3.9v-3.1H221.2z"/>
		<path class="st3" d="M242.9,170.4h3.4v8.1c0,3.6-2.1,5.8-5.7,5.8c-3.5,0-5.6-2.2-5.6-5.8v-8.1h3.4v8.4c0,1.4,0.8,2.3,2.2,2.3
			s2.2-0.9,2.2-2.3v-8.4H242.9z"/>
		<path class="st3" d="M250.1,170.4h3.4v10.4h4.9v3.1h-8.3L250.1,170.4L250.1,170.4z"/>
		<path class="st3" d="M261.2,170.4h8.3v2.8h-4.9v2.4h4.1v2.8h-4.1v2.6h4.9v2.8h-8.3V170.4z"/>
		<path class="st3" d="M273.2,170.4h4.5c3.2,0,5.1,1.6,5.1,4.2c0,1.6-0.8,2.9-2.1,3.6l4.1,5.7h-4l-3.4-5.1h-0.8v5.1h-3.4
			L273.2,170.4L273.2,170.4z M276.6,173.2v2.7h1.3c0.9,0,1.4-0.6,1.4-1.4c0-0.8-0.5-1.3-1.4-1.3H276.6z"/>
	</g>
	<path class="st3" d="M158,191.6c8.3,0,15-6.7,15-15s-6.7-15-15-15s-15,6.7-15,15S149.7,191.6,158,191.6L158,191.6z"/>
	<g class="st2">
		<path class="st4" d="M156.8,173.7l-2.2,1.3l-1.6-2.3l4-2.4h3.1v13.5h-3.3V173.7z"/>
	</g>
	<path class="st1" d="M447.1,157.9c-10.4,0-18.8,8.4-18.8,18.8l0,0l0,0c0,10.4,8.4,18.8,18.8,18.8l0,0h101.4
		c10.4,0,18.8-8.4,18.8-18.8l0,0l0,0c0-10.4-8.4-18.8-18.8-18.8l0,0H447.1z"/>
	<g class="st2">
		<path class="st3" d="M471.6,170.4h4.5c3.2,0,5.1,1.6,5.1,4.2c0,1.6-0.8,2.9-2.1,3.6l4.1,5.7h-4l-3.4-5.1H475v5.1h-3.4V170.4z
			 M475,173.2v2.7h1.3c0.9,0,1.4-0.6,1.4-1.4c0-0.8-0.5-1.3-1.4-1.3H475z"/>
		<path class="st3" d="M485.5,170.4h8.3v2.8h-4.9v2.4h4.1v2.8h-4.1v2.6h4.9v2.8h-8.3V170.4z M488,169.2l2.2-2.6h3.5l-2.5,2.6H488z"
			/>
		<path class="st3" d="M505.1,170.4h3.4v8.1c0,3.6-2.1,5.8-5.7,5.8c-3.5,0-5.6-2.2-5.6-5.8v-8.1h3.4v8.4c0,1.4,0.8,2.3,2.2,2.3
			c1.4,0,2.2-0.9,2.2-2.3v-8.4H505.1z"/>
		<path class="st3" d="M512.5,170.4h4.4l4.8,8.4v-8.4h3.4v13.5h-4.4l-4.8-8.4v8.4h-3.4V170.4z"/>
		<path class="st3" d="M529.5,170.4h3.4v13.5h-3.4V170.4z"/>
		<path class="st3" d="M537.2,170.4h4.5c3.2,0,5.1,1.6,5.1,4.2c0,1.6-0.8,2.9-2.1,3.6l4.1,5.7h-4l-3.4-5.1h-0.8v5.1h-3.4
			L537.2,170.4L537.2,170.4z M540.6,173.2v2.7h1.3c0.9,0,1.4-0.6,1.4-1.4c0-0.8-0.5-1.3-1.4-1.3H540.6z"/>
	</g>
	<path class="st3" d="M448.2,191.6c8.3,0,15-6.7,15-15s-6.7-15-15-15s-15,6.7-15,15S440,191.6,448.2,191.6L448.2,191.6z"/>
	<g class="st2">
		<path class="st4" d="M442.9,180.9l4.6-4.5c0.7-0.6,1.3-1.3,1.3-2.2s-0.6-1.4-1.4-1.4c-1.2,0-1.9,0.8-2.5,1.9l-2.6-1.6
			c1.2-1.9,3-3.2,5.5-3.2c2.4,0,4.4,1.5,4.4,4c0,1.9-1.2,3.3-2.3,4.3l-2.9,2.7h5.6v2.9H443v-2.9H442.9z"/>
	</g>
	<polygon class="st5" points="457.3,135.8 492.5,114.5 457.3,93.3 	"/>
	<polygon class="st1" points="476.5,73.3 497.8,108.5 519,73.3 	"/>
	<polygon class="st3" points="538.2,93.3 503,114.5 538.2,135.8 	"/>
	<path class="st1" d="M681.8,157.9c-10.4,0-18.8,8.4-18.8,18.8l0,0c0,10.4,8.4,18.8,18.8,18.8h184.4c10.4,0,18.8-8.4,18.8-18.8l0,0
		c0-10.4-8.4-18.8-18.8-18.8H681.8z"/>
	<g class="st2">
		<path class="st3" d="M707.8,170.4h8.3v2.8h-4.9v2.4h4.1v2.8h-4.1v2.6h4.9v2.8h-8.3V170.4z"/>
		<path class="st3" d="M718.5,183.9l4.6-6.9l-4.4-6.6h4.1l2.7,4l2.7-4h4.1l-4.4,6.6l4.6,6.9h-4.1l-3-4.4l-3,4.4H718.5z"/>
		<path class="st3" d="M735.3,170.4h4.8c3.2,0,5.1,1.6,5.1,4.2c0,2.6-1.9,4.2-5.1,4.2h-1.4v5.1h-3.4L735.3,170.4L735.3,170.4z
			 M738.7,173.2v2.7h1.6c0.9,0,1.4-0.6,1.4-1.4c0-0.8-0.5-1.3-1.4-1.3H738.7z"/>
		<path class="st3" d="M748,170.4h8.3v2.8h-4.9v2.4h4.1v2.8h-4.1v2.6h4.9v2.8H748V170.4z M750.5,169.2l2.2-2.6h3.5l-2.5,2.6H750.5z"
			/>
		<path class="st3" d="M760.1,170.4h4.5c3.2,0,5.1,1.6,5.1,4.2c0,1.6-0.8,2.9-2.1,3.6l4.1,5.7h-4l-3.4-5.1h-0.8v5.1h-3.4
			L760.1,170.4L760.1,170.4z M763.5,173.2v2.7h1.3c0.9,0,1.4-0.6,1.4-1.4c0-0.8-0.5-1.3-1.4-1.3H763.5z"/>
		<path class="st3" d="M774,170.4h3.4v13.5H774V170.4z"/>
		<path class="st3" d="M781.7,170.4h4.2l2.7,4.8l2.7-4.8h4.2v13.5h-3.4v-8.7l-2.3,4.1h-2.3l-2.3-4.1v8.7h-3.4v-13.5H781.7z"/>
		<path class="st3" d="M799.9,170.4h8.3v2.8h-4.9v2.4h4.1v2.8h-4.1v2.6h4.9v2.8h-8.3V170.4z"/>
		<path class="st3" d="M812,170.4h4.4l4.8,8.4v-8.4h3.4v13.5h-4.4l-4.8-8.4v8.4H812V170.4z"/>
		<path class="st3" d="M827.6,170.4h11.3v3.1H835v10.4h-3.4v-10.4h-3.9L827.6,170.4L827.6,170.4z"/>
		<path class="st3" d="M841.9,170.4h8.3v2.8h-4.9v2.4h4.1v2.8h-4.1v2.6h4.9v2.8h-8.3V170.4z"/>
		<path class="st3" d="M854,170.4h4.5c3.2,0,5.1,1.6,5.1,4.2c0,1.6-0.8,2.9-2.1,3.6l4.1,5.7h-4l-3.4-5.1h-0.8v5.1H854V170.4z
			 M857.4,173.2v2.7h1.3c0.9,0,1.4-0.6,1.4-1.4c0-0.8-0.5-1.3-1.4-1.3H857.4z"/>
	</g>
	<path class="st3" d="M683,191.6c8.3,0,15-6.7,15-15s-6.7-15-15-15s-15,6.7-15,15S674.7,191.6,683,191.6L683,191.6z"/>
	<g class="st2">
		<path class="st4" d="M682.4,184.2c-2.7,0-4.4-1.2-5.5-3.3l2.9-1.8c0.7,1.5,1.4,2.1,2.7,2.1c1,0,1.8-0.6,1.8-1.6s-0.8-1.6-2-1.6
			H680v-2.9h2.1c0.8,0,1.5-0.4,1.5-1.3c0-0.8-0.6-1.2-1.4-1.2c-1,0-1.6,0.5-2,1.3l-2.6-1.6c1-1.6,2.6-2.6,4.9-2.6
			c2.6,0,4.5,1.4,4.5,3.7c0,1.2-0.5,2.3-1.4,3c1.3,0.7,1.9,1.9,1.9,3.3C687.5,182.5,685.3,184.2,682.4,184.2z"/>
	</g>
	<path class="st3" d="M955.6,247.8l-0.7-0.7l3.1-2.9H579.1v-1H958l-3.1-2.9l0.7-0.7l4.4,4.1L955.6,247.8z M40.4,247.8l-4.4-4.1
		l4.4-4.1l0.7,0.7l-3.1,2.9h381v1H38l3.1,2.9L40.4,247.8z"/>
	<path class="st5" d="M247.4,103.5V85.9c-1.2-1.5-3-2.3-4.9-2.3c-1.3,0.1-2.6,0.7-3.4,1.8v12.5h-0.4c-0.3,0-6.5,0.9-6.5,6.3v0.4
		h-1.9v-0.4c0-5.2,4.5-7.2,6.8-7.8v-35c-1.2-1.5-3-2.3-4.9-2.3c-1.4,0.1-2.6,0.7-3.5,1.8v30.4h-1.9V53.8c-1.9-2.1-4.3-2.8-6.4-2
		c-1.8,0.7-3,2.4-3,4.3v35.2h-1.9V60.9c-0.9-1.1-2.1-1.7-3.5-1.8c-1.9,0-3.7,0.9-4.9,2.3v29.8h-1.9V70c-0.9-0.8-2.1-1.3-3.3-1.3
		c-1.8,0.1-3.4,1-4.6,2.3v34.3c0,0.7,0.2,1.5,0.5,2.1l4.8,8.6v6.7h34v-8l9-7.8C246.8,106.1,247.4,104.9,247.4,103.5z"/>
	<rect x="200.4" y="120.8" class="st3" width="38.6" height="25.4"/>
	<polygon class="st5" points="805,146.5 782,108.3 782,86.1 766.9,86.1 766.9,108.3 743.9,146.5 	"/>
	<path class="st3" d="M764.4,65.8c3,0,5.4-2.4,5.4-5.4s-2.4-5.4-5.4-5.4s-5.4,2.4-5.4,5.4S761.4,65.8,764.4,65.8L764.4,65.8"/>
	<path class="st3" d="M777.5,47.2c3,0,5.4-2.4,5.4-5.4s-2.4-5.4-5.4-5.4s-5.4,2.4-5.4,5.4C772,44.8,774.5,47.2,777.5,47.2
		L777.5,47.2"/>
	<path class="st3" d="M770.7,79.7c2.1,0,3.8-1.7,3.8-3.8c0-2.1-1.7-3.8-3.8-3.8s-3.8,1.7-3.8,3.8l0,0
		C766.9,78.1,768.6,79.8,770.7,79.7L770.7,79.7"/>
	<path class="st3" d="M782,69.5c2.1,0,3.8-1.7,3.8-3.8c0-2.1-1.7-3.8-3.8-3.8s-3.8,1.7-3.8,3.8C778.2,67.9,779.9,69.5,782,69.5
		L782,69.5"/>
	<g class="st2">
		<path class="st3" d="M435.3,237h4.8c3.2,0,5.1,1.6,5.1,4.2c0,2.6-1.9,4.2-5.1,4.2h-1.4v5.1h-3.4V237z M438.8,239.8v2.7h1.6
			c0.9,0,1.4-0.6,1.4-1.4c0-0.8-0.5-1.3-1.4-1.3H438.8z"/>
		<path class="st3" d="M448,237h8.3v2.8h-4.9v2.4h4.1v2.8h-4.1v2.6h4.9v2.8H448V237z M450.6,235.8l2.2-2.6h3.5l-2.5,2.6H450.6z"/>
		<path class="st3" d="M460.1,237h4.5c3.2,0,5.1,1.6,5.1,4.2c0,1.6-0.8,2.9-2.1,3.6l4.1,5.7h-4l-3.4-5.1h-0.8v5.1h-3.4L460.1,237
			L460.1,237z M463.6,239.8v2.7h1.3c0.9,0,1.4-0.6,1.4-1.4c0-0.8-0.5-1.3-1.4-1.3H463.6z"/>
		<path class="st3" d="M474,237h8.3v2.8h-4.9v2.4h4.1v2.8h-4.1v2.6h4.9v2.8H474V237z"/>
		<path class="st3" d="M486.1,237h4.4l4.8,8.4V237h3.4v13.5h-4.4l-4.8-8.4v8.4h-3.4V237z"/>
		<path class="st3" d="M503.1,237h4.4l4.8,8.4V237h3.4v13.5h-4.4l-4.8-8.4v8.4h-3.4L503.1,237L503.1,237z"/>
		<path class="st3" d="M520,237h3.4v13.5H520V237z"/>
		<path class="st3" d="M528.9,246.3c0.7,0.9,1.8,1.6,2.8,1.6c0.8,0,1.3-0.3,1.3-1.1c0-2.1-5.9-1.4-5.9-6c0-2.3,1.9-4.1,4.6-4.1
			c2.1,0,3.8,0.9,5.1,2.3l-2.5,2.3c-0.8-0.9-1.6-1.6-2.5-1.6c-0.7,0-1.2,0.4-1.2,1c0,2,5.9,1.3,5.9,6.1c0,2.7-2.2,4.2-4.7,4.2
			s-4.1-0.9-5.3-2.3L528.9,246.3z"/>
		<path class="st3" d="M539.7,237h8.3v2.8h-4.9v2.4h4.1v2.8h-4.1v2.6h4.9v2.8h-8.3V237z"/>
		<path class="st3" d="M551.8,237h4.5c3.2,0,5.1,1.6,5.1,4.2c0,1.6-0.8,2.9-2.1,3.6l4.1,5.7h-4l-3.4-5.1h-0.8v5.1h-3.4L551.8,237
			L551.8,237z M555.2,239.8v2.7h1.3c0.9,0,1.4-0.6,1.4-1.4c0-0.8-0.5-1.3-1.4-1.3H555.2z"/>
	</g>
</g>
</svg>
