<svg xmlns="http://www.w3.org/2000/svg" viewBox="0 0 200 200"><defs><style>.cls-1{fill:none;}.cls-2{fill:#34bab5;}.cls-3{fill:red;}</style></defs><g id="Calque_1" data-name="Calque 1"><g id="frame"><rect class="cls-1" width="200" height="200"/></g></g><g id="Calque_6" data-name="Calque 6"><polygon class="cls-1" points="80.68 109.28 90.86 99.1 100.51 97.89 112.9 101.61 114.55 111.52 107.25 115.69 107.25 120.18 113.39 123.59 124.17 118.69 137.07 123.84 99.04 65.98 66.16 117.83 76.4 120.39 80.68 109.28"/><polygon class="cls-1" points="124.33 125.21 113.11 130.3 101.25 123.71 101.25 112.21 107.95 108.38 107.6 106.28 99.99 104 93.64 104.8 85.82 112.62 80.1 127.5 62.77 123.17 56.2 133.52 63.1 129.57 76.3 135.66 90.19 129.71 108.18 136.7 124.24 129.68 138.23 135.67 143.35 133.4 141.38 130.4 139.16 131.14 124.33 125.21"/><polygon class="cls-1" points="124.26 136.22 108.32 143.19 90.31 136.19 76.2 142.23 63.4 136.32 49.33 144.36 48.96 144.95 150.94 144.95 146.69 138.48 138.27 142.22 124.26 136.22"/><path class="cls-1" d="M25.46,159h149L98.63,43.58Zm118.69-35.8.36,1.09L162.06,151H38L99,54.92l44.9,68.33Z"/><path class="cls-2" d="M182.51,160.3,101.09,36.41a3,3,0,0,0-2.51-1.36h0a3,3,0,0,0-2.51,1.4L17.47,160.34a3,3,0,0,0-.1,3A3,3,0,0,0,20,165H180a3,3,0,0,0,2.51-4.65ZM25.46,159,98.63,43.58,174.44,159Z"/><polygon class="cls-2" points="124.17 118.69 113.39 123.59 107.25 120.18 107.25 115.69 114.55 111.52 112.9 101.61 100.51 97.89 90.86 99.1 80.68 109.28 76.4 120.39 66.16 117.83 62.77 123.17 80.1 127.5 85.82 112.62 93.64 104.8 99.99 104 107.6 106.28 107.95 108.38 101.25 112.21 101.25 123.71 113.11 130.3 124.33 125.21 139.16 131.14 141.38 130.4 137.07 123.84 124.17 118.69"/><polygon class="cls-2" points="124.24 129.68 108.18 136.7 90.19 129.71 76.3 135.66 63.1 129.57 56.2 133.52 49.33 144.36 63.4 136.32 76.2 142.23 90.31 136.19 108.32 143.19 124.26 136.22 138.27 142.22 146.69 138.48 143.35 133.4 138.23 135.67 124.24 129.68"/><path class="cls-3" d="M144.51,124.24l-.65-1L99,54.92,38,151h124ZM49,145l.37-.59,6.88-10.84,6.56-10.35,3.38-5.34L99,66l38,57.87,4.31,6.55,2,3,3.34,5.08,4.25,6.47Z"/></g></svg>