<?xml version="1.0" encoding="UTF-8"?><svg xmlns="http://www.w3.org/2000/svg" viewBox="0 0 200 200"><defs><style>.g{fill:red;}.h{fill:#34bab5;}</style></defs><g id="a"><g id="b"/></g><g id="c"/><g id="d"><g id="e"/></g><g id="f"><g><path class="g" d="M116,160.85h-.58l-11.06-39.11c-.51-1.79-2.1-3.02-3.97-3.05-.02,0-.04,0-.06,0-1.84,0-3.44,1.17-3.99,2.93l-12.39,39.23h-.92c-1.1,0-2,.9-2,2s.9,2,2,2h32.98c1.1,0,2-.9,2-2s-.9-2-2-2Zm-21.14-21.28h10.39l2.59,9.14h-15.86l2.89-9.14Zm14.11,13.14l2.21,7.83h-22.94l2.47-7.83h18.26Zm-8.82-29.89c.02-.07,.04-.13,.18-.13h0c.14,0,.16,.07,.18,.14l3.61,12.75h-7.99l4.03-12.75Z"/><path class="h" d="M180.72,54c0-1.66-1.34-3-3-3H23c-1.66,0-3,1.34-3,3v15.71c0,.06,.01,.12,.02,.17,0,.06-.02,.11-.02,.17v13.8c0,1.62,1.29,2.95,2.91,3,11.71,.34,21.3,9.37,22.35,21.02v4.08h0c-.01,.18-.01,.35,0,.51v49.35c0,1.66,1.34,3,3,3h25.57c1.66,0,3-1.34,3-3v-48.79c.1-.34,.13-.71,.1-1.07-.05-.59-.1-1.29-.1-1.99,0-12.76,10.38-23.14,23.14-23.14,11.88,0,21.98,9.23,23.04,21.04v4.08h0c-.01,.18-.01,.35,0,.51v49.35c0,1.66,1.34,3,3,3h25.57c1.66,0,3-1.34,3-3v-48.79c.1-.34,.13-.71,.1-1.07-.05-.59-.1-1.29-.1-1.99,0-12.76,10.38-23.14,23.14-23.14,1.66,0,3-1.34,3-3v-13.78c0-.06-.01-.12-.02-.17,0-.06,.02-.11,.02-.17v-15.71Zm-154.72,3H174.72v9.71H26v-9.71Zm148.72,23.99c-14.66,1.51-26.13,13.94-26.13,28.99,0,.58,.03,1.14,.06,1.65-.04,.19-.06,.39-.06,.59v46.6h-19.57v-46.6s0-.05,0-.08c0-.03,0-.05,0-.08v-4.32c0-.08,0-.17-.01-.25-1.27-14.95-14.02-26.65-29.03-26.65-16.07,0-29.14,13.07-29.14,29.14,0,.58,.02,1.14,.06,1.65-.04,.19-.06,.39-.06,.59v46.6h-19.57v-46.6s0-.05,0-.08c0-.03,0-.05,0-.08v-4.32c0-.08,0-.17-.01-.25-1.17-13.77-11.8-24.66-25.25-26.4v-8.03H174.72v7.94Z"/></g></g></svg>