<?xml version="1.0" encoding="UTF-8"?><svg xmlns="http://www.w3.org/2000/svg" viewBox="0 0 200 200"><defs><style>.g{fill:none;}.h{fill:red;}.i{fill:#34bab5;}</style></defs><g id="a"><g id="b"/></g><g id="c"/><g id="d"><g id="e"/></g><g id="f"><g><path class="g" d="M82.73,48.07c0-1.66,1.34-3,3-3h27.01c1.66,0,3,1.34,3,3v13.31h24.51c1.66,0,3,1.34,3,3v14.83l15.7,8.15c.56-2.55,.94-5.13,1.08-7.73,1.48-26.27-18.69-48.86-44.96-50.33-25.42-1.43-47.36,17.39-50.12,42.39l17.77-9.2v-14.41Zm34.39-9.94c.18-1.65,1.66-2.83,3.3-2.66,7.55,.81,14.36,4.49,19.19,10.36,1.05,1.28,.87,3.17-.41,4.22-.56,.46-1.23,.68-1.9,.68-.87,0-1.73-.37-2.32-1.09-3.82-4.65-9.22-7.56-15.2-8.2-1.65-.18-2.84-1.66-2.66-3.3Z"/><polygon class="h" points="150.28 135.44 150.22 135.32 149.99 135.44 150.28 135.44"/><g><path class="h" d="M166.31,162.1l-7.52-15.77-1.29-2.71-1.29-2.71-2.03-4.26-.58-1.21-.71-1.5-1.29-2.71-5.19-10.89c-.2-.42-.45-.81-.74-1.15,1.68-1.32,3.29-2.75,4.8-4.27,.73-.74,1.44-1.49,2.14-2.27,.68-.77,1.34-1.55,1.97-2.36,4.09-5.18,7.28-11.19,9.28-17.84,1.21-4.06,1.95-8.26,2.19-12.49,1.66-29.58-21.04-55-50.62-56.66-29.59-1.67-55,21.04-56.66,50.63-.04,.82-.07,1.63-.09,2.45v.02c-.09,8.71,1.9,16.97,5.5,24.29,.44,.9,.9,1.79,1.39,2.66,.49,.87,1.01,1.73,1.55,2.58,8.99,14.04,24.37,23.65,42.26,24.66,1.03,.06,2.06,.09,3.08,.09,5.05,0,9.97-.71,14.65-2.03,.08,.26,.16,.52,.28,.77l2.88,6.03,2.62,5.49,1.29,2.71,1.29,2.71,2.03,4.26,1.29,2.71,1.29,2.71,7.22,15.14c1.69,3.54,5.23,5.62,8.92,5.62,1.42,0,2.86-.31,4.23-.96l1.21-.58h0c2.38-1.13,4.17-3.13,5.05-5.61,.88-2.48,.74-5.16-.39-7.54Zm-16.09-26.78l.06,.12h-.28l.23-.12Zm-40.51-10.73c-15.69-.89-29.21-9.22-37.23-21.44-.55-.84-1.08-1.69-1.58-2.56-.49-.87-.95-1.76-1.39-2.66-2.88-5.88-4.58-12.43-4.81-19.35-.02-.7-.04-1.4-.03-2.11,0-.43,.03-.85,.04-1.28,.01-.31,.02-.63,.03-.94,.05-.86,.12-1.72,.22-2.57,2.75-25,24.7-43.82,50.12-42.39,26.27,1.48,46.44,24.06,44.96,50.33-.15,2.6-.52,5.19-1.08,7.73-.22,1-.47,2-.76,2.99-.04,.13-.06,.26-.1,.39-.26,.85-.54,1.68-.84,2.51-1.91,5.29-4.69,10.08-8.13,14.23-.66,.8-1.34,1.57-2.04,2.32-.72,.77-1.48,1.5-2.25,2.22-9.25,8.56-21.78,13.35-35.13,12.58Zm51.34,43.05c-.34,.97-1.05,1.75-1.98,2.2l-1.21,.58c-1.92,.92-4.24,.1-5.15-1.83l-7.3-15.32-1.29-2.71-1.29-2.71-2.03-4.26-1.29-2.71-1.29-2.71-1.3-2.73-3.97-8.32,8.19-3.9,5.14,10.77,.69,1.45,.6,1.26,1.29,2.71,2.03,4.26,1.29,2.71,1.29,2.71,7.43,15.59c.44,.93,.5,1.98,.15,2.96Z"/><path class="h" d="M120.42,35.47c-1.64-.17-3.13,1.01-3.3,2.66-.18,1.65,1.01,3.13,2.66,3.3,5.98,.64,11.38,3.56,15.2,8.2,.59,.72,1.45,1.09,2.32,1.09,.67,0,1.35-.22,1.9-.68,1.28-1.05,1.46-2.94,.41-4.22-4.82-5.86-11.64-9.54-19.19-10.36Z"/></g><g><path class="i" d="M143.25,79.21v-14.83c0-1.66-1.34-3-3-3h-24.51v-13.31c0-1.66-1.34-3-3-3h-27.01c-1.66,0-3,1.34-3,3v14.41l-17.77,9.2c-.09,.85-.17,1.71-.22,2.57-.02,.31-.02,.62-.03,.94-.02,.43-.04,.85-.04,1.28,0,.71,0,1.41,.03,2.11l18.04-9.34v32.34c0,1.66,1.34,3,3,3h27.01c.09,0,.17-.02,.25-.03,.09,0,.17,.03,.25,.03h27.01c.73,0,1.39-.27,1.92-.71,.66-.55,1.08-1.37,1.08-2.29v-15.6l14.01,7.27c.3-.82,.58-1.66,.84-2.51,.04-.13,.07-.26,.1-.39,.29-.99,.53-1.98,.76-2.99l-15.7-8.15Zm-33.51-17.38v36.75h-21.01V51.07h21.01v10.75Zm6.51,36.75v-31.2h21.01v31.2h-21.01Z"/><path class="i" d="M96.16,71.87h7.13c1.66,0,3-1.34,3-3s-1.34-3-3-3h-7.13c-1.66,0-3,1.34-3,3s1.34,3,3,3Z"/><path class="i" d="M103.29,55.99h-7.13c-1.66,0-3,1.34-3,3,0,.47,.12,.91,.31,1.31,.49,1,1.5,1.69,2.69,1.69h7.13c.07,0,.14-.02,.21-.02,1.23-.09,2.24-.9,2.62-2.02,.1-.3,.17-.62,.17-.96,0-1.66-1.34-3-3-3Z"/><path class="i" d="M106.29,78.74c0-1.66-1.34-3-3-3h-7.13c-1.66,0-3,1.34-3,3s1.34,3,3,3h7.13c1.66,0,3-1.34,3-3Z"/><path class="i" d="M100.41,85.62h2.88c1.66,0,3,1.34,3,3,0,.01,0,.03,0,.04-.02,1.11-.64,2.07-1.55,2.57-.43,.24-.92,.38-1.44,.38h-7.13c-.37,0-.72-.08-1.05-.2-1.01-.38-1.76-1.29-1.91-2.39-.02-.14-.04-.27-.04-.41,0-1.66,1.34-3,3-3h4.25Z"/><path class="i" d="M132.76,76.63c-.43-.43-.98-.72-1.6-.83-.17-.03-.34-.05-.52-.05h-7.13c-1.66,0-3,1.34-3,3s1.34,3,3,3h7.13c1.11,0,2.06-.61,2.58-1.5,.26-.44,.42-.95,.42-1.5,0-.83-.33-1.57-.87-2.12Z"/><path class="i" d="M130.63,85.62h-7.13c-1.66,0-3,1.34-3,3s1.34,3,3,3h7.13c1.66,0,3-1.34,3-3s-1.34-3-3-3Z"/><path class="i" d="M138.78,153.32l-1.29-2.71-34.49,17.86v-5.31l32.46-16.81-1.29-2.71-1.29-2.71-32.77,16.97-43.37-22.46-23.31-12.07,33.69-17.45c-.54-.84-1.05-1.7-1.55-2.58-.49-.87-.95-1.76-1.39-2.66l-38.65,20.02c-.39,.2-.71,.48-.97,.81-.65,.55-1.07,1.36-1.07,2.28v10.97c0,.73,.27,1.4,.71,1.92,.27,.59,.72,1.1,1.34,1.42l73.2,37.91c.43,.22,.91,.34,1.38,.34s.95-.11,1.38-.34l38.59-19.99-1.29-2.71Zm-41.78,15.05l-63.58-32.92-3.95-2.04v-5.31l14.21,7.36,53.31,27.61v5.31Z"/></g><path class="i" d="M176.07,122.23c-.27-.65-.75-1.19-1.39-1.52l-20.11-10.42c-.64,.81-1.29,1.59-1.97,2.36-.69,.78-1.4,1.54-2.14,2.27l16.32,8.45-15.18,7.86,1.29,2.71,.71,1.5,.58,1.21,2.34-1.21,14.01-7.25v5.31l-3.75,1.94-10.57,5.47,1.29,2.71,1.29,2.71,15.89-8.23c.83-.43,1.36-1.2,1.54-2.05,.19-.39,.3-.82,.3-1.29v-10.97c0-.58-.17-1.11-.45-1.56Z"/></g></g></svg>