<?xml version="1.0" encoding="UTF-8"?><svg xmlns="http://www.w3.org/2000/svg" viewBox="0 0 200 200"><defs><style>.g{fill:none;}.h{fill:red;}.i{fill:#34bab5;}</style></defs><g id="a"><g id="b"/></g><g id="c"/><g id="d"><g id="e"/></g><g id="f"><g><polygon class="g" points="129.35 30.88 119.21 30.88 125.04 40.64 129.35 30.88"/><path class="g" d="M60.63,82.85l23.42-26.04-29.7,16.88,5.82,8.15c.22,.31,.37,.66,.46,1.01Z"/><polygon class="g" points="113.51 33.03 104.54 43 119.46 43 113.51 33.03"/><polygon class="g" points="145.56 75.03 144.21 37.01 135.37 32.09 128.81 46.96 145.56 75.03"/><polygon class="g" points="50.84 79.09 49.68 84.9 54.9 84.78 50.84 79.09"/><path class="g" d="M109,144c-1.22,0-2.32-.74-2.78-1.87-.46-1.13-.19-2.42,.68-3.28l6.37-6.24c-2.19-4.48-3.33-9.42-3.33-14.43,0-18.14,14.75-32.89,32.89-32.89,.64,0,1.28,.02,1.92,.06l-21.7-36.36h-23.89l-36.58,40.67c-.55,.62-1.34,.97-2.16,.99l-11.41,.25v79.09h50.4l33.67-20.41c-3.83-1.19-7.44-3.08-10.63-5.59h-13.45Zm-20.49-69.15h33.72c1.66,0,3,1.34,3,3s-1.34,3-3,3h-33.72c-1.66,0-3-1.34-3-3s1.34-3,3-3Zm-10.51,12.86h33c1.66,0,3,1.34,3,3s-1.34,3-3,3h-33c-1.66,0-3-1.34-3-3s1.34-3,3-3Zm28,15.86c0,1.66-1.34,3-3,3h-10.87c-1.66,0-3-1.34-3-3s1.34-3,3-3h10.87c1.66,0,3,1.34,3,3Zm-46-3h22c1.66,0,3,1.34,3,3s-1.34,3-3,3h-22c-1.66,0-3-1.34-3-3s1.34-3,3-3Zm0,12.86h45c1.66,0,3,1.34,3,3s-1.34,3-3,3H60c-1.66,0-3-1.34-3-3s1.34-3,3-3Zm0,12.86h13.74c1.66,0,3,1.34,3,3s-1.34,3-3,3h-13.74c-1.66,0-3-1.34-3-3s1.34-3,3-3Zm19,31.72h-19c-1.66,0-3-1.34-3-3s1.34-3,3-3h19c1.66,0,3,1.34,3,3s-1.34,3-3,3Zm14.72,0h-4.72c-1.66,0-3-1.34-3-3s1.34-3,3-3h4.72c1.66,0,3,1.34,3,3s-1.34,3-3,3Zm3.69-12.86H60c-1.66,0-3-1.34-3-3s1.34-3,3-3h37.41c1.66,0,3,1.34,3,3s-1.34,3-3,3Zm-13.41-12.86c-1.66,0-3-1.34-3-3s1.34-3,3-3h21c1.66,0,3,1.34,3,3s-1.34,3-3,3h-21Z"/><g><path class="i" d="M99.4,170H49V90.91l11.41-.25c.83-.02,1.61-.38,2.16-.99l36.58-40.67h23.89l21.7,36.36c2.5,.14,4.92,.57,7.23,1.24l-1.83-51.51c-.04-1.05-.62-2-1.54-2.51l-13.19-7.33h-.01s-.07-.03-.1-.05c-.17-.09-.35-.16-.53-.21-.06-.02-.13-.03-.19-.04-.17-.03-.33-.06-.5-.06-.04,0-.07-.01-.11-.01h-19.06c-.3,0-.59,.06-.87,.14-.86-.01-1.68,.33-2.26,.98l-15.37,17.08c-.31,.06-.61,.16-.89,.31l-48.07,27.32c-.76,.43-1.29,1.17-1.46,2.02l-2.92,14.61c-.04,.21-.07,.42-.07,.64v85.02c0,1.66,1.34,3,3,3h54.24c.55,0,1.09-.15,1.55-.43l40.42-24.5c-3.12-.06-6.2-.56-9.14-1.47l-33.67,20.41ZM135.37,32.09l8.84,4.91,1.34,38.02-16.75-28.07,6.56-14.87Zm-6.02-1.22l-4.31,9.77-5.83-9.77h10.14Zm-15.84,2.16l5.95,9.97h-14.91l8.97-9.97Zm-29.46,23.78l-23.42,26.04c-.09-.35-.24-.7-.46-1.01l-5.82-8.15,29.7-16.88Zm-33.22,22.28l4.06,5.69-5.22,.12,1.16-5.8Z"/><g><path class="i" d="M122.23,74.85h-33.72c-1.66,0-3,1.34-3,3s1.34,3,3,3h33.72c1.66,0,3-1.34,3-3s-1.34-3-3-3Z"/><path class="i" d="M60,106.57h22c1.66,0,3-1.34,3-3s-1.34-3-3-3h-22c-1.66,0-3,1.34-3,3s1.34,3,3,3Z"/><path class="i" d="M111,87.71h-33c-1.66,0-3,1.34-3,3s1.34,3,3,3h33c1.66,0,3-1.34,3-3s-1.34-3-3-3Z"/><path class="i" d="M79,152h-19c-1.66,0-3,1.34-3,3s1.34,3,3,3h19c1.66,0,3-1.34,3-3s-1.34-3-3-3Z"/><path class="i" d="M97.41,139.14H60c-1.66,0-3,1.34-3,3s1.34,3,3,3h37.41c1.66,0,3-1.34,3-3s-1.34-3-3-3Z"/><path class="i" d="M102,113.43H60c-1.66,0-3,1.34-3,3s1.34,3,3,3h42c1.66,0,3-1.34,3-3s-1.34-3-3-3Z"/><path class="i" d="M103,126.28h-19c-1.66,0-3,1.34-3,3s1.34,3,3,3h19c1.66,0,3-1.34,3-3s-1.34-3-3-3Z"/></g></g><g><path class="h" d="M92.13,100.57c-1.66,0-3,1.34-3,3s1.34,3,3,3h10.87c1.66,0,3-1.34,3-3s-1.34-3-3-3h-10.87Z"/><path class="h" d="M93.72,152h-4.72c-1.66,0-3,1.34-3,3s1.34,3,3,3h4.72c1.66,0,3-1.34,3-3s-1.34-3-3-3Z"/><path class="h" d="M60,132.28h13.74c1.66,0,3-1.34,3-3s-1.34-3-3-3h-13.74c-1.66,0-3,1.34-3,3s1.34,3,3,3Z"/><g><path class="h" d="M151.97,86.61c-2.32-.67-4.74-1.1-7.23-1.24-.63-.04-1.27-.06-1.92-.06-18.13,0-32.89,14.75-32.89,32.89,0,5.01,1.15,9.95,3.33,14.43l-6.37,6.24c-.87,.85-1.14,2.15-.68,3.28,.46,1.13,1.56,1.87,2.78,1.87h13.45c3.18,2.52,6.79,4.4,10.63,5.59,2.95,.92,6.02,1.42,9.14,1.47,.2,0,.4,.01,.6,.01,18.14,0,32.89-14.75,32.89-32.89,0-14.96-10.04-27.61-23.74-31.58Zm-.36,56.99c-2.76,.96-5.71,1.48-8.79,1.48-.72,0-1.43-.04-2.14-.1-5.58-.45-10.92-2.63-15.22-6.27-.54-.46-1.23-.71-1.94-.71h-7.17l2.72-2.67c.98-.96,1.18-2.46,.49-3.65-2.38-4.09-3.63-8.75-3.63-13.49,0-14.83,12.06-26.89,26.89-26.89,.94,0,1.87,.05,2.79,.15,2.08,.22,4.09,.67,6,1.34,10.52,3.65,18.1,13.66,18.1,25.41s-7.58,21.75-18.1,25.41Z"/><path class="h" d="M154.25,116h-7.5v-7c0-.95-.45-1.78-1.14-2.33-.51-.41-1.16-.67-1.86-.67-1.66,0-3,1.34-3,3v7h-7.5c-1.66,0-3,1.34-3,3s1.34,3,3,3h7.5v8c0,1.66,1.34,3,3,3,.71,0,1.35-.26,1.86-.67,.69-.55,1.14-1.39,1.14-2.33v-8h7.5c1.66,0,3-1.34,3-3s-1.34-3-3-3Z"/></g></g></g></g></svg>