<?xml version="1.0" encoding="UTF-8"?><svg xmlns="http://www.w3.org/2000/svg" viewBox="0 0 200 200"><defs><style>.g{fill:red;}.h{fill:#34bab5;}</style></defs><g id="a"><g id="b"/></g><g id="c"/><g id="d"><g id="e"/></g><g id="f"><g><path class="g" d="M173.53,21.91l-.02,104.13-14.44,6.44-13.14-6.38-.44-69.06-6,.04,.44,69.54v28.49h-30.4v-61.9h-6v50.72l-14.94,6.67-13.12-6.38v-16.3h-6v18.17c0,1.15,.66,2.2,1.69,2.7l16.07,7.81c.41,.2,.86,.3,1.31,.3,.42,0,.83-.09,1.22-.26l13.77-6.15v7.61c0,1.66,1.34,3,3,3h36.4c1.66,0,3-1.34,3-3v-25.33l11.77,5.72c.41,.2,.86,.3,1.31,.3,.42,0,.83-.09,1.22-.26l17.5-7.81c1.08-.48,1.78-1.55,1.78-2.74l.02-106.07h-6Z"/><path class="g" d="M117.32,149.13c1.1,0,2-.9,2-2v-6.11c0-1.1-.9-2-2-2s-2,.9-2,2v6.11c0,1.1,.9,2,2,2Z"/><path class="g" d="M125.13,149.13c1.1,0,2-.9,2-2v-6.11c0-1.1-.9-2-2-2s-2,.9-2,2v6.11c0,1.1,.9,2,2,2Z"/><path class="g" d="M132.93,149.13c1.1,0,2-.9,2-2v-6.11c0-1.1-.9-2-2-2s-2,.9-2,2v6.11c0,1.1,.9,2,2,2Z"/><path class="g" d="M117.32,133.2c1.1,0,2-.9,2-2v-6.11c0-1.1-.9-2-2-2s-2,.9-2,2v6.11c0,1.1,.9,2,2,2Z"/><path class="g" d="M125.13,133.2c1.1,0,2-.9,2-2v-6.11c0-1.1-.9-2-2-2s-2,.9-2,2v6.11c0,1.1,.9,2,2,2Z"/><path class="g" d="M132.93,133.2c1.1,0,2-.9,2-2v-6.11c0-1.1-.9-2-2-2s-2,.9-2,2v6.11c0,1.1,.9,2,2,2Z"/><path class="g" d="M117.32,117.28c1.1,0,2-.9,2-2v-6.11c0-1.1-.9-2-2-2s-2,.9-2,2v6.11c0,1.1,.9,2,2,2Z"/><path class="g" d="M125.13,117.28c1.1,0,2-.9,2-2v-6.11c0-1.1-.9-2-2-2s-2,.9-2,2v6.11c0,1.1,.9,2,2,2Z"/><path class="g" d="M132.93,117.28c1.1,0,2-.9,2-2v-6.11c0-1.1-.9-2-2-2s-2,.9-2,2v6.11c0,1.1,.9,2,2,2Z"/><path class="g" d="M117.32,101.36c1.1,0,2-.9,2-2v-6.11c0-1.1-.9-2-2-2s-2,.9-2,2v6.11c0,1.1,.9,2,2,2Z"/><path class="g" d="M125.13,101.36c1.1,0,2-.9,2-2v-6.11c0-1.1-.9-2-2-2s-2,.9-2,2v6.11c0,1.1,.9,2,2,2Z"/><path class="g" d="M132.93,101.36c1.1,0,2-.9,2-2v-6.11c0-1.1-.9-2-2-2s-2,.9-2,2v6.11c0,1.1,.9,2,2,2Z"/><path class="g" d="M125.13,85.44c1.1,0,2-.9,2-2v-6.11c0-1.1-.9-2-2-2s-2,.9-2,2v6.11c0,1.1,.9,2,2,2Z"/><path class="g" d="M132.93,85.44c1.1,0,2-.9,2-2v-6.11c0-1.1-.9-2-2-2s-2,.9-2,2v6.11c0,1.1,.9,2,2,2Z"/><path class="g" d="M81.32,143.13c1.1,0,2-.9,2-2v-6.11c0-1.1-.9-2-2-2s-2,.9-2,2v6.11c0,1.1,.9,2,2,2Z"/><path class="g" d="M89.13,143.13c1.1,0,2-.9,2-2v-6.11c0-1.1-.9-2-2-2s-2,.9-2,2v6.11c0,1.1,.9,2,2,2Z"/><path class="g" d="M96.93,143.13c1.1,0,2-.9,2-2v-6.11c0-1.1-.9-2-2-2s-2,.9-2,2v6.11c0,1.1,.9,2,2,2Z"/><path class="g" d="M81.32,127.2c1.1,0,2-.9,2-2v-6.11c0-1.1-.9-2-2-2s-2,.9-2,2v6.11c0,1.1,.9,2,2,2Z"/><path class="g" d="M89.13,127.2c1.1,0,2-.9,2-2v-6.11c0-1.1-.9-2-2-2s-2,.9-2,2v6.11c0,1.1,.9,2,2,2Z"/><path class="g" d="M96.93,127.2c1.1,0,2-.9,2-2v-6.11c0-1.1-.9-2-2-2s-2,.9-2,2v6.11c0,1.1,.9,2,2,2Z"/><path class="g" d="M96.93,111.13c1.1,0,2-.9,2-2v-6.11c0-1.1-.9-2-2-2s-2,.9-2,2v6.11c0,1.1,.9,2,2,2Z"/><path class="g" d="M152.2,121.13c1.1,0,2-.9,2-2v-6.11c0-1.1-.9-2-2-2s-2,.9-2,2v6.11c0,1.1,.9,2,2,2Z"/><path class="g" d="M160,121.13c1.1,0,2-.9,2-2v-6.11c0-1.1-.9-2-2-2s-2,.9-2,2v6.11c0,1.1,.9,2,2,2Z"/><path class="g" d="M167.81,111.02c-1.1,0-2,.9-2,2v6.11c0,1.1,.9,2,2,2s2-.9,2-2v-6.11c0-1.1-.9-2-2-2Z"/><path class="g" d="M152.2,105.2c1.1,0,2-.9,2-2v-6.11c0-1.1-.9-2-2-2s-2,.9-2,2v6.11c0,1.1,.9,2,2,2Z"/><path class="g" d="M160,105.2c1.1,0,2-.9,2-2v-6.11c0-1.1-.9-2-2-2s-2,.9-2,2v6.11c0,1.1,.9,2,2,2Z"/><path class="g" d="M169.81,97.09c0-1.1-.9-2-2-2s-2,.9-2,2v6.11c0,1.1,.9,2,2,2s2-.9,2-2v-6.11Z"/><path class="g" d="M152.2,89.28c1.1,0,2-.9,2-2v-6.11c0-1.1-.9-2-2-2s-2,.9-2,2v6.11c0,1.1,.9,2,2,2Z"/><path class="g" d="M160,89.28c1.1,0,2-.9,2-2v-6.11c0-1.1-.9-2-2-2s-2,.9-2,2v6.11c0,1.1,.9,2,2,2Z"/><path class="g" d="M169.81,81.17c0-1.1-.9-2-2-2s-2,.9-2,2v6.11c0,1.1,.9,2,2,2s2-.9,2-2v-6.11Z"/><path class="g" d="M152.2,73.36c1.1,0,2-.9,2-2v-6.11c0-1.1-.9-2-2-2s-2,.9-2,2v6.11c0,1.1,.9,2,2,2Z"/><path class="g" d="M160,73.36c1.1,0,2-.9,2-2v-6.11c0-1.1-.9-2-2-2s-2,.9-2,2v6.11c0,1.1,.9,2,2,2Z"/><path class="g" d="M169.81,65.25c0-1.1-.9-2-2-2s-2,.9-2,2v6.11c0,1.1,.9,2,2,2s2-.9,2-2v-6.11Z"/><path class="g" d="M152.2,57.44c1.1,0,2-.9,2-2v-6.11c0-1.1-.9-2-2-2s-2,.9-2,2v6.11c0,1.1,.9,2,2,2Z"/><path class="g" d="M160,57.44c1.1,0,2-.9,2-2v-6.11c0-1.1-.9-2-2-2s-2,.9-2,2v6.11c0,1.1,.9,2,2,2Z"/><path class="g" d="M165.81,49.33v6.11c0,1.1,.9,2,2,2s2-.9,2-2v-6.11c0-1.1-.9-2-2-2s-2,.9-2,2Z"/><path class="g" d="M166.81,41.51c1.1,0,2-.9,2-2v-6.11c0-1.1-.9-2-2-2s-2,.9-2,2v6.11c0,1.1,.9,2,2,2Z"/></g><g><path class="h" d="M47.8,88.46c1.1,0,2-.9,2-2v-6.11c0-1.1-.9-2-2-2s-2,.9-2,2v6.11c0,1.1,.9,2,2,2Z"/><path class="h" d="M40,88.46c1.1,0,2-.9,2-2v-6.11c0-1.1-.9-2-2-2s-2,.9-2,2v6.11c0,1.1,.9,2,2,2Z"/><path class="h" d="M32.19,88.46c1.1,0,2-.9,2-2v-6.11c0-1.1-.9-2-2-2s-2,.9-2,2v6.11c0,1.1,.9,2,2,2Z"/><path class="h" d="M47.8,104.38c1.1,0,2-.9,2-2v-6.11c0-1.1-.9-2-2-2s-2,.9-2,2v6.11c0,1.1,.9,2,2,2Z"/><path class="h" d="M40,104.38c1.1,0,2-.9,2-2v-6.11c0-1.1-.9-2-2-2s-2,.9-2,2v6.11c0,1.1,.9,2,2,2Z"/><path class="h" d="M32.19,104.38c1.1,0,2-.9,2-2v-6.11c0-1.1-.9-2-2-2s-2,.9-2,2v6.11c0,1.1,.9,2,2,2Z"/><path class="h" d="M47.8,120.3c1.1,0,2-.9,2-2v-6.11c0-1.1-.9-2-2-2s-2,.9-2,2v6.11c0,1.1,.9,2,2,2Z"/><path class="h" d="M40,120.3c1.1,0,2-.9,2-2v-6.11c0-1.1-.9-2-2-2s-2,.9-2,2v6.11c0,1.1,.9,2,2,2Z"/><path class="h" d="M32.19,120.3c1.1,0,2-.9,2-2v-6.11c0-1.1-.9-2-2-2s-2,.9-2,2v6.11c0,1.1,.9,2,2,2Z"/><path class="h" d="M47.8,136.23c1.1,0,2-.9,2-2v-6.11c0-1.1-.9-2-2-2s-2,.9-2,2v6.11c0,1.1,.9,2,2,2Z"/><path class="h" d="M40,136.23c1.1,0,2-.9,2-2v-6.11c0-1.1-.9-2-2-2s-2,.9-2,2v6.11c0,1.1,.9,2,2,2Z"/><path class="h" d="M32.19,136.23c1.1,0,2-.9,2-2v-6.11c0-1.1-.9-2-2-2s-2,.9-2,2v6.11c0,1.1,.9,2,2,2Z"/><path class="h" d="M40,152.15c1.1,0,2-.9,2-2v-6.11c0-1.1-.9-2-2-2s-2,.9-2,2v6.11c0,1.1,.9,2,2,2Z"/><path class="h" d="M32.19,152.15c1.1,0,2-.9,2-2v-6.11c0-1.1-.9-2-2-2s-2,.9-2,2v6.11c0,1.1,.9,2,2,2Z"/><g><path class="h" d="M82.68,60.46c1.1,0,2-.9,2-2v-6.11c0-1.1-.9-2-2-2s-2,.9-2,2v6.11c0,1.1,.9,2,2,2Z"/><path class="h" d="M74.87,60.46c1.1,0,2-.9,2-2v-6.11c0-1.1-.9-2-2-2s-2,.9-2,2v6.11c0,1.1,.9,2,2,2Z"/><path class="h" d="M67.07,60.46c1.1,0,2-.9,2-2v-6.11c0-1.1-.9-2-2-2s-2,.9-2,2v6.11c0,1.1,.9,2,2,2Z"/><path class="h" d="M82.68,76.38c1.1,0,2-.9,2-2v-6.11c0-1.1-.9-2-2-2s-2,.9-2,2v6.11c0,1.1,.9,2,2,2Z"/><path class="h" d="M74.87,76.38c1.1,0,2-.9,2-2v-6.11c0-1.1-.9-2-2-2s-2,.9-2,2v6.11c0,1.1,.9,2,2,2Z"/><path class="h" d="M67.07,76.38c1.1,0,2-.9,2-2v-6.11c0-1.1-.9-2-2-2s-2,.9-2,2v6.11c0,1.1,.9,2,2,2Z"/><path class="h" d="M82.68,92.3c1.1,0,2-.9,2-2v-6.11c0-1.1-.9-2-2-2s-2,.9-2,2v6.11c0,1.1,.9,2,2,2Z"/><path class="h" d="M74.87,92.3c1.1,0,2-.9,2-2v-6.11c0-1.1-.9-2-2-2s-2,.9-2,2v6.11c0,1.1,.9,2,2,2Z"/><path class="h" d="M67.07,92.3c1.1,0,2-.9,2-2v-6.11c0-1.1-.9-2-2-2s-2,.9-2,2v6.11c0,1.1,.9,2,2,2Z"/><path class="h" d="M82.68,108.23c1.1,0,2-.9,2-2v-6.11c0-1.1-.9-2-2-2s-2,.9-2,2v6.11c0,1.1,.9,2,2,2Z"/><path class="h" d="M74.87,108.23c1.1,0,2-.9,2-2v-6.11c0-1.1-.9-2-2-2s-2,.9-2,2v6.11c0,1.1,.9,2,2,2Z"/><path class="h" d="M67.07,108.23c1.1,0,2-.9,2-2v-6.11c0-1.1-.9-2-2-2s-2,.9-2,2v6.11c0,1.1,.9,2,2,2Z"/><path class="h" d="M67.07,124.15c1.1,0,2-.9,2-2v-6.11c0-1.1-.9-2-2-2s-2,.9-2,2v6.11c0,1.1,.9,2,2,2Z"/><g><path class="h" d="M118.68,66.46c1.1,0,2-.9,2-2v-6.11c0-1.1-.9-2-2-2s-2,.9-2,2v6.11c0,1.1,.9,2,2,2Z"/><path class="h" d="M108.87,58.35v6.11c0,1.1,.9,2,2,2s2-.9,2-2v-6.11c0-1.1-.9-2-2-2s-2,.9-2,2Z"/><path class="h" d="M103.07,56.35c-1.1,0-2,.9-2,2v6.11c0,1.1,.9,2,2,2s2-.9,2-2v-6.11c0-1.1-.9-2-2-2Z"/><path class="h" d="M110.87,72.27c-1.1,0-2,.9-2,2v6.11c0,1.1,.9,2,2,2s2-.9,2-2v-6.11c0-1.1-.9-2-2-2Z"/><path class="h" d="M103.07,72.27c-1.1,0-2,.9-2,2v6.11c0,1.1,.9,2,2,2s2-.9,2-2v-6.11c0-1.1-.9-2-2-2Z"/><path class="h" d="M178.63,19.95c-1.18-1.16-3.08-1.14-4.24,.04l-43.86,44.72v-11.31c0-1.15-.66-2.2-1.69-2.7l-16.07-7.81c-.79-.39-1.72-.4-2.53-.04l-13.77,6.15v-7.61c0-1.66-1.34-3-3-3H57.07c-1.66,0-3,1.34-3,3v25.33l-11.77-5.72c-.79-.39-1.72-.4-2.53-.04l-17.5,7.81c-1.08,.48-1.78,1.55-1.78,2.74l-.02,106.07h.12c-.17,.94,.12,1.95,.85,2.67,.58,.57,1.34,.86,2.1,.86s1.55-.3,2.14-.9L178.68,24.19c1.16-1.18,1.14-3.08-.04-4.24ZM49.8,147.02v-2.98c0-1.1-.9-2-2-2s-2,.9-2,2v6.11c0,.28,.06,.55,.16,.79l-11.97,12.2v-3.18c0-1.1-.9-2-2-2s-2,.9-2,2v6.11c0,.33,.09,.64,.23,.91l-3.76,3.84,.02-97.37,14.44-6.44,13.14,6.38,.44,68.85-4.7,4.79Zm40.66-41.46l-13.59,13.86v-3.38c0-1.1-.9-2-2-2s-2,.9-2,2v6.11c0,.38,.11,.74,.3,1.05l-12.71,12.96-.4-63.28v-28.49h30.4v61.18Zm34.07-34.74l-3.86,3.93v-.49c0-1.1-.9-2-2-2s-2,.9-2,2v4.57l-11.61,11.84v-.33c0-1.1-.9-2-2-2s-2,.9-2,2v4.41l-4.6,4.69V55.57l14.94-6.67,13.12,6.38v15.55Z"/></g></g></g></g></svg>