<?xml version="1.0" encoding="UTF-8"?><svg xmlns="http://www.w3.org/2000/svg" viewBox="0 0 200 200"><defs><style>.g{fill:red;}.h{fill:#34bab5;}</style></defs><g id="a"><g id="b"/></g><g id="c"/><g id="d"><g id="e"/></g><g id="f"><path class="h" d="M70.85,161.65c-1.74,0-3.15,1.41-3.15,3.15s1.41,3.15,3.15,3.15,3.15-1.41,3.15-3.15-1.41-3.15-3.15-3.15Z"/><path class="h" d="M117.85,148.65c-1.74,0-3.15,1.41-3.15,3.15s1.41,3.15,3.15,3.15,3.15-1.41,3.15-3.15-1.41-3.15-3.15-3.15Z"/><path class="g" d="M71.47,123.46c-4.92,0-8.93-4.01-8.93-8.93s4.01-8.93,8.93-8.93c3.12,0,5.87,1.61,7.47,4.05v-8.03c-2.2-1.28-4.75-2.02-7.47-2.02-8.23,0-14.93,6.7-14.93,14.93,0,4.88,2.36,9.21,6,11.93-5.93,3.03-9.97,8.96-9.97,15.78v11.13h6v-11.13c0-6.57,5.79-11.92,12.91-11.92,2.78,0,5.36,.83,7.47,2.22v-13.13c-1.6,2.43-4.35,4.05-7.47,4.05Z"/><path class="g" d="M127.26,104.58c4.72-3.12,7.85-8.47,7.85-14.55,0-9.62-7.82-17.44-17.44-17.44-7.46,0-13.82,4.71-16.3,11.31-.51,1.36-.88,2.8-1.04,4.3-.06,.6-.1,1.21-.1,1.83,0,1.77,.27,3.48,.77,5.09,.64,2.1,1.67,4.03,3,5.71,1.15,1.46,2.53,2.73,4.08,3.75-1.46,.66-2.82,1.47-4.08,2.4-1.09,.8-2.09,1.7-3,2.68-1.16,1.25-2.17,2.62-3,4.1-1.64,2.93-2.58,6.27-2.58,9.81v14.91h6v-14.91c0-2.98,.95-5.76,2.58-8.1,2.89-4.17,7.93-6.94,13.67-6.94,8.96,0,16.25,6.75,16.25,15.05v14.91h6v-14.91c0-8.36-5.18-15.59-12.66-18.99Zm-9.59-3.11c-6.31,0-11.44-5.13-11.44-11.44s5.13-11.44,11.44-11.44,11.44,5.13,11.44,11.44-5.13,11.44-11.44,11.44Z"/><path class="g" d="M132.2,21.96c-1.12-1.22-3.02-1.29-4.24-.17l-4.69,4.33-6.19,5.72-2.86-2.86-1.1-1.1c-1.17-1.17-3.07-1.17-4.24,0-1.17,1.17-1.17,3.07,0,4.24l6,6c.58,.58,1.35,.88,2.12,.88,.73,0,1.46-.26,2.03-.8l13-12c1.22-1.12,1.29-3.02,.17-4.24Z"/><path class="g" d="M70.2,51.96c-1.12-1.22-3.02-1.29-4.24-.17l-4.69,4.33-6.19,5.72-2.86-2.86-1.1-1.1c-1.17-1.17-3.07-1.17-4.24,0-1.17,1.17-1.17,3.07,0,4.24l6,6c.58,.58,1.35,.88,2.12,.88,.73,0,1.46-.26,2.03-.8l13-12c1.22-1.12,1.29-3.02,.17-4.24Z"/><path class="h" d="M142.99,47h-50.63c-7.4,0-13.42,6.02-13.42,13.42v18.02h-26.58c-7.4,0-13.42,6.02-13.42,13.42v71.72c0,7.4,6.02,13.42,13.42,13.42h38.23c6.92,0,12.63-5.27,13.34-12h39.06c7.4,0,13.42-6.02,13.42-13.42V60.42c0-7.4-6.02-13.42-13.42-13.42ZM44.94,91.86c0-4.09,3.33-7.42,7.42-7.42h26.58v67.14c0,.61,.05,1.2,.13,1.79H44.94v-61.51Zm45.64,79.14H52.36c-4.09,0-7.42-3.33-7.42-7.42v-4.21h36.51c2.44,3.4,6.41,5.63,10.9,5.63h5.51c-.66,3.41-3.67,6-7.28,6Zm59.82-19.42c0,4.09-3.33,7.42-7.42,7.42h-50.63c-3.34,0-6.17-2.22-7.1-5.26-.21-.68-.32-1.41-.32-2.16v-7.92h65.47v7.92Zm0-13.92H84.94V60.42c0-4.09,3.33-7.42,7.42-7.42h50.63c4.09,0,7.42,3.33,7.42,7.42v77.25Z"/></g></svg>