<?xml version="1.0" encoding="UTF-8"?><svg xmlns="http://www.w3.org/2000/svg" viewBox="0 0 200 200"><defs><style>.g{fill:red;}.h{fill:#34bab5;}</style></defs><g id="a"><g id="b"/></g><g id="c"/><g id="d"><g id="e"/></g><g id="f"><g><path class="g" d="M117.31,182c-5.64,0-10.13-4.82-11.21-9.48-4.82-21.73-23.03-37.99-47.53-42.46-9.59-1.75-16.54-10.14-16.54-19.94v-1.9c0-14.67,7.06-28.62,18.89-37.32,.33-.26,1.88-1.44,4.26-2.8-9.95-3.38-17.13-12.81-17.13-23.88,0-12.68,7.3-22.78,18.17-25.14,.62-.13,14.72-3.08,22.47-3.08,21.71,0,39.63,6.55,51.82,18.94,11.91,12.11,17.78,29.06,17.44,50.37,0,.07,0,.15-.01,.22l-4.09,45.06c-.33,3.63-2.85,6.63-6.41,7.66-8.14,2.34-14.81,8.48-17.83,16.41-1.43,3.75-1.93,8.08-1.44,12.5l.4,3.6c.01,.11,.02,.22,.02,.33,0,6.12-4.96,10.91-11.28,10.91Zm-37.86-112.61c-.2,.07-.41,.12-.64,.15-7.7,.96-14.14,6.05-14.2,6.1-.03,.03-.06,.05-.1,.07-10.32,7.57-16.48,19.73-16.48,32.51v1.9c0,6.9,4.89,12.81,11.62,14.04,26.92,4.92,46.96,22.94,52.31,47.04,.52,2.26,2.85,4.8,5.35,4.8,2.96,0,5.2-2.04,5.28-4.76l-.38-3.42c-.6-5.37,.02-10.66,1.79-15.3,3.69-9.68,11.83-17.17,21.78-20.04,1.17-.34,1.99-1.29,2.1-2.44l4.08-44.95c.3-19.59-4.99-35.05-15.72-45.95-11.04-11.22-27.48-17.15-47.54-17.15-7.13,0-21.08,2.92-21.22,2.95-8.03,1.75-13.43,9.49-13.43,19.28,0,10.59,8.62,19.21,19.21,19.21,2.46,0,17.02-.13,18.48-.3,1.63-.28,3.15,.81,3.44,2.44,.29,1.63-.84,3.19-2.47,3.48-1.04,.18-7.96,.28-13.26,.33Z"/><path class="h" d="M135.21,92.69c-.07-.87-.52-1.67-1.23-2.19-.71-.52-1.61-.69-2.46-.49-.92,.22-22.63,5.55-28.58,19.32-2.42,5.61-1.93,11.69,1.45,18.09l-2.46,3.67c-.92,1.38-.56,3.24,.82,4.16,.51,.34,1.09,.51,1.67,.51,.97,0,1.92-.47,2.49-1.33l2.33-3.47s.04,.01,.07,.02c1.2,.16,2.37,.24,3.5,.24,5.25,0,9.71-1.71,13.29-5.11,10.82-10.27,9.18-32.47,9.11-33.41Zm-13.25,29.07c-2.37,2.25-5.29,3.38-8.85,3.44l9.74-14.52c.92-1.38,.56-3.24-.82-4.16-1.38-.92-3.24-.56-4.16,.82l-9.53,14.21c-1.24-3.54-1.21-6.78,.11-9.82,3.49-8.1,14.97-12.84,20.88-14.81-.02,6.26-.93,18.75-7.37,24.85Z"/></g></g></svg>