<?xml version="1.0" encoding="UTF-8"?><svg xmlns="http://www.w3.org/2000/svg" viewBox="0 0 200 200"><defs><style>.g{fill:red;}.h{fill:#34bab5;}</style></defs><g id="a"><g id="b"/></g><g id="c"/><g id="d"><g id="e"/></g><g id="f"><g><path class="h" d="M76.06,61.03c-.42,.53-.83,1.07-1.24,1.62-.66,.88-.48,2.14,.4,2.8,.36,.27,.78,.4,1.2,.4,.61,0,1.21-.28,1.6-.8,.4-.53,.79-1.05,1.19-1.56,.68-.87,.52-2.13-.35-2.81-.87-.68-2.13-.52-2.81,.35Z"/><path class="h" d="M70.66,75.15c-.11-.55-.44-1.06-.96-1.36-.96-.55-2.18-.21-2.73,.75-.34,.59-.67,1.19-.99,1.79-.23,.43-.28,.91-.19,1.35,.11,.56,.46,1.07,1,1.36,.3,.17,.63,.24,.95,.24,.71,0,1.4-.38,1.76-1.05,.31-.57,.63-1.14,.95-1.71,.25-.43,.31-.92,.22-1.37Z"/><path class="h" d="M66.04,80.92c-.05-.03-.1-.07-.16-.09-1-.46-2.19-.02-2.65,.98-.11,.24-.22,.49-.33,.74-.17,.38-.34,.75-.5,1.13-.44,1.01,.03,2.19,1.04,2.63,.26,.11,.53,.16,.79,.16,.77,0,1.51-.45,1.84-1.21,.26-.6,.52-1.19,.79-1.78,.43-.95,.06-2.05-.82-2.56Z"/><path class="h" d="M74.05,67.08c-.92-.62-2.16-.38-2.78,.54-.38,.56-.75,1.13-1.12,1.7-.54,.83-.38,1.9,.32,2.55,.08,.08,.17,.15,.27,.21,.34,.22,.71,.32,1.09,.32,.65,0,1.3-.32,1.68-.91,.36-.55,.72-1.1,1.08-1.64,.04-.05,.06-.11,.09-.17,.49-.89,.23-2.03-.63-2.61Z"/><path class="h" d="M86.8,53.67c.53,0,1.05-.21,1.45-.62,.46-.48,.92-.96,1.37-1.42,.77-.79,.76-2.06-.03-2.83-.79-.77-2.05-.76-2.83,.03-.47,.48-.94,.96-1.41,1.46-.76,.8-.73,2.07,.07,2.83,.39,.37,.88,.55,1.38,.55Z"/><path class="h" d="M92.47,48.02c.49,0,.99-.18,1.37-.54,.49-.46,.97-.91,1.45-1.35,.81-.75,.87-2.01,.12-2.83s-2.01-.87-2.83-.12c-.49,.45-.98,.91-1.48,1.38-.8,.76-.84,2.02-.08,2.83,.39,.42,.92,.63,1.46,.63Z"/><path class="h" d="M98.44,42.68c.46,0,.92-.16,1.29-.47,.53-.45,1.03-.87,1.52-1.27,.85-.71,.97-1.97,.26-2.82-.7-.85-1.96-.97-2.82-.26-.5,.41-1.01,.85-1.55,1.3-.84,.71-.95,1.98-.23,2.82,.4,.47,.96,.71,1.53,.71Z"/><path class="h" d="M71.45,53.21c.34-1.05-.24-2.18-1.29-2.52-.66-.21-1.32-.41-1.98-.6-1.06-.31-2.17,.31-2.47,1.37-.3,1.06,.31,2.17,1.37,2.47,.62,.18,1.23,.37,1.85,.56,.2,.07,.41,.1,.61,.1,.85,0,1.63-.54,1.9-1.39Z"/><path class="h" d="M91.94,62.14c-.35-.28-.72-.56-1.08-.84-.19-.15-.37-.29-.56-.44-.88-.66-2.14-.48-2.8,.41-.42,.57-.49,1.29-.26,1.9,.13,.34,.35,.66,.67,.89,.52,.39,1.03,.78,1.52,1.18,.05,.04,.1,.06,.14,.1,.34,.23,.72,.35,1.11,.35,.58,0,1.16-.25,1.56-.74,.29-.36,.42-.78,.43-1.21,.01-.6-.23-1.2-.74-1.6Z"/><path class="h" d="M97.53,67.5c-.32-.37-.64-.73-.98-1.09-.35-.38-.81-.58-1.29-.62-.54-.05-1.11,.12-1.54,.52-.15,.14-.26,.3-.36,.46-.43,.74-.36,1.7,.25,2.36,.38,.41,.74,.82,1.09,1.23,.15,.18,.34,.34,.55,.46l.28,.15c.3,.16,.62,.23,.93,.23,.72,0,1.41-.39,1.77-1.07,.49-.93,.17-2.08-.71-2.63Z"/><path class="h" d="M74.4,56.51c.6,.25,1.19,.5,1.78,.77,.27,.12,.55,.18,.82,.18,.76,0,1.49-.44,1.82-1.18,.45-1.01,0-2.19-1-2.65-.63-.28-1.26-.55-1.89-.82-1.02-.42-2.19,.06-2.62,1.08-.42,1.02,.06,2.19,1.08,2.62Z"/><path class="h" d="M80.95,59.55c.13,.13,.28,.26,.45,.35,.57,.31,1.13,.64,1.68,.97,.32,.19,.67,.28,1.02,.28,.68,0,1.34-.35,1.72-.97,.57-.95,.26-2.18-.69-2.74-.21-.13-.43-.25-.65-.37,.44-.8,.29-1.84-.43-2.47-.83-.73-2.09-.65-2.82,.18-.44,.5-.88,1.01-1.33,1.53-.72,.84-.62,2.1,.22,2.82,.25,.21,.53,.34,.83,.42Z"/><path class="h" d="M120.78,67.33h0c-.37-.49-.93-.75-1.49-.78-.46-.02-.92,.1-1.31,.41-.47,.36-.96,.7-1.46,1-.15,.09-.28,.21-.4,.33-.61,.64-.76,1.63-.28,2.42,.38,.62,1.04,.96,1.71,.96,.35,0,.71-.09,1.03-.29,.52-.31,1.02-.66,1.52-1.03,.1-.08,.21-.15,.32-.23,.87-.67,1.03-1.92,.37-2.8Z"/><path class="h" d="M109.99,74.1c.06,0,.12,0,.17,0,.75-.06,1.48-.17,2.2-.31,1.08-.21,1.79-1.27,1.57-2.35-.21-1.08-1.27-1.79-2.35-1.57-.57,.11-1.16,.2-1.76,.25-1.1,.09-1.92,1.06-1.82,2.17,.09,1.04,.96,1.83,1.99,1.83Z"/><path class="h" d="M126.32,59.04c.24,.09,.48,.14,.72,.14,.8,0,1.56-.49,1.87-1.28l.19-.49c.05-.12,.08-.25,.1-.38l.25-1.46c.18-1.09-.55-2.12-1.64-2.3-1.09-.18-2.12,.55-2.3,1.64l-.21,1.27-.11,.29c-.4,1.03,.11,2.19,1.14,2.59Z"/><path class="h" d="M122.14,65.84c.35,.25,.76,.38,1.17,.38,.62,0,1.23-.29,1.62-.83,.41-.56,.81-1.17,1.19-1.79,.58-.94,.28-2.17-.66-2.75-.94-.58-2.17-.28-2.75,.66-.33,.54-.67,1.06-1.02,1.54-.65,.9-.44,2.15,.45,2.79Z"/><path class="h" d="M101.56,73.27c.7,.18,1.4,.34,2.1,.47,.12,.02,.25,.03,.37,.03,.95,0,1.79-.67,1.96-1.64,.2-1.09-.52-2.13-1.6-2.33-.6-.11-1.2-.25-1.8-.41-1.07-.28-2.16,.36-2.44,1.42s.35,2.16,1.42,2.44Z"/><path class="h" d="M127.75,80c-.35-1.05-1.48-1.62-2.52-1.28-.62,.2-1.25,.41-1.88,.61-1.05,.33-1.64,1.46-1.3,2.51,.18,.57,.6,.99,1.11,1.21,.25,.11,.51,.19,.79,.19,.2,0,.4-.03,.6-.09,.65-.21,1.29-.41,1.93-.62,.35-.11,.63-.32,.86-.57,.46-.52,.65-1.25,.42-1.95Z"/><path class="h" d="M135.27,77.27c-.39-1.04-1.54-1.56-2.57-1.17-.29,.11-.59,.22-.89,.33-.32,.12-.64,.24-.97,.36-.8,.29-1.29,1.04-1.31,1.84,0,.24,.03,.49,.12,.73,.29,.81,1.06,1.32,1.88,1.32,.23,0,.46-.04,.68-.12,.2-.07,.4-.15,.6-.22,.43-.16,.87-.32,1.29-.48,.71-.26,1.16-.88,1.27-1.58,.05-.33,.03-.67-.1-.99Z"/><path class="h" d="M153.49,71.02c.32,0,.63-.07,.93-.23,.63-.33,1.22-.65,1.79-.96,.97-.53,1.33-1.75,.8-2.71-.53-.97-1.74-1.33-2.71-.8-.55,.3-1.13,.61-1.74,.94-.98,.52-1.35,1.73-.83,2.7,.36,.68,1.05,1.06,1.77,1.06Z"/><path class="h" d="M142.67,74.23c-.43-1.02-1.61-1.49-2.62-1.06-.6,.25-1.21,.51-1.83,.76-.75,.31-1.21,1.03-1.23,1.8,0,.27,.04,.55,.15,.81,.32,.77,1.06,1.24,1.85,1.24,.25,0,.51-.05,.76-.15,.17-.07,.33-.14,.5-.21,.46-.19,.92-.38,1.36-.57,1.02-.43,1.49-1.61,1.06-2.62Z"/><path class="h" d="M104.61,86.35c-.22-1.08-1.28-1.79-2.36-1.56-.64,.13-1.29,.26-1.95,.39-1.08,.21-1.79,1.26-1.58,2.34,.05,.25,.15,.49,.28,.69,.36,.57,.99,.93,1.68,.93,.13,0,.25-.01,.38-.04,.42-.08,.85-.17,1.27-.25,.24-.05,.48-.09,.71-.14,1.08-.22,1.78-1.28,1.56-2.36Z"/><path class="h" d="M146.32,74.58c.28,0,.57-.06,.84-.19,.63-.29,1.24-.58,1.83-.87,1-.48,1.42-1.67,.94-2.67-.48-1-1.67-1.41-2.67-.94-.58,.28-1.17,.56-1.79,.84-1,.46-1.44,1.65-.97,2.66,.34,.73,1.06,1.16,1.81,1.16Z"/><path class="h" d="M120.12,82.42c-.3-1.06-1.41-1.68-2.47-1.37-.63,.18-1.26,.36-1.91,.53-.83,.23-1.38,.94-1.46,1.75-.02,.23,0,.47,.06,.71,.24,.89,1.05,1.47,1.93,1.47,.17,0,.35-.02,.53-.07,.17-.05,.33-.09,.5-.14,.49-.13,.97-.27,1.45-.41,1.06-.3,1.68-1.41,1.37-2.47Z"/><path class="h" d="M112.4,84.54c-.26-1.07-1.34-1.74-2.42-1.47-.35,.09-.71,.17-1.06,.25-.29,.07-.58,.14-.87,.21-1.08,.25-1.74,1.33-1.49,2.4,.22,.92,1.04,1.54,1.95,1.54,.15,0,.31-.02,.46-.05,.66-.15,1.31-.31,1.96-.47,.34-.08,.63-.25,.87-.47,.52-.48,.78-1.21,.61-1.95Z"/><path class="h" d="M96.63,87.45c-.21-.53-.64-.92-1.16-1.12,.43,.34,.82,.72,1.16,1.12Z"/><path class="h" d="M96.76,87.88c-.02-.15-.07-.29-.12-.42-.34-.4-.73-.77-1.16-1.12-.32-.12-.66-.17-1.02-.11-.65,.11-1.3,.21-1.95,.31-.94,.14-1.63,.93-1.69,1.84,0,.14,0,.29,.02,.44,.15,.99,1,1.7,1.97,1.7,.1,0,.2,0,.31-.02,.24-.04,.47-.08,.71-.11,.43-.07,.86-.13,1.29-.2h.02l1.06-.56c.44-.44,.68-1.08,.57-1.74Z"/><path class="h" d="M96.19,89.62l-1.06,.55c.42-.07,.78-.27,1.06-.55Z"/><path class="h" d="M79.18,88.23c-.15-.02-.29-.03-.45-.02-.66,.06-1.32,.11-1.98,.17-1.1,.09-1.92,1.06-1.83,2.16,.09,1.05,.96,1.84,1.99,1.84,.05,0,.11,0,.17,0,.36-.03,.71-.06,1.07-.09,.31-.03,.63-.05,.94-.08,1.1-.1,1.91-1.07,1.82-2.17-.08-.95-.8-1.67-1.72-1.8Z"/><path class="h" d="M88.85,89.1c-.06-.44-.25-.82-.53-1.12-.42-.45-1.04-.7-1.7-.62-.65,.08-1.31,.16-1.97,.24-1.1,.13-1.88,1.12-1.75,2.22,0,.04,.02,.08,.02,.11,.17,.96,1,1.65,1.96,1.65,.08,0,.16,0,.24-.01,.67-.08,1.34-.16,2-.24,1.1-.14,1.87-1.14,1.73-2.23Z"/></g><path class="h" d="M178.71,128.4l-24.85-12.87-4.06,2.1-2.13,1.1-.33,.17,17.71,9.17c-10.72-2.1-22.06-2.35-31.72-1.91l-4.39,2.27-4.14,2.14,1.78,.06c10.56-.85,24.54-1.13,37.43,1.32,1.21,.23,2.41,.48,3.6,.76l-17.33,8.97c-15.47-4.37-33.46-2.73-40.44-2.1-1.01,.09-1.78,.16-2.23,.18-.09,0-.17,.01-.26,.03-.18,.03-.37,.06-.55,.09l-5.4,2.8s-.1,.03-.14,.05c-.39,.18-.81,.28-1.24,.28-.18,0-.35-.03-.53-.06-.29-.05-.58-.13-.85-.27l-2.63-1.36c-18.15,1.8-37.69,1.1-45.61,.69l-21.18-10.97,3.37-1.74c2.63,.74,23.87,6.53,48.5,6.53,1.39,0,2.79-.03,4.2-.06l-3.81-1.97-3.99-2.07c-13.76-.34-26.24-2.38-34.36-4.05-2.01-.41-3.76-.81-5.19-1.15l14.76-7.64-6.52-3.38-24.85,12.87c-1,.52-1.62,1.54-1.62,2.66s.62,2.15,1.62,2.66l77.33,40.04c.43,.22,.91,.34,1.38,.34s.95-.11,1.38-.34l77.33-40.04c1-.52,1.62-1.54,1.62-2.66s-.62-2.15-1.62-2.66Zm-54.19,26.64l-24.51,12.69-17.84-9.24c.38-.16,.8-.33,1.24-.51,7.65-3.03,23.57-7.66,41.31-3.06l-.2,.1Zm5.31-2.75c-25.16-8.41-47.3,1.42-52.19,3.86l-18.89-9.78c3.15,.09,6.75,.15,10.66,.15,11.16,0,24.7-.52,36.56-2.42,.65-.1,1.31-.21,1.95-.32,.5-.03,1.27-.1,2.28-.19,5.96-.54,20.16-1.82,33.52,.7,.39,.07,.77,.14,1.16,.22l-15.04,7.79Z"/><path class="g" d="M178.71,97.34l-24.85-12.87-3.26,1.69-3.26,1.69,23.47,12.16-23.47,12.16-3.6,1.86-2.93,1.51-.28,.15-1.52,.79-1.87,.97-19.45,10.07-5.11,2.65-.28,.14-6.34,3.28-5.96,3.09-3.23-1.68-3.26-1.69-3.4-1.76-4.52-2.34-23.54-12.19-2.84-1.47-3.77-1.95-2.76-1.43-2.11-1.09,4.96-3.24,2.43,1.59,4.07,2.66c.34,.22,.72,.33,1.09,.33,.65,0,1.29-.32,1.68-.91,.6-.92,.34-2.16-.58-2.77l-2.17-1.42-3.13-2.04,5.3-3.46c.93-.6,1.19-1.84,.58-2.77-.6-.92-1.84-1.19-2.77-.58l-6.5,4.24-6.5-4.24c-.93-.61-2.17-.34-2.77,.58-.6,.92-.34,2.16,.58,2.77l5.3,3.46-5.3,3.46c-.11,.07-.22,.16-.31,.25l-17.33-8.97,23.47-12.16-3.26-1.69-3.26-1.69-24.85,12.87c-1,.52-1.62,1.54-1.62,2.66s.62,2.15,1.62,2.66l24.85,12.87,6.52,3.38,18.91,9.79,5.88,3.05,3.99,2.07,3.81,1.97,10.73,5.55,2.63,1.36c.27,.14,.56,.22,.85,.27,.59-.07,1.18-.14,1.77-.22,.05-.02,.1-.03,.14-.05l5.4-2.8,17.5-9.06,.5-.26,4.14-2.14,4.39-2.27,14.02-7.26,.33-.17,2.13-1.1,4.06-2.1,24.85-12.87c1-.52,1.62-1.54,1.62-2.66s-.62-2.15-1.62-2.66Z"/><path class="g" d="M109.33,118.47c-.38-.68-.87-1.31-1.47-1.86-.51-.48-1.1-.9-1.75-1.26-.3-.17-.61-.33-.94-.47-1.49-.66-3.22-1.04-5.09-1.04s-3.75,.42-5.28,1.13c-.75,.35-1.43,.77-2.03,1.25-.75,.6-1.36,1.3-1.82,2.07-.38,.63-.65,1.3-.8,2.01-.09,.43-.15,.86-.15,1.31,0,4.36,4.43,7.77,10.08,7.77s10.08-3.41,10.08-7.77c0-1.12-.3-2.18-.83-3.13Zm-9.25,6.9c-3.24,0-6.08-1.76-6.08-3.77,0-.52,.19-1.02,.53-1.48,.97-1.32,3.15-2.29,5.55-2.29,1.62,0,3.15,.44,4.26,1.14,1.11,.69,1.81,1.63,1.81,2.63,0,2.01-2.84,3.77-6.08,3.77Z"/><path class="g" d="M144.87,109.21c5.65,0,10.08-3.41,10.08-7.77s-4.43-7.77-10.08-7.77-10.08,3.41-10.08,7.77,4.43,7.77,10.08,7.77Zm0-11.54c3.24,0,6.08,1.76,6.08,3.77s-2.84,3.77-6.08,3.77-6.08-1.76-6.08-3.77,2.84-3.77,6.08-3.77Z"/><path class="h" d="M178.71,66.27L101.38,26.22c-.87-.45-1.89-.45-2.76,0L21.29,66.27c-1,.52-1.62,1.54-1.62,2.66s.62,2.15,1.62,2.66l24.85,12.87,3.26,1.69,3.26,1.69,23.47,12.16,6.52,3.38,15.96,8.26c.43,.22,.91,.34,1.38,.34s.95-.11,1.38-.34l15.96-8.26,6.52-3.38,23.47-12.16,3.26-1.69,3.26-1.69,24.85-12.87c1-.52,1.62-1.54,1.62-2.66s-.62-2.15-1.62-2.66Zm-31.37,14.82l-3.26,1.69-3.26,1.69-14.12,7.31-4.08,2.11-5.27,2.73-4.92,2.55-1.6,.83-1.26,.65-2.31,1.19-5.77,2.99-1.48,.77-1.17-.6-4.03-2.09-5.4-2.8-.16-.08-.05-.03-.94-.49-5.58-2.89-3.84-1.99-6.03-3.12c.1-.26,.16-.54,.14-.84-.06-1.1-.98-1.95-2.1-1.89-.66,.03-1.31,.07-1.98,.09-.28,.01-.54,.08-.78,.2l-8.88-4.6-3.26-1.69-3.26-1.69-23.47-12.16,31.69-16.41c.18,.03,.36,.05,.54,.09,.12,.02,.24,.03,.36,.03,.93,0,1.76-.66,1.95-1.59l36.26-18.78,3.48,1.8c-.87,.67-1.05,1.91-.39,2.79,.39,.52,.99,.8,1.6,.8,.42,0,.84-.13,1.2-.4,.97-.72,1.52-1.11,1.56-1.14l19.65,10.17c-.13,.21-.23,.45-.27,.72l-.33,1.97c-.18,1.09,.55,2.12,1.64,2.3,.11,.02,.22,.03,.33,.03,.96,0,1.81-.69,1.97-1.67l.25-1.49,29,15.02c-.1,.06-.18,.11-.29,.18-.94,.58-1.22,1.82-.64,2.75,.38,.61,1.03,.94,1.7,.94,.36,0,.73-.1,1.06-.3,1.17-.73,1.77-1.14,1.77-1.14,.15-.11,.28-.23,.39-.37l7.14,3.7-23.47,12.16Z"/></g></svg>