<?xml version="1.0" encoding="UTF-8"?><svg xmlns="http://www.w3.org/2000/svg" viewBox="0 0 200 200"><defs><style>.g{fill:red;}.h{fill:#34bab5;}</style></defs><g id="a"><g id="b"/></g><g id="c"/><g id="d"><g id="e"/></g><g id="f"><polygon class="g" points="107.84 161.1 106.1 167.1 115.32 167.1 115.57 161.1 107.84 161.1"/><path class="g" d="M57.62,38.1h71.01v14.7c0,1.66,1.34,3,3,3h15.99v84.81l6,.55V51.1c0-.91-.41-1.77-1.12-2.34l-19.99-16c-.53-.43-1.19-.66-1.88-.66H54.62c-1.66,0-3,1.34-3,3v58.79l6-3.65V38.1Zm77.01,4.04l9.57,7.66h-9.57v-7.66Z"/><path class="g" d="M117,58c1.66,0,3-1.34,3-3s-1.34-3-3-3h-46c-1.66,0-3,1.34-3,3s1.34,3,3,3h46Z"/><path class="g" d="M136.06,69c0-1.66-1.34-3-3-3h-60.06c-1.66,0-3,1.34-3,3s1.34,3,3,3h60.06c1.66,0,3-1.34,3-3Z"/><path class="g" d="M137,82c0-1.66-1.34-3-3-3h-48c-1.66,0-3,1.34-3,3s1.34,3,3,3h48c1.66,0,3-1.34,3-3Z"/><path class="g" d="M137,97c0-1.66-1.34-3-3-3h-36c-1.66,0-3,1.34-3,3s1.34,3,3,3h36c1.66,0,3-1.34,3-3Z"/><path class="g" d="M137,112c0-1.66-1.34-3-3-3h-31c-1.66,0-3,1.34-3,3s1.34,3,3,3h31c1.66,0,3-1.34,3-3Z"/><path class="h" d="M113.55,133.43c-.28-.29-.63-.53-1.02-.69l-18.33-7.49-.35-.15c.09-.28,.14-.58,.14-.89v-16.23c0-.07-.02-.13-.02-.19,0-.09-.01-.17-.03-.26-.02-.14-.05-.27-.09-.41-.02-.07-.04-.14-.07-.21-.06-.16-.14-.31-.23-.46-.02-.03-.03-.07-.05-.1l-9.09-14.02c-.51-.79-1.37-1.3-2.32-1.36l-22.21-1.48c-.62-.04-1.23,.11-1.76,.43l-.52,.32-6,3.65-11.65,7.1s-.03,.02-.04,.03c-.2,.13-.39,.28-.55,.44-.03,.03-.06,.07-.09,.1-.13,.14-.24,.3-.34,.46-.03,.06-.07,.12-.1,.18-.08,.17-.15,.34-.2,.52-.01,.05-.03,.1-.05,.15-.05,.22-.08,.44-.08,.67v17.7l-14.35,1.3c-1.06,.1-1.99,.74-2.44,1.7l-6.64,14.02s0,.03-.02,.05c-.09,.2-.16,.42-.21,.64-.01,.05,0,.11-.02,.16-.02,.14-.05,.29-.05,.44v16.23c0,.67,.23,1.31,.62,1.82l9.43,21.46c.44,1.01,1.41,1.7,2.51,1.78l51.12,4.04,1.05,.08,.22,.02c.08,0,.16,0,.24,0,.58,0,1.15-.17,1.64-.49l23-15c.6-.39,1.04-.99,1.24-1.68l.21-.74,1.74-6,7.04-24.26c.39-1.33-.19-2.72-1.33-3.4Zm-53.1-37.89l19.76,1.31,6.11,9.43-3.2,.99-18.06,5.58-15.97-8.63-1.54-.83,12.9-7.85Zm27.55,16.51v9.98l-.66,.21-4.3,1.38-4.3,1.38-10.99,3.53v-10.23l1.89-.58,4.37-1.35,13.98-4.32Zm-43.47-3.46l16.4,8.86,.82,.44v9.78l-4.21-1.54-3.75-1.37-3.75-1.37-5.51-2.01v-12.79Zm-6.72,45l2.24-8.43c.04-.14,.05-.28,.07-.42l20.16-8.76v14.83l-10.35,3.3-5.31,1.69-5.23,1.67-2.84,.9,1.07-4.03,.2-.74Zm-11.38-25.21l13.86-1.26,1.77,.64,3.76,1.36,3.77,1.36,4.53,1.63-7.78,3.38-2.75,1.2-4.4,1.91-1.19,.52-2.32-.29-6.68-.85-6.71-.85,4.14-8.73Zm-5.62,25.55v-10.96l10,1.27,3.17,.4-.36,1.36-1.14,4.29-2.2,8.27-6.07-2.98-3.15-1.55-.25-.12Zm8.83,21.09l-5.65-12.85,6.91,3.39h.02s.05,.02,.07,.04c.15,.07,.31,.14,.48,.18,.02,0,.03,0,.04,0,.23,.06,.46,.09,.68,.09,.01,0,.03,0,.04,0,.06,0,.12-.01,.18-.02,.1,0,.19,0,.29-.02,.08-.01,.15-.04,.23-.05,.07-.02,.14-.03,.22-.05l16.92-5.39,3.55,.94,13.48,3.58,1.15,2.23,5.88,11.43-44.5-3.51Zm71.95-13.91l-1.16,4-3.07,2-16.74,10.92-5.62-10.92-1.71-3.33,10.69-2.67,8.75-2.19c.55-.14,1.06-.43,1.45-.85l11.96-12.62-4.54,15.65Zm3.52-23.29l-14.69,15.5-22.4,5.6-7.33-1.95,3.49-1.11c1.24-.4,2.09-1.55,2.09-2.86v-17.71c.14-.02,.27-.05,.41-.1l20.34-6.54,4.85,2.13,14.35,5.87-1.1,1.16Z"/><path class="h" d="M166.57,158.46c0-.19-.02-.38-.06-.57h0c-.04-.22-.12-.42-.21-.63,0-.02,0-.03-.02-.05l-6.64-14.02c-.45-.96-1.38-1.61-2.44-1.7l-3.59-.33-6-.55-6.65-.6c-.44-.04-.88,.01-1.29,.17l-21.56,7.78c-.65,.23-1.18,.68-1.53,1.25-.35,.47-.58,1.04-.6,1.67l-.43,10.23-.25,6-.2,4.69c-.06,1.35,.8,2.57,2.09,2.99l31,9.88h0c.07,.02,.15,.04,.22,.06,.08,.02,.17,.05,.25,.06,.06,.01,.13,.01,.2,.02,.09,0,.18,.02,.27,.02,.2,0,.4-.03,.6-.07,.05,0,.09-.02,.14-.03,.14-.04,.28-.09,.41-.15,.06-.02,.12-.03,.17-.06l14.43-7.08c1.03-.5,1.68-1.55,1.68-2.69v-16.23s0-.03,0-.04Zm-.08,.68s-.02,.1-.03,.15c.01-.05,.02-.1,.03-.15Zm-25.4-13.09l13.86,1.26,4.14,8.73-5.76,.73-9.96,1.27-11.03-4.8-5.08-2.21,13.83-4.99Zm-19.89,23.71l.11-2.66,.25-6,.25-5.89,13.54,5.89,5.1,2.22,1.13,3.78,3.04,10.12-23.43-7.47Zm39.37,3.1l-9.57,4.7-3.14-10.46-1.03-3.45,6.5-.83,7.25-.92v10.96Z"/></g></svg>