<?xml version="1.0" encoding="UTF-8"?><svg xmlns="http://www.w3.org/2000/svg" viewBox="0 0 200 200"><defs><style>.g{fill:none;}.h{fill:red;}.i{fill:#34bab5;}</style></defs><g id="a"><g id="b"/></g><g id="c"/><g id="d"><g id="e"/></g><g id="f"><g><path class="i" d="M98.64,137.36c-.07-.04-.15-.08-.22-.12-.07,.04-.15,.08-.22,.12h.44Z"/><g><path class="i" d="M117.83,77.63c-1.31-1.01-3.19-.77-4.21,.54l-3.39,4.38-12.84,16.61-5.93-8.3-.36-.5c-.96-1.35-2.83-1.66-4.18-.7-1.35,.96-1.66,2.84-.7,4.18l8.63,12.09c.55,.77,1.44,1.24,2.38,1.26,.02,0,.04,0,.06,0,.93,0,1.8-.43,2.37-1.17l18.71-24.18c1.01-1.31,.77-3.19-.54-4.21Z"/><g><path class="g" d="M136.25,41.34c5.17-2.21,7.58-8.22,5.37-13.4-1.65-3.87-5.43-6.19-9.4-6.19-1.34,0-2.69,.26-4,.82-2.51,1.07-4.45,3.05-5.46,5.58s-.98,5.3,.09,7.81c1.07,2.51,3.05,4.45,5.58,5.46,2.53,1.01,5.31,.99,7.81-.09Z"/><path class="g" d="M61.16,64.3c-.03,9.2,1.94,48.84,36.42,69.03,.51,.3,1.16,.3,1.67,0,34.49-20.19,36.45-59.83,36.42-69.03l-9.19-3.3-3.29-1.18-.6-.22-3.01,6.1-5.38-2.65,2.71-5.49-18.48-6.63-37.26,13.36Z"/><path class="h" d="M132.24,48.17c2.16,0,4.32-.44,6.37-1.31,8.22-3.51,12.04-13.06,8.53-21.27-3.51-8.22-13.06-12.04-21.27-8.53-8.22,3.51-12.04,13.06-8.53,21.27,1.21,2.84,3.17,5.2,5.64,6.92l-3.41,6.91,5.68,2.04,3.2-6.49c1.25,.3,2.52,.47,3.79,.47Zm-9.39-12.2c-1.07-2.51-1.1-5.28-.09-7.81s2.95-4.51,5.46-5.58c1.3-.56,2.66-.82,4-.82,3.96,0,7.74,2.32,9.4,6.19,2.21,5.17-.2,11.18-5.37,13.4-2.5,1.07-5.28,1.1-7.81,.09-2.53-1.01-4.51-2.95-5.58-5.46Z"/><path class="i" d="M141.62,61.98c-.08-1.19-.86-2.22-1.98-2.63l-7.74-2.77-3.29-1.18-3.29-1.18-.06-.02-5.68-2.04-19.98-7.16c-.33-.12-.67-.18-1.01-.18h-.32c-.34,0-.69,.06-1.01,.18l-37.51,13.45-2.54,.91c-.2,.07-.38,.17-.55,.27-.82,.5-1.36,1.37-1.43,2.35,0,.05-.01,.19-.02,.41-.11,2.39-.41,14.62,3.91,29.43,3.25,11.15,8.37,20.98,15.11,29.26,.63,.78,1.28,1.54,1.94,2.29,.66,.75,1.33,1.5,2.02,2.22,5.14,5.37,11.06,9.96,17.71,13.68,.56,.67,1.39,1.08,2.31,1.08h.44c.92,0,1.75-.41,2.31-1.08,5.63-3.15,10.74-6.92,15.3-11.27,.74-.71,1.46-1.44,2.18-2.18,.71-.73,1.39-1.49,2.07-2.25,7.78-8.75,13.61-19.4,17.2-31.64,.01-.04,.02-.07,.04-.11,.33-1.13,.63-2.23,.9-3.33,.29-1.15,.56-2.28,.8-3.39,2.81-12.96,2.22-22.65,2.19-23.12Zm-42.37,71.36c-.51,.3-1.16,.3-1.67,0-34.49-20.19-36.45-59.83-36.42-69.03l37.26-13.36,18.48,6.63,2.99,1.07,2.69,.97,.6,.22,3.29,1.18,9.19,3.3c.03,9.2-1.94,48.84-36.42,69.03Z"/></g></g><g><path class="h" d="M76.16,123.38c-.66-.75-1.31-1.52-1.94-2.29l-25.62,23.48c-2.86-1.73-6.2-2.75-9.79-2.75-10.45,0-18.96,8.5-18.96,18.96s8.5,18.96,18.96,18.96,18.96-8.5,18.96-18.96c0-4.69-1.72-8.98-4.56-12.3l24.96-22.88c-.69-.72-1.36-1.47-2.02-2.22Zm-37.34,50.35c-7.15,0-12.96-5.81-12.96-12.96s5.81-12.96,12.96-12.96,12.96,5.81,12.96,12.96-5.81,12.96-12.96,12.96Z"/><path class="h" d="M153.82,135.21c-3.48,0-6.69,1.2-9.24,3.19l-24.08-14.82c-.68,.76-1.36,1.52-2.07,2.25-.71,.74-1.44,1.47-2.18,2.18l24.37,15c-1.21,2.17-1.9,4.66-1.9,7.31,0,8.33,6.78,15.11,15.11,15.11s15.11-6.78,15.11-15.11-6.78-15.11-15.11-15.11Zm0,24.21c-5.02,0-9.11-4.08-9.11-9.11s4.08-9.11,9.11-9.11,9.11,4.08,9.11,9.11-4.08,9.11-9.11,9.11Z"/><path class="h" d="M32.76,48.3c2.21,0,4.27-.62,6.04-1.68l16.39,15.78c.01-.22,.02-.37,.02-.41,.06-.98,.61-1.85,1.43-2.35,.17-.11,.36-.2,.55-.27l2.54-.91-16.73-16.11c.99-1.72,1.56-3.71,1.56-5.84,0-6.51-5.29-11.8-11.8-11.8s-11.8,5.29-11.8,11.8,5.29,11.8,11.8,11.8Zm0-17.61c3.2,0,5.8,2.6,5.8,5.8s-2.6,5.8-5.8,5.8-5.8-2.6-5.8-5.8,2.6-5.8,5.8-5.8Z"/><path class="h" d="M180.83,76.5c-.53-3.11-2.24-5.83-4.81-7.65-2.57-1.82-5.7-2.54-8.81-2.01-3.11,.53-5.82,2.24-7.65,4.81-1.63,2.29-2.36,5.03-2.13,7.8l-18.01,5.65c-.24,1.11-.5,2.24-.8,3.39-.28,1.09-.58,2.2-.9,3.33-.01,.04-.02,.07-.04,.11l21.75-6.82c2.16,3.17,5.8,5.18,9.75,5.18,.65,0,1.32-.05,1.99-.17,3.11-.53,5.83-2.24,7.65-4.81,1.82-2.57,2.54-5.7,2.01-8.81Zm-6.9,5.34c-.9,1.26-2.23,2.1-3.76,2.36-1.53,.26-3.07-.09-4.33-.99-1.26-.9-2.1-2.23-2.36-3.76-.26-1.53,.09-3.07,.99-4.33,.9-1.26,2.23-2.1,3.76-2.36,.33-.06,.65-.08,.98-.08,2.78,0,5.24,2,5.72,4.83h0c.26,1.53-.09,3.07-.99,4.33Z"/></g></g></g></svg>