<?xml version="1.0" encoding="UTF-8"?><svg xmlns="http://www.w3.org/2000/svg" viewBox="0 0 200 200"><defs><style>.g{fill:red;}.h{fill:#34bab5;}</style></defs><g id="a"><g id="b"/></g><g id="c"/><g id="d"><g id="e"/></g><g id="f"><path class="h" d="M153.47,109.14c-2.72-24.49-16.51-47.96-27.6-63.34-11.95-16.57-23.1-27.27-23.57-27.72-.64-.61-1.48-.87-2.3-.81-.82-.07-1.67,.2-2.31,.81-.47,.45-11.62,11.15-23.57,27.72-11.09,15.38-24.88,38.85-27.6,63.36-1.54,14.53,2.96,28.47,12.67,39.26,10.23,11.37,24.83,17.9,40.05,17.9,.26,0,.51-.04,.75-.1,.24,.06,.49,.1,.75,.1,15.22,0,29.82-6.52,40.05-17.9,9.71-10.79,14.21-24.74,12.67-39.28Zm-17.13,35.26c-8.96,9.96-22.27,15.91-35.59,15.91-.26,0-.51,.04-.75,.1-.24-.06-.49-.1-.75-.1-13.33,0-26.63-5.95-35.59-15.91-8.56-9.51-12.52-21.8-11.17-34.6,4.36-39.26,39.08-76.92,47.5-85.54,8.43,8.62,43.14,46.28,47.5,85.53,1.36,12.81-2.61,25.11-11.16,34.62Z"/><path class="g" d="M122.59,104.45c-7.96,0-14.45,6.48-14.45,14.45,0,3.51,1.26,6.73,3.35,9.23l-7.51,9.28-.2-25.95,12.44-15.61c.98,.32,2.02,.49,3.11,.49,5.59,0,10.13-4.54,10.13-10.13s-4.54-10.13-10.13-10.13-10.13,4.54-10.13,10.13c0,2.32,.79,4.46,2.12,6.17l-7.6,9.54-.18-23.41c6.28-1.57,10.94-7.24,10.94-14,0-7.96-6.48-14.44-14.45-14.44s-14.45,6.48-14.45,14.44c0,7.11,5.17,13.03,11.95,14.21l.31,40.95-8.91-10.69c2.34-2.57,3.79-5.97,3.79-9.71,0-7.96-6.48-14.44-14.45-14.44s-14.45,6.48-14.45,14.44,6.48,14.45,14.45,14.45c2.05,0,4.01-.44,5.78-1.21l13.86,16.63,.39,50.64c.01,1.65,1.35,2.98,3,2.98h.02c1.66-.01,2.99-1.37,2.98-3.02l-.25-32.87,12.16-15.02c1.93,.95,4.09,1.5,6.38,1.5,7.96,0,14.44-6.48,14.44-14.45s-6.48-14.45-14.44-14.45Zm-3.26-22.37c2.28,0,4.13,1.85,4.13,4.13s-1.85,4.13-4.13,4.13-4.13-1.85-4.13-4.13,1.85-4.13,4.13-4.13Zm-49.5,17.19c0-4.66,3.79-8.44,8.45-8.44s8.45,3.79,8.45,8.44-3.79,8.45-8.45,8.45-8.45-3.79-8.45-8.45Zm21.75-34.75c0-4.66,3.79-8.44,8.45-8.44s8.45,3.79,8.45,8.44-3.79,8.45-8.45,8.45-8.45-3.79-8.45-8.45Zm31.01,62.83c-4.66,0-8.45-3.79-8.45-8.45s3.79-8.45,8.45-8.45,8.44,3.79,8.44,8.45-3.79,8.45-8.44,8.45Z"/></g></svg>