<?xml version="1.0" encoding="UTF-8"?><svg xmlns="http://www.w3.org/2000/svg" viewBox="0 0 200 200"><defs><style>.g{fill:red;}.h{fill:#34bab5;}</style></defs><g id="a"><g id="b"/></g><g id="c"/><g id="d"><g id="e"/></g><g id="f"><path class="g" d="M151.86,60.34c-2.11,0-4.23-.36-6.28-1.09l-7.69-2.86-3.68-1.48c-.76-.08-2.55,.01-3.42,2.2-.62,1.54-2.36,2.29-3.9,1.67-1.54-.62-2.29-2.36-1.67-3.9,2.32-5.79,7.8-6.34,10.37-5.83,.18,.04,.36,.09,.53,.16l3.93,1.58,7.57,2.81c3.18,1.13,6.66,.94,9.74-.53,3.09-1.47,5.41-4.06,6.56-7.29l.99-2.79c.36-1.03,.31-2.14-.16-3.13-.47-.99-1.3-1.73-2.33-2.09-1.65-.58-3.45-.07-4.54,1.28l-.3,.53c-.77,1.35-2.44,1.88-3.85,1.24-1.41-.65-2.1-2.26-1.58-3.73,1.29-3.64-.63-7.66-4.27-8.95-1.77-.63-3.67-.53-5.36,.28-1.69,.81-2.96,2.22-3.59,3.99l-.56,1.57c-.55,1.56-2.27,2.38-3.83,1.83l-2.58-.91c-2.42-.86-4.75,.56-5.04,1.36-.05,.13-.1,.25-.16,.37l-8.67,16.48c-.77,1.47-2.58,2.03-4.05,1.26-1.47-.77-2.03-2.58-1.26-4.05l8.59-16.33c1.55-3.8,7.05-6.59,12.41-4.81,1.27-2.7,3.42-4.87,6.15-6.17,3.14-1.5,6.67-1.68,9.94-.52,4.38,1.55,7.41,5.21,8.36,9.44,1.98-.58,4.14-.54,6.19,.19,2.54,.9,4.58,2.73,5.74,5.17,1.16,2.43,1.31,5.17,.41,7.71l-.99,2.79c-1.68,4.74-5.09,8.54-9.63,10.7-2.57,1.23-5.32,1.84-8.09,1.84Z"/><path class="g" d="M91,57c-.5,0-1.01-.13-1.48-.39-1.44-.82-1.94-2.65-1.12-4.09l4.09-7.18-4.52-.62c-.95-.13-1.77-.7-2.23-1.54-.46-.84-.49-1.84-.08-2.71l5.83-12.42c.7-1.5,2.49-2.14,3.99-1.44,1.5,.7,2.15,2.49,1.44,3.99l-4.09,8.72,4.87,.67c.99,.14,1.84,.75,2.28,1.64s.41,1.95-.08,2.81l-6.28,11.03c-.55,.97-1.57,1.52-2.61,1.52Z"/><path class="g" d="M72,57c-.06,0-.12,0-.18,0-1.65-.1-2.91-1.52-2.81-3.17l.52-8.59-4.57,1.32c-.92,.27-1.91,.08-2.66-.51s-1.19-1.49-1.17-2.44l.31-13.71c.04-1.63,1.37-2.93,3-2.93,.02,0,.05,0,.07,0,1.66,.04,2.97,1.41,2.93,3.07l-.22,9.63,4.73-1.36c.93-.27,1.94-.07,2.71,.54,.76,.61,1.18,1.55,1.12,2.52l-.78,12.83c-.1,1.59-1.42,2.82-2.99,2.82Z"/><path class="g" d="M58,61c-.78,0-1.56-.3-2.15-.91l-6.14-6.31-2.4,4.34c-.46,.84-1.29,1.4-2.24,1.52-.95,.12-1.9-.21-2.55-.9l-9.48-9.91c-1.15-1.2-1.1-3.1,.1-4.24,1.2-1.14,3.1-1.1,4.24,.1l6.66,6.96,2.38-4.3c.46-.83,1.29-1.4,2.23-1.52,.94-.13,1.89,.2,2.55,.88l8.96,9.21c1.16,1.19,1.13,3.09-.06,4.24-.58,.57-1.34,.85-2.09,.85Z"/><path class="h" d="M73,130c-6.07,0-11,4.93-11,11,0,3.72,1.86,7.01,4.7,9,1.48,1.04,3.22,1.72,5.1,1.93,.4,.04,.8,.07,1.21,.07,6.07,0,11-4.93,11-11s-4.93-11-11-11Zm0,16c-2.76,0-5-2.24-5-5s2.24-5,5-5,5,2.24,5,5-2.24,5-5,5Z"/><path class="h" d="M127,130c-6.07,0-11,4.93-11,11s4.93,11,11,11c.41,0,.81-.03,1.21-.07,1.88-.21,3.62-.89,5.1-1.93,2.83-1.99,4.7-5.28,4.7-9,0-6.07-4.93-11-11-11Zm0,16c-2.76,0-5-2.24-5-5s2.24-5,5-5,5,2.24,5,5-2.24,5-5,5Z"/><path class="h" d="M126.28,64h-53.55c-11.98,0-21.72,9.75-21.72,21.72v60.55c0,4.01,1.1,7.77,3,11v12.73c0,4.96,4.04,9,9,9s9-4.04,9-9v-2.02c.24,0,.48,.02,.72,.02h53.55c.58,0,1.15-.03,1.72-.07v2.07c0,4.96,4.04,9,9,9s9-4.04,9-9v-14.64c1.28-2.77,2-5.84,2-9.09v-60.55c0-11.98-9.75-21.72-21.72-21.72Zm-53.55,6h53.55c5.86,0,10.98,3.23,13.68,8H59.04c2.7-4.77,7.82-8,13.68-8Zm-6.72,100c0,1.65-1.35,3-3,3s-3-1.35-3-3v-6.13c1.81,1.31,3.83,2.35,6,3.06v3.07Zm74,0c0,1.65-1.35,3-3,3s-3-1.35-3-3v-3.42c2.19-.84,4.21-2.02,6-3.48v6.9Zm2-50v26.28c0,1.29-.17,2.53-.46,3.72-.54,2.22-1.55,4.26-2.93,6-1.26,1.6-2.83,2.95-4.61,3.96-1.81,1.03-3.84,1.71-6,1.94-.57,.06-1.14,.1-1.72,.1h-53.55c-.24,0-.48-.03-.72-.04-2.14-.1-4.17-.62-6-1.5-2.2-1.05-4.11-2.58-5.61-4.47-1.38-1.74-2.38-3.78-2.93-6-.29-1.2-.46-2.44-.46-3.72v-27.28h85v1Zm0-7H57v-27.28c0-.58,.04-1.16,.1-1.72h84.8c.06,.57,.1,1.14,.1,1.72v27.28Z"/><path class="h" d="M92,140h16c1.66,0,3-1.34,3-3s-1.34-3-3-3h-16c-1.66,0-3,1.34-3,3s1.34,3,3,3Z"/><path class="h" d="M92,148h16c1.66,0,3-1.34,3-3s-1.34-3-3-3h-16c-1.66,0-3,1.34-3,3s1.34,3,3,3Z"/></g></svg>