<?xml version="1.0" encoding="UTF-8"?><svg xmlns="http://www.w3.org/2000/svg" viewBox="0 0 200 200"><defs><style>.g{fill:red;}.h{fill:#34bab5;}</style></defs><g id="a"><g id="b"/></g><g id="c"/><g id="d"><g id="e"/></g><g id="f"><g><g><path class="h" d="M74.24,35.79h-5.6c-1.66,0-3,1.34-3,3s1.34,3,3,3h5.6c1.66,0,3-1.34,3-3s-1.34-3-3-3Z"/><path class="h" d="M74.24,49.98h-5.6c-1.66,0-3,1.34-3,3s1.34,3,3,3h5.6c1.66,0,3-1.34,3-3s-1.34-3-3-3Z"/><path class="h" d="M74.24,64.16h-5.6c-1.66,0-3,1.34-3,3s1.34,3,3,3h5.6c1.66,0,3-1.34,3-3s-1.34-3-3-3Z"/><path class="h" d="M74.24,78.34h-5.6c-1.66,0-3,1.34-3,3s1.34,3,3,3h5.6c1.66,0,3-1.34,3-3s-1.34-3-3-3Z"/><path class="h" d="M86.56,41.79h5.6c1.66,0,3-1.34,3-3s-1.34-3-3-3h-5.6c-1.66,0-3,1.34-3,3s1.34,3,3,3Z"/><path class="h" d="M92.16,49.98h-5.6c-1.66,0-3,1.34-3,3s1.34,3,3,3h5.6c1.66,0,3-1.34,3-3s-1.34-3-3-3Z"/><path class="h" d="M92.16,64.16h-5.6c-1.66,0-3,1.34-3,3s1.34,3,3,3h5.6c1.66,0,3-1.34,3-3s-1.34-3-3-3Z"/><path class="h" d="M92.16,78.34h-5.6c-1.66,0-3,1.34-3,3s1.34,3,3,3h5.6c1.66,0,3-1.34,3-3s-1.34-3-3-3Z"/></g><g><path class="h" d="M127.87,64.16h-5.6c-1.66,0-3,1.34-3,3s1.34,3,3,3h5.6c1.66,0,3-1.34,3-3s-1.34-3-3-3Z"/><path class="h" d="M127.87,78.34h-5.6c-1.66,0-3,1.34-3,3s1.34,3,3,3h5.6c1.66,0,3-1.34,3-3s-1.34-3-3-3Z"/><path class="h" d="M140.19,70.16h5.6c1.66,0,3-1.34,3-3s-1.34-3-3-3h-5.6c-1.66,0-3,1.34-3,3s1.34,3,3,3Z"/><path class="h" d="M145.78,78.34h-5.6c-1.66,0-3,1.34-3,3s1.34,3,3,3h5.6c1.66,0,3-1.34,3-3s-1.34-3-3-3Z"/></g></g><path class="g" d="M142.44,103.43h-23.83c-1.35-5.21-6.08-9.07-11.7-9.07s-10.35,3.86-11.7,9.07h-26.57c-1.66,0-3,1.34-3,3s1.34,3,3,3h26.55c1.33,5.24,6.07,9.13,11.72,9.13s10.39-3.89,11.72-9.13h23.81c1.66,0,3-1.34,3-3s-1.34-3-3-3Zm-30.2,6c-1.04,1.87-3.04,3.13-5.33,3.13s-4.28-1.27-5.32-3.13c-.49-.88-.77-1.89-.77-2.97v-.03c0-1.09,.3-2.11,.81-3,1.05-1.83,3.03-3.07,5.28-3.07s4.23,1.24,5.29,3.07c.51,.89,.81,1.91,.81,3v.03c0,1.08-.28,2.09-.77,2.97Z"/><path class="g" d="M141.28,149.61h-9.3c-1.34-5.22-6.07-9.1-11.71-9.1s-10.37,3.88-11.71,9.1h-39.92c-1.66,0-3,1.34-3,3s1.34,3,3,3h39.92c1.34,5.22,6.07,9.1,11.71,9.1s10.37-3.88,11.71-9.1h9.3c1.66,0,3-1.34,3-3s-1.34-3-3-3Zm-15.7,6c-1.05,1.85-3.03,3.1-5.3,3.1s-4.26-1.25-5.31-3.1c-.5-.89-.79-1.91-.79-3h0c0-1.09,.29-2.11,.8-3,1.05-1.85,3.03-3.1,5.31-3.1s4.26,1.25,5.3,3.1c.5,.89,.8,1.91,.8,3h0c0,1.09-.29,2.11-.79,3Z"/><path class="g" d="M141.28,126.54h-51.45c-1.34-5.22-6.07-9.1-11.71-9.1-6.67,0-12.1,5.43-12.1,12.1s5.43,12.1,12.1,12.1c5.63,0,10.37-3.88,11.71-9.1h51.45c1.66,0,3-1.34,3-3s-1.34-3-3-3Zm-57.85,6c-1.05,1.85-3.03,3.1-5.31,3.1s-4.26-1.25-5.3-3.1c-.5-.89-.79-1.91-.79-3s.29-2.11,.79-3c1.05-1.85,3.03-3.1,5.3-3.1s4.26,1.25,5.31,3.1c.5,.89,.79,1.91,.79,3s-.29,2.11-.79,3Z"/><path class="h" d="M160.46,41.39h-50.74V22c0-1.66-1.34-3-3-3H53.25c-1.66,0-3,1.34-3,3V174c0,1.66,1.34,3,3,3h107.21c1.66,0,3-1.34,3-3V44.39c0-1.66-1.34-3-3-3Zm-3,129.61H56.25V25h47.47v57.46c0,1.66,1.34,3,3,3s3-1.34,3-3V47.39h47.74v123.61Z"/></g></svg>