<?xml version="1.0" encoding="UTF-8"?><svg xmlns="http://www.w3.org/2000/svg" viewBox="0 0 200 200"><defs><style>.g{fill:red;}.h{fill:#34bab5;}</style></defs><g id="a"><g id="b"/></g><g id="c"/><g id="d"><g id="e"/></g><g id="f"><g><g><path class="g" d="M160.02,97.08c-1.66,0-2.99,1.34-2.99,3,0,.07,0,.13,0,.2v34.24l-57.03,32.93-57.03-32.93v-34.04c.02-.13,.03-.27,.03-.41,0-1.66-1.37-3-3.03-3s-3,1.34-3,3v36.18c0,1.07,.57,2.06,1.5,2.6l60.03,34.66c.46,.27,.98,.4,1.5,.4s1.04-.13,1.5-.4l60.03-34.66c.93-.54,1.5-1.53,1.5-2.6v-36.18c0-1.66-1.36-3-3.01-3Z"/><path class="g" d="M90.48,119.85h49c1.66,0,3-1.34,3-3s-1.34-3-3-3h-49c-1.66,0-3,1.34-3,3s1.34,3,3,3Z"/><path class="g" d="M90.48,131.85h49c1.66,0,3-1.34,3-3s-1.34-3-3-3h-49c-1.66,0-3,1.34-3,3s1.34,3,3,3Z"/></g><g><path class="h" d="M161.53,61.14L101.5,26.48c-.93-.54-2.07-.54-3,0L38.47,61.14c-.93,.54-1.5,1.53-1.5,2.6v36.18c0,.8,.32,1.56,.89,2.12,.56,.56,1.33,.88,2.12,.88h0l24.49-.06v12.99c0,1.21,.73,2.31,1.85,2.77,.37,.15,.76,.23,1.15,.23,.78,0,1.55-.3,2.12-.88l15.12-15.12,75.26,.07h.05c1.66,0,3-1.34,3-3V63.74c0-1.07-.57-2.06-1.5-2.6Zm-4.5,35.77l-73.55-.07h0c-.8,0-1.56,.32-2.12,.88l-10.88,10.88v-8.76c0-.8-.32-1.56-.88-2.12-.56-.56-1.32-.88-2.12-.88h0l-24.5,.06v-31.44l57.03-32.93,57.03,32.93v31.44Z"/><path class="h" d="M59.48,68.85c0,1.66,1.34,3,3,3h50c1.66,0,3-1.34,3-3s-1.34-3-3-3H62.48c-1.66,0-3,1.34-3,3Z"/><path class="h" d="M112.48,77.85H62.48c-1.66,0-3,1.34-3,3s1.34,3,3,3h50c1.66,0,3-1.34,3-3s-1.34-3-3-3Z"/></g></g></g></svg>