<?xml version="1.0" encoding="UTF-8"?><svg xmlns="http://www.w3.org/2000/svg" viewBox="0 0 200 200"><defs><style>.g{fill:red;}.h{fill:#34bab5;}</style></defs><g id="a"><g id="b"/></g><g id="c"/><g id="d"><g id="e"/></g><g id="f"><g><path class="h" d="M116.34,97l-2.61-10.45c2.54-1.44,4.47-3.93,5.08-7.02,1.1-5.61-2.56-11.07-8.17-12.18h0c-5.61-1.11-11.07,2.56-12.18,8.17-.54,2.72,.02,5.48,1.56,7.78,.71,1.06,1.61,1.96,2.62,2.68l-3.22,14.09-5.24,22.95c-.13,0-.27,.01-.4,.02l-4.8-22.96-4.81-23.02c.16-.09,.31-.19,.46-.29,2.76-1.85,4.63-4.67,5.28-7.93,1.33-6.73-3.07-13.29-9.81-14.62h0c-6.73-1.32-13.29,3.07-14.62,9.81-1.05,5.35,1.52,10.59,6,13.18l-3.97,13.94c-1.61,.02-3.19,.5-4.56,1.42-1.64,1.1-2.81,2.71-3.36,4.57h-26.23c.42,.98,.88,1.98,1.37,3h0c.48,.99,.99,1.99,1.54,3h23.81c.17,.35,.36,.7,.58,1.04,1.25,1.86,3.14,3.12,5.33,3.55,.54,.11,1.09,.16,1.64,.16,1.64,0,3.25-.49,4.64-1.42,1.86-1.25,3.12-3.14,3.55-5.33,.07-.35,.11-.69,.13-1.04,.13-1.85-.34-3.68-1.39-5.24-.4-.6-.88-1.14-1.41-1.61l4.1-14.38c.16,0,.31,.02,.47,.02,.23,0,.46-.01,.69-.03l4.43,21.22,5.19,24.86c-2.78,1.76-4.87,4.61-5.55,8.09-1.33,6.73,3.07,13.29,9.81,14.62,.81,.16,1.62,.24,2.43,.24,2.44,0,4.83-.72,6.91-2.11,2.76-1.85,4.63-4.67,5.28-7.93,1.12-5.69-1.85-11.23-6.86-13.62l5.52-24.16,2.55-11.17,2.79,11.16,.17,.67c.33,1.34,1.53,2.27,2.91,2.27h49.79c.54-1.01,1.05-2.01,1.53-3h0c.49-1.02,.95-2.02,1.37-3h-50.34Zm-46.39,2.98s-.03,.08-.04,.13c-.14,.57-.48,1.05-.97,1.38-.52,.35-1.15,.48-1.78,.36-.62-.12-1.16-.48-1.51-1-.14-.21-.24-.45-.31-.69,0-.01,0-.02-.01-.04-.09-.34-.11-.69-.04-1.05,.12-.62,.48-1.16,1-1.51,.39-.26,.85-.4,1.31-.4,.15,0,.31,.01,.46,.04h0c.27,.05,.52,.16,.75,.29,.3,.18,.56,.41,.76,.71,.35,.52,.48,1.16,.36,1.78Zm14.08-32.29c-.2,1.01-.63,1.93-1.24,2.72-.42,.53-.91,1-1.49,1.39-.37,.25-.76,.45-1.16,.62-1.16,.47-2.42,.6-3.68,.36-.18-.04-.36-.08-.54-.14-1.03-.3-1.94-.84-2.68-1.55-1.52-1.47-2.3-3.66-1.86-5.89,.6-3.07,3.31-5.2,6.32-5.2,.41,0,.83,.04,1.25,.12,3.49,.69,5.77,4.08,5.08,7.57Zm17,69c-.33,1.69-1.3,3.15-2.73,4.11-1.43,.96-3.15,1.3-4.84,.97-3.49-.69-5.77-4.08-5.08-7.57,.18-.92,.57-1.75,1.08-2.47,.67-.94,1.57-1.68,2.62-2.15,.81-.37,1.7-.59,2.62-.59,.38,0,.77,.04,1.16,.11,.03,0,.06,0,.08,.01,1.02,.2,1.94,.64,2.71,1.24,1.86,1.45,2.86,3.86,2.37,6.33Zm11.88-58.32c-.13,.66-.42,1.25-.79,1.76-.65,.87-1.6,1.48-2.67,1.69-.54,.1-1.1,.11-1.66,0-.37-.07-.71-.2-1.03-.36-.7-.33-1.31-.83-1.75-1.49-.31-.47-.53-.98-.64-1.52-.12-.57-.13-1.17-.02-1.76,.15-.75,.49-1.42,.95-1.97,.82-.96,2.03-1.55,3.33-1.55,.14,0,.28,.03,.41,.04,.14,.01,.29,.01,.43,.04,2.36,.47,3.91,2.77,3.44,5.13Z"/><path class="g" d="M29.06,102.05c8.58,18.04,27.41,40.87,66.34,66.82,1.38,.91,2.97,1.39,4.6,1.39s3.24-.48,4.62-1.4c56.51-37.67,70.66-68.75,72.58-88.18,1.48-15.02-3.6-25.86-8.63-32.67l-1.58-2.01-2.82-3.11c-8.48-8.48-19.47-13.15-30.94-13.15-12.36,0-24.3,5.52-33.24,15.26-8.94-9.74-20.88-15.26-33.24-15.26-11.47,0-22.45,4.67-30.94,13.15-5.7,5.7-14.96,18.18-13.02,37.8,.56,5.7,2.18,12.4,5.61,19.97m142.82-20.56c-.48,4.86-1.81,10.52-4.55,16.91-.42,.98-.88,1.98-1.37,3h0c-.47,.99-.98,1.99-1.53,3-8.84,16.54-26.99,37.2-62.5,60.87-.77,.51-1.81,.51-2.58,0-35.4-23.6-53.54-44.21-62.42-60.73-.55-1.01-1.06-2.02-1.54-3h0c-.49-1.02-.95-2.02-1.37-3-2.78-6.44-4.13-12.15-4.61-17.05-1.7-17.16,6.35-28.02,11.3-32.96,7.35-7.35,16.83-11.4,26.69-11.4,11.65,0,22.91,5.74,30.9,15.74l.68,.85c.85,1.07,2.48,1.07,3.34,0l.68-.85c7.99-10,19.26-15.74,30.9-15.74,9.68,0,18.99,3.89,26.27,10.98l.42,.42c4.95,4.95,12.99,15.81,11.3,32.96Z"/></g></g></svg>