<svg xmlns="http://www.w3.org/2000/svg" viewBox="0 0 200 200"><defs><style>.cls-1{fill:red;}.cls-2{fill:#00c8c7;}.cls-3{fill:none;}</style></defs><g id="pictos"><path class="cls-1" d="M162.49,104.76c0-.09,0-.17,0-.26a68,68,0,0,0-87-65.29A23,23,0,1,0,38.5,66a67.8,67.8,0,0,0,.15,77.24,15,15,0,0,0,22.07,20.26,67.88,67.88,0,0,0,92.75-25.18,17.48,17.48,0,0,0,9-33.54ZM38.5,50.5a17,17,0,0,1,31.21-9.3,16.77,16.77,0,0,1,1.43,2.64,17.57,17.57,0,0,1,.92,2.88,16.85,16.85,0,0,1,.44,3.78A17,17,0,0,1,44.28,63.24a17.62,17.62,0,0,1-2.07-2.16A17,17,0,0,1,38.5,50.5ZM58.74,155.1a8.6,8.6,0,0,1-1.23,2.84A9,9,0,0,1,50,162a9,9,0,0,1-7.58-13.84,9.2,9.2,0,0,1,2-2.21A9,9,0,0,1,59,153,9.08,9.08,0,0,1,58.74,155.1ZM94.5,166.5A61.55,61.55,0,0,1,64,158.43,14.86,14.86,0,0,0,65,153a15,15,0,0,0-21.6-13.45,61.85,61.85,0,0,1-.3-69.69A23,23,0,0,0,78.5,50.5a23.22,23.22,0,0,0-.71-5.69,61.94,61.94,0,0,1,78.69,58.71l-.48,0a17.5,17.5,0,0,0-8.35,32.88A62,62,0,0,1,94.5,166.5Zm61.95-34-.45,0a11.79,11.79,0,0,1-5.5-1.41A11.49,11.49,0,0,1,156,109.5h.28a11.6,11.6,0,0,1,3,.47,11.11,11.11,0,0,1,2.91,1.32,11.49,11.49,0,0,1-5.71,21.18Z"/><path class="cls-2" d="M96.18,59.63A3,3,0,0,0,94,58.5a3,3,0,0,0-2.31.94c-1,1-23.55,25.34-19.68,46.78,1.61,9,7.51,16,17.53,21V152.5a3,3,0,0,0,6,0v-25a3,3,0,0,0,1.26-.3c8.76-4.33,14.14-10.75,16-19.06C117.52,86.83,97.06,60.74,96.18,59.63Zm10.72,47.2c-1.37,6.11-5.11,10.78-11.4,14.25V91.5a3,3,0,0,0-6,0v28.86c-6.6-3.91-10.51-9-11.63-15.2C75.22,90.48,88.13,73,93.64,66.31,98.61,73.44,110.2,92.1,106.9,106.83Z"/></g><g id="Calque_2" data-name="Calque 2"><rect class="cls-3" width="200" height="200"/></g></svg>