<svg xmlns="http://www.w3.org/2000/svg" viewBox="0 0 200 200"><defs><style>.cls-1{fill:red;}.cls-2{fill:#00c8c7;}.cls-3{fill:none;}</style></defs><g id="Calque_2" data-name="Calque 2"><path class="cls-1" d="M135.66,131.55l14.41,28.38-13.79-4.5a3,3,0,0,0-3.79,1.92L128,171.16l-16.09-31.7-.13.76a3,3,0,0,1-3,2.51h-2l19.08,37.6a3,3,0,0,0,2.67,1.64h.23a3,3,0,0,0,2.63-2.06l5.84-17.84,17.83,5.83a3,3,0,0,0,3.6-4.21L140.57,128l-2.7,2.7A3,3,0,0,1,135.66,131.55Z"/><path class="cls-1" d="M88.42,140.82,73,171.16,68.5,157.35a3,3,0,0,0-3.79-1.92l-13.79,4.5,14.53-28.62a3,3,0,0,1-3.32-.63l-2.05-2.05L42.3,163.68a3,3,0,0,0,3.6,4.21l17.83-5.83,5.85,17.84A3,3,0,0,0,72.2,182h.23a3,3,0,0,0,2.67-1.64l19.08-37.6h-3A3,3,0,0,1,88.42,140.82Z"/><path class="cls-2" d="M159.84,68.63,145,66.16a46.12,46.12,0,0,0-3.15-7.55l8.74-12.23a3,3,0,0,0-.32-3.87L137.87,30.08a3,3,0,0,0-3.87-.32l-12.34,8.81a47.23,47.23,0,0,0-7.41-3l-2.5-15a3,3,0,0,0-3-2.51H91.21a3,3,0,0,0-3,2.51L85.72,35.73a47.24,47.24,0,0,0-7.15,3L66,29.76a3,3,0,0,0-3.87.32L49.7,42.51a3,3,0,0,0-.32,3.87l9,12.68a47.91,47.91,0,0,0-2.88,7L40.16,68.63a3,3,0,0,0-2.51,3V89.17a3,3,0,0,0,2.51,3L55.55,94.7a47.91,47.91,0,0,0,2.88,7l-9,12.68a3,3,0,0,0,.32,3.87l10.38,10.38,2.05,2.05a3,3,0,0,0,3.32.63A3.35,3.35,0,0,0,66,131l12.57-9a47.24,47.24,0,0,0,7.15,3l2.53,15.19a3,3,0,0,0,.17.6,3,3,0,0,0,2.79,1.91h17.58a3,3,0,0,0,3-2.51l.13-.76,2.37-14.24a47.23,47.23,0,0,0,7.41-3L134,131a3,3,0,0,0,3.87-.32l2.7-2.7,9.73-9.73a3,3,0,0,0,.32-3.87l-8.74-12.23A46.12,46.12,0,0,0,145,94.6l14.81-2.47a3,3,0,0,0,2.51-3V71.59A3,3,0,0,0,159.84,68.63Zm-3.49,18L142.19,89a3,3,0,0,0-2.4,2.17,40.89,40.89,0,0,1-4,9.69,3,3,0,0,0,.15,3.25l8.36,11.7-8.84,8.84-11.79-8.42a3,3,0,0,0-3.22-.17,40.64,40.64,0,0,1-9.58,3.91,3,3,0,0,0-2.19,2.41l-2.39,14.36H93.75L91.33,122.2a3,3,0,0,0-2.15-2.39,41.29,41.29,0,0,1-9.32-3.92,3,3,0,0,0-3.24.15l-12,8.6-8.84-8.84,8.66-12.13a3,3,0,0,0,.17-3.21,41.08,41.08,0,0,1-3.79-9.21,3,3,0,0,0-2.4-2.16L43.65,86.63V74.13l14.73-2.46a3,3,0,0,0,2.4-2.16,40.89,40.89,0,0,1,3.79-9.21,3,3,0,0,0-.17-3.21L55.74,45l8.84-8.84,12,8.6a3,3,0,0,0,3.24.15A41.29,41.29,0,0,1,89.18,41a3,3,0,0,0,2.15-2.39L93.75,24h12.5l2.39,14.36a3,3,0,0,0,2.19,2.41,40.64,40.64,0,0,1,9.58,3.91,3,3,0,0,0,3.22-.17l11.79-8.42L144.26,45l-8.36,11.7a3,3,0,0,0-.15,3.25,40.89,40.89,0,0,1,4,9.69,3,3,0,0,0,2.4,2.17l14.16,2.36Z"/><path class="cls-1" d="M100,103.19A22.82,22.82,0,1,0,77.19,80.38,22.83,22.83,0,0,0,100,103.19Zm0-39.63A16.82,16.82,0,1,1,83.19,80.38,16.84,16.84,0,0,1,100,63.56Z"/><rect class="cls-3" width="200" height="200"/></g></svg>