<svg id="Calque_1" data-name="Calque 1" xmlns="http://www.w3.org/2000/svg" viewBox="0 0 200 200"><defs><style>.cls-1{fill:#00c8c7;}.cls-2{fill:red;}</style></defs><path class="cls-1" d="M141.57,48.27a17.07,17.07,0,1,0-4.84-3.54L108.27,83.21a17.19,17.19,0,0,1,5.11,3.19ZM149,22a11,11,0,1,1-11,11A11,11,0,0,1,149,22Z"/><path class="cls-1" d="M55.1,74.41A16.73,16.73,0,0,0,56,69a17,17,0,1,0-3.79,10.67L85.28,96a17,17,0,0,1,2.1-5.65ZM39,80A11,11,0,1,1,50,69,11,11,0,0,1,39,80Z"/><path class="cls-1" d="M162,94a17,17,0,0,0-15.73,10.57L119,99.17a16.68,16.68,0,0,1-1.13,5.89L145,110.44c0,.19,0,.37,0,.56a17,17,0,1,0,17-17Zm0,28a11,11,0,1,1,11-11A11,11,0,0,1,162,122Z"/><path class="cls-1" d="M86.85,106.68,50.07,137.12a16.94,16.94,0,1,0,3.8,4.65l36.61-30.3A17.23,17.23,0,0,1,86.85,106.68ZM39,161a11,11,0,1,1,11-11A11,11,0,0,1,39,161Z"/><path class="cls-1" d="M137,151a16.94,16.94,0,0,0-5.26.84l-20.67-38.49a16.91,16.91,0,0,1-5.58,2.29l21,39.05A17,17,0,1,0,137,151Zm0,28a11,11,0,1,1,11-11A11,11,0,0,1,137,179Z"/><path class="cls-2" d="M113.38,86.4a17.19,17.19,0,0,0-5.11-3.19,17,17,0,0,0-23,12.8A17.32,17.32,0,0,0,85,99a16.93,16.93,0,0,0,1.85,7.68,17.23,17.23,0,0,0,3.63,4.79A16.94,16.94,0,0,0,102,116a17.51,17.51,0,0,0,3.49-.36,16.91,16.91,0,0,0,5.58-2.29,17.09,17.09,0,0,0,6.79-8.29A16.68,16.68,0,0,0,119,99.17c0-.06,0-.11,0-.17A17,17,0,0,0,113.38,86.4ZM102,110a11,11,0,1,1,11-11A11,11,0,0,1,102,110Z"/></svg>