<svg xmlns="http://www.w3.org/2000/svg" viewBox="0 0 200 200"><defs><style>.cls-1{fill:#34bab5;}.cls-2{fill:red;}.cls-3{fill:none;}</style></defs><g id="pictos"><g id="g5027"><g id="rect4882"><path class="cls-1" d="M87.11,167.88H39.86a3,3,0,0,1-3-3V35.12a3,3,0,0,1,3-3H87.11a3,3,0,0,1,3,3V164.88A3,3,0,0,1,87.11,167.88Zm-44.25-6H84.11V38.12H42.86Z"/></g><g id="circle4884"><path class="cls-2" d="M63.48,153.94a15.85,15.85,0,1,1,15.85-15.85A15.87,15.87,0,0,1,63.48,153.94Zm0-25.69a9.85,9.85,0,1,0,9.85,9.84A9.85,9.85,0,0,0,63.48,128.25Z"/></g><g id="rect4886"><path class="cls-1" d="M160.14,167.88H112.89a3,3,0,0,1-3-3V35.12a3,3,0,0,1,3-3h47.25a3,3,0,0,1,3,3V164.88A3,3,0,0,1,160.14,167.88Zm-44.25-6h41.25V38.12H115.89Z"/></g><g id="circle4888"><path class="cls-2" d="M136.52,153.94a15.85,15.85,0,1,1,15.85-15.85A15.87,15.87,0,0,1,136.52,153.94Zm0-25.69a9.85,9.85,0,1,0,9.85,9.84A9.85,9.85,0,0,0,136.52,128.25Z"/></g><g id="rect4840"><path class="cls-1" d="M147.43,102.05H125.6a3,3,0,0,1-3-3V50.44a3,3,0,0,1,3-3h21.83a3,3,0,0,1,3,3V99.05A3,3,0,0,1,147.43,102.05Zm-18.83-6h15.83V53.44H128.6Z"/></g><g id="rect4890"><path class="cls-1" d="M74.4,103.21H52.57a3,3,0,0,1-3-3V51.6a3,3,0,0,1,3-3H74.4a3,3,0,0,1,3,3v48.61A3,3,0,0,1,74.4,103.21Zm-18.83-6H71.4V54.6H55.57Z"/></g></g></g><g id="frame"><rect class="cls-3" width="200" height="200"/></g></svg>