<svg xmlns="http://www.w3.org/2000/svg" viewBox="0 0 200 200"><defs><style>.cls-1{fill:#34bab5;}.cls-2{fill:red;}.cls-3{fill:none;}</style></defs><g id="pictos"><g id="g5004"><path class="cls-1" d="M105.26,154.86,91.33,52.69a3,3,0,0,0-3-2.6h0a3,3,0,0,0-3,2.57l-12,81.75L67,84.06a3,3,0,0,0-5.86-.47l-8.65,29.2H44.77a15.87,15.87,0,1,0-.17,6H54.68a3,3,0,0,0,2.88-2.15l5.25-17.73,7.47,57.9a3,3,0,0,0,3,2.62h0a3,3,0,0,0,3-2.57l12-82.31,11.06,81.12a3,3,0,0,0,6-.81ZM36.12,122.29a9.84,9.84,0,1,1,0-13.92A9.8,9.8,0,0,1,36.12,122.29Z"/><path class="cls-2" d="M182.05,87.38a15.86,15.86,0,0,0-22.41,0,15.7,15.7,0,0,0-4.47,9.09h-5.93l-6.38-23.82a3,3,0,0,0-5.8,0l-12.58,46.94L116,55.8A15.84,15.84,0,1,0,99.81,29.58h0a15.82,15.82,0,0,0,10.27,27l10.43,78.72a3,3,0,0,0,2.78,2.6h.2a3,3,0,0,0,2.89-2.22L140,85,144,100.25a3,3,0,0,0,2.9,2.22h8.57a15.83,15.83,0,1,0,26.54-15.09Zm-78-53.55h0a9.85,9.85,0,1,1,0,13.92A9.86,9.86,0,0,1,104.05,33.83Zm73.76,71.72a9.86,9.86,0,1,1,2.88-7A9.77,9.77,0,0,1,177.81,105.55Z"/></g></g><g id="frame"><rect class="cls-3" width="200" height="200"/></g></svg>