<svg xmlns="http://www.w3.org/2000/svg" viewBox="0 0 200 200"><defs><style>.cls-1{fill:#34bab5;}.cls-2{fill:red;}.cls-3{fill:none;}</style></defs><g id="pictos"><g id="g4630"><path class="cls-1" d="M102.64,57a3,3,0,0,0-3.94-1.58L69.19,68.08a3,3,0,0,0-1.81,2.76l0,72.06a15.94,15.94,0,1,0,6,0l0-70.06L101.06,61A3,3,0,0,0,102.64,57ZM80.27,158.44a9.85,9.85,0,1,1-2.89-7A9.76,9.76,0,0,1,80.27,158.44Z"/><path class="cls-2" d="M170.84,55.54,101.17,26a3,3,0,0,0-2.34,0L29.16,55.54a3,3,0,0,0,0,5.52l24.2,10.28v44a3,3,0,0,0,1.11,2.34l21.82,17.64a3,3,0,0,0,1.89.66h43.64a3,3,0,0,0,1.89-.66l12.24-9.9a16,16,0,1,0-4.61-4L120.76,130H79.24L59.36,113.91v-40L98.83,90.65a3,3,0,0,0,2.34,0l69.67-29.59a3,3,0,0,0,0-5.52Zm-27.06,46.27a9.85,9.85,0,1,1-9.85,9.84A9.85,9.85,0,0,1,143.78,101.81ZM100,84.63,38,58.3,100,32,162,58.3Z"/></g></g><g id="frame"><rect class="cls-3" width="200" height="200"/></g></svg>