<svg xmlns="http://www.w3.org/2000/svg" viewBox="0 0 200 200"><defs><style>.cls-1{fill:red;}.cls-2{fill:#34bab5;}.cls-3{fill:none;}</style></defs><g id="pictos"><g id="g4960"><path class="cls-1" d="M173.86,33.46A3,3,0,0,0,171,31.31L41.13,30.68h0a3,3,0,0,0-2.47,4.7L99,123.53,57.49,149.68a3,3,0,0,0,3.2,5.08l93-58.55L153,125.87,114,151a3,3,0,0,0,1.63,5.52,3,3,0,0,0,1.63-.48l40.3-26A3,3,0,0,0,159,127.6l.82-36.83a3,3,0,0,0-4.6-2.61L104.1,120.33,46.82,36.71,161,37.26,121,63.36a15.95,15.95,0,1,0,3.23,5.06l48.36-31.6A3,3,0,0,0,173.86,33.46ZM109.55,84.1a9.85,9.85,0,1,1,9.85-9.85A9.86,9.86,0,0,1,109.55,84.1Z"/><path class="cls-2" d="M171.22,137.63a15.86,15.86,0,0,0-15.55,12.84H44.33a15.85,15.85,0,1,0,0,6H155.67a15.84,15.84,0,1,0,15.55-18.84ZM28.78,163.32a9.85,9.85,0,1,1,9.85-9.85A9.86,9.86,0,0,1,28.78,163.32Zm142.44,0a9.85,9.85,0,1,1,9.85-9.85A9.86,9.86,0,0,1,171.22,163.32Z"/></g></g><g id="frame"><rect class="cls-3" width="200" height="200"/></g></svg>