<svg xmlns="http://www.w3.org/2000/svg" viewBox="0 0 200 200"><defs><style>.cls-1{fill:#34bab5;}.cls-2{fill:red;}.cls-3{fill:none;}</style></defs><g id="pictos"><g id="g4612"><g id="g4448"><g id="g4454"><path class="cls-1" d="M98,122.53,56.61,163.88,36.12,143.39,45.56,134l11.85,11.86a3,3,0,1,0,4.24-4.25L49.8,129.71l16.79-16.8,7,7a3,3,0,0,0,4.25-4.24l-7-7,6.89-6.89-.67-.68-4.82-2.31L29.76,141.27a3,3,0,0,0,0,4.24l24.73,24.73a3,3,0,0,0,2.12.88,3,3,0,0,0,2.12-.88l43.42-43.41Z"/><path class="cls-1" d="M170.24,54.49,145.51,29.76a3,3,0,0,0-4.24,0l-42,42,2.31,4.83.68.67,6.44-6.44,7,7a3,3,0,0,0,2.12.87,3,3,0,0,0,2.12-.88,3,3,0,0,0,0-4.24l-7-7,16.8-16.79,11.85,11.85a3,3,0,1,0,4.25-4.24L134,45.56l9.44-9.44,20.49,20.49-41,41,4.26,4.21,43.13-43.13a3,3,0,0,0,0-4.24Z"/><path class="cls-2" d="M171.93,141.92,104,74.84,86.26,37.67A3,3,0,0,0,84,36L30.67,27.22a3,3,0,0,0-3.45,3.47l9.16,52.83A3,3,0,0,0,38,85.71l37.24,17.86,66.63,68.35a3,3,0,0,0,2.13.9h0a3,3,0,0,0,2.12-.88l25.76-25.76a3,3,0,0,0,0-4.26ZM34.65,38.44,53.5,57.28a2.6,2.6,0,0,0,.32.26A15.85,15.85,0,1,0,58,53.36a2.6,2.6,0,0,0-.26-.32L39.45,34.74l42.07,6.93L96.88,73.8,74.26,96.43,42,81ZM60,59.49a9.84,9.84,0,1,1,0,13.92A9.85,9.85,0,0,1,60,59.49Zm84.13,106.06L79.68,99.49,99.94,79.23l65.63,64.84Z"/></g></g></g></g><g id="frame"><rect class="cls-3" width="200" height="200"/></g></svg>