<svg xmlns="http://www.w3.org/2000/svg" viewBox="0 0 200 200"><defs><style>.cls-1{fill:#34bab5;}.cls-2{fill:red;}</style></defs><g id="pictos"><path class="cls-1" d="M151.67,176.7h-137a3,3,0,0,1-3-3V26.3a3,3,0,0,1,3-3h36.2a3,3,0,0,1,3,3l.84,78.26,46.87-29.18a3,3,0,0,1,4.59,2.55v26.33l42.31-28.81a3,3,0,0,1,4.69,2.43l.5,33.1a3,3,0,0,1-3,3h0a3,3,0,0,1-3-3l-.42-27.54-42.4,28.87a3,3,0,0,1-4.68-2.48V83.3L53.35,112.45a3,3,0,0,1-4.58-2.52L47.9,29.3H17.67V170.7h131l-.45-27.45a3,3,0,0,1,6-.1l.5,30.5a3,3,0,0,1-3,3Z"/><path class="cls-2" d="M189.21,143.92l-20.86-10.43a19.18,19.18,0,1,0-2.88,5.26l21.05,10.53a3,3,0,0,0,1.34.32,3,3,0,0,0,1.35-5.68Zm-38.84-3.72a13.1,13.1,0,1,1,13.1-13.1A13.11,13.11,0,0,1,150.37,140.2Z"/></g></svg>