<svg xmlns="http://www.w3.org/2000/svg" viewBox="0 0 200 200"><defs><style>.cls-1{fill:none;}.cls-2{fill:red;}.cls-3{fill:#34bab5;}</style></defs><g id="Calque_1" data-name="Calque 1"><g id="frame"><rect class="cls-1" width="200" height="200"/></g></g><g id="pictos"><path class="cls-2" d="M99.5,185.23H8.7a3,3,0,0,1-3-3v-14a3,3,0,0,1,.46-1.6l6-9.5a3,3,0,0,1,2.54-1.4H93.5a3,3,0,0,1,2.54,1.4l6,9.5a3,3,0,0,1,.46,1.6v14A3,3,0,0,1,99.5,185.23Zm-87.8-6H96.5V169.1l-4.65-7.37H16.35L11.7,169.1Z"/><path class="cls-3" d="M175.2,110.83a19.05,19.05,0,0,0-13.77,5.89L108.76,83.41,120,66.1l7.26,4.72a3,3,0,0,0,1.64.49,2.62,2.62,0,0,0,.62-.07,3,3,0,0,0,1.89-1.3L139.83,57a3,3,0,0,0-.88-4.15L81.12,15.26a3,3,0,0,0-4.15.88L68.57,29a3,3,0,0,0-.42,2.26,3,3,0,0,0,1.3,1.9L76.77,38,51.13,77.37l-7.45-4.84a2.93,2.93,0,0,0-2.25-.42,3,3,0,0,0-1.9,1.3l-8.39,12.9A3,3,0,0,0,32,90.46l57.84,37.63a3,3,0,0,0,1.64.49,3.37,3.37,0,0,0,.62-.07,3,3,0,0,0,1.89-1.3l8.4-12.91a3,3,0,0,0-.88-4.15l-7.14-4.64,11.11-17.07L158,121.65a19.09,19.09,0,1,0,17.19-10.82ZM80.36,21.92l52.81,34.36L128,64.16,75.23,29.8Zm10.25,99.51L37.8,87.07l5.13-7.88,52.8,34.36ZM81.37,41.89l33.19,21.6L89.53,102,56.34,80.37ZM175.2,143a13.1,13.1,0,1,1,13.1-13.1A13.12,13.12,0,0,1,175.2,143Z"/></g></svg>