<svg xmlns="http://www.w3.org/2000/svg" viewBox="0 0 200 200"><defs><style>.cls-1{fill:none;}.cls-2{fill:#34bab5;}.cls-3{fill:red;}</style></defs><g id="Calque_1" data-name="Calque 1"><g id="frame"><rect class="cls-1" width="200" height="200"/></g></g><g id="pictos"><path class="cls-2" d="M174.9,80.6a19.79,19.79,0,0,0-11.25,3.5l-47.6-47.59a19.9,19.9,0,1,0-33.5,0L33.78,85.38A3,3,0,0,0,35.9,90.5,3,3,0,0,0,38,89.62L86.52,41a19.84,19.84,0,0,0,25.57,0l47.18,47.19a19.78,19.78,0,0,0-.08,24.45L112.55,159.4a19.77,19.77,0,0,0-26.45-.05L38,111.28a3,3,0,0,0-4.24,4.24L82.25,164a19.9,19.9,0,1,0,34.14.06l47.14-47.24A19.89,19.89,0,1,0,174.9,80.6ZM88.67,34.73l0,0,0,0a13.9,13.9,0,1,1,21.4,0l0,0a.1.1,0,0,0,0,0,13.86,13.86,0,0,1-21.27,0ZM99.3,188.1A13.9,13.9,0,1,1,110,165.31a3.65,3.65,0,0,0,.24.31A13.88,13.88,0,0,1,99.3,188.1Zm75.6-73.7a13.9,13.9,0,1,1,13.9-13.9A13.92,13.92,0,0,1,174.9,114.4Z"/><path class="cls-3" d="M25.1,120.4A19.9,19.9,0,1,1,45,100.5,19.93,19.93,0,0,1,25.1,120.4Zm0-33.8A13.9,13.9,0,1,0,39,100.5,13.92,13.92,0,0,0,25.1,86.6Z"/><path class="cls-3" d="M106.4,124H92.3a3,3,0,0,1-3-3V110.5H78.8a3,3,0,0,1-3-3V93.4a3,3,0,0,1,3-3H89.3V79.9a3,3,0,0,1,3-3h14.1a3,3,0,0,1,3,3V90.4h10.5a3,3,0,0,1,3,3v14.1a3,3,0,0,1-3,3H109.4V121A3,3,0,0,1,106.4,124Zm-11.1-6h8.1V107.5a3,3,0,0,1,3-3h10.5V96.4H106.4a3,3,0,0,1-3-3V82.9H95.3V93.4a3,3,0,0,1-3,3H81.8v8.1H92.3a3,3,0,0,1,3,3Z"/></g></svg>