<svg xmlns="http://www.w3.org/2000/svg" viewBox="0 0 200 200"><defs><style>.cls-1{fill:none;}.cls-2{fill:red;}.cls-3{fill:#34bab5;}</style></defs><g id="Calque_1" data-name="Calque 1"><g id="frame"><rect class="cls-1" width="200" height="200"/></g></g><g id="pictos"><path class="cls-2" d="M86,176.16l-2.15-4.4a3,3,0,0,0-2.7-1.68h-1.8l-6.08-42.34a3,3,0,0,0-3-2.58H32.16a3,3,0,0,0-3,2.57L23,170.08H21.21a3,3,0,0,0-2.7,1.7l-2.15,4.49a3,3,0,0,0-.3,1.3v10.48a3,3,0,0,0,3,3H83.34a3,3,0,0,0,3-3V177.48A3,3,0,0,0,86,176.16Zm-51.28-45h33l5.59,38.92H29.08Zm45.58,53.89H22.06v-6.8l1-2.17H79.32l1,2.09Z"/><path class="cls-3" d="M180.94,9H68.09a3,3,0,0,0-3,3V114.22a3,3,0,0,0,3,3H86v18a3,3,0,0,0,1.78,2.74,2.88,2.88,0,0,0,1.22.26,3,3,0,0,0,2-.76l22.54-20.2h67.44a3,3,0,0,0,3-3V12A3,3,0,0,0,180.94,9Zm-3,102.27H112.35a3,3,0,0,0-2,.77L92,128.47V114.22a3,3,0,0,0-3-3H71.09V15H177.94Z"/><path class="cls-3" d="M124.52,68.37a3,3,0,0,0-3,3V99.16a3,3,0,0,0,6,0V71.37A3,3,0,0,0,124.52,68.37Z"/><path class="cls-3" d="M124.52,60.33a18.07,18.07,0,1,0-18.07-18.06A18.08,18.08,0,0,0,124.52,60.33Zm0-30.13a12.07,12.07,0,1,1-12.07,12.07A12.08,12.08,0,0,1,124.52,30.2Z"/></g></svg>