<svg xmlns="http://www.w3.org/2000/svg" viewBox="0 0 200 200"><defs><style>.cls-1{fill:none;}.cls-2{fill:red;}.cls-3{fill:#34bab5;}</style></defs><g id="Calque_1" data-name="Calque 1"><g id="frame"><rect class="cls-1" width="200" height="200"/></g></g><g id="pictos"><path class="cls-2" d="M153.17,130.27A21.83,21.83,0,1,0,175,152.1,21.86,21.86,0,0,0,153.17,130.27Zm0,37.66A15.83,15.83,0,1,1,169,152.1,15.85,15.85,0,0,1,153.17,167.93Z"/><path class="cls-3" d="M122.85,26.07H28a3,3,0,0,0-3,3V61.4a3,3,0,0,0,3,3H38.74V170.93a3,3,0,0,0,3,3H109a3,3,0,0,0,3-3V64.4h10.85a3,3,0,0,0,3-3V29.07A3,3,0,0,0,122.85,26.07ZM44.74,107.26h18.2a3,3,0,0,0,0-6H44.74V81.33H81v59H44.74ZM106,167.93H44.74V146.34H84a3,3,0,0,0,3-3v-65a3,3,0,0,0-3-3H44.74V64.4H106ZM119.85,58.4H31V32.07h88.85Z"/></g></svg>