<svg xmlns="http://www.w3.org/2000/svg" viewBox="0 0 200 200"><defs><style>.cls-1{fill:none;}.cls-2{fill:#34bab5;}.cls-3{fill:red;}</style></defs><g id="Calque_1" data-name="Calque 1"><g id="frame"><rect class="cls-1" width="200" height="200"/></g></g><g id="Calque_6" data-name="Calque 6"><path class="cls-2" d="M110.84,104a15.22,15.22,0,1,0-22.76-.32l-11.33,8.84V135.2l6,3.47V115.46l10.25-8a15.06,15.06,0,0,0,12.78.21l10,7.78v24.48l6-3.46V112.54ZM99.6,103a9.23,9.23,0,1,1,9.23-9.22A9.24,9.24,0,0,1,99.6,103Z"/><path class="cls-2" d="M100,28,37,64.42v72.79l63,36.39,63-36.39V64.42Zm57,105.71-57,32.93L43,133.74V67.89L100,35l57,32.93Z"/><path class="cls-3" d="M100.36,46.31,53,73.67V128.4l47.39,27.36,47.39-27.36V73.67Zm41.39,78.62-20,11.55-6,3.46-15.39,8.89L82.75,138.67l-6-3.47L59,124.93V77.14l41.39-23.9,41.39,23.9Z"/></g></svg>