<?xml version="1.0" encoding="UTF-8"?>
<svg width="20px" height="20px" viewBox="0 0 20 20" version="1.1" xmlns="http://www.w3.org/2000/svg" xmlns:xlink="http://www.w3.org/1999/xlink">
    <title>Icône Remix</title>
    <g id="Lot-3-V4" stroke="none" stroke-width="1" fill="none" fill-rule="evenodd">
        <g id="03-Participants/Detail/1440" transform="translate(-982.000000, -309.000000)">
            <g id="02-Composants/Boutons/Thème-clair/Primaires/Icône-seul/LG/1)-Défaut-LG" transform="translate(972.000000, 299.500000)">
                <g id="Icône-Remix" transform="translate(8.000000, 8.000000)">
                    <rect id="Rectangle" x="0" y="0" width="24" height="24"></rect>
                    <path d="M11.9999985,2 C6.475,2 1.99999853,6.475 1.99999853,12 C1.99767383,16.3054085 4.7529015,20.1283977 8.838,21.488 C9.338,21.575 9.525,21.275 9.525,21.012 C9.525,20.775 9.512,19.988 9.512,19.15 C6.99999853,19.613 6.35,18.538 6.15,17.975 C6.037,17.687 5.55,16.8 5.125,16.562 C4.775,16.375 4.275,15.912 5.112,15.9 C5.9,15.887 6.462,16.625 6.65,16.925 C7.55,18.437 8.988,18.012 9.562,17.75 C9.65,17.1 9.912,16.663 10.2,16.413 C7.975,16.163 5.65,15.3 5.65,11.475 C5.65,10.387 6.037,9.488 6.675,8.787 C6.575,8.537 6.225,7.512 6.775,6.137 C6.775,6.137 7.612,5.875 9.525,7.163 C10.3390629,6.93706071 11.1801662,6.82334354 12.025,6.825 C12.875,6.825 13.725,6.937 14.525,7.162 C16.437,5.862 17.275,6.138 17.275,6.138 C17.825,7.513 17.475,8.538 17.375,8.788 C18.012,9.488 18.4,10.375 18.4,11.475 C18.4,15.313 16.063,16.163 13.838,16.413 C14.2,16.725 14.513,17.325 14.513,18.263 C14.513,19.6 14.4999985,20.675 14.4999985,21.013 C14.4999985,21.275 14.688,21.587 15.188,21.487 C19.2582341,20.112772 21.9988366,16.295964 21.9999985,12 C21.9999985,6.475 17.525,2 11.9999985,2 Z" id="Path" fill="#000091" fill-rule="nonzero"></path>
                </g>
            </g>
        </g>
    </g>
</svg>