<svg xmlns="http://www.w3.org/2000/svg" viewBox="0 0 200 200"><defs><style>.cls-1{fill:none;}.cls-2{fill:red;}.cls-3{fill:#34bab5;}</style></defs><g id="Calque_1" data-name="Calque 1"><g id="frame"><rect class="cls-1" width="200" height="200"/></g></g><g id="Calque_6" data-name="Calque 6"><path class="cls-2" d="M169.5,57.5H30.5a3,3,0,0,0-3,3v79a3,3,0,0,0,3,3h139a3,3,0,0,0,3-3v-79A3,3,0,0,0,169.5,57.5Zm-3,6v13H33.5v-13Zm-133,73v-54h133v54Z"/><path class="cls-3" d="M151.5,98.5h-49a3,3,0,0,1,0-6h49a3,3,0,0,1,0,6Z"/><path class="cls-3" d="M151.5,113.5h-49a3,3,0,0,1,0-6h49a3,3,0,0,1,0,6Z"/><path class="cls-3" d="M151.5,127.5h-49a3,3,0,0,1,0-6h49a3,3,0,0,1,0,6Z"/><path class="cls-3" d="M62.26,125.48a15.23,15.23,0,1,1,15.23-15.23A15.24,15.24,0,0,1,62.26,125.48Zm0-24.45a9.23,9.23,0,1,0,9.23,9.22A9.23,9.23,0,0,0,62.26,101Z"/></g></svg>