<svg xmlns="http://www.w3.org/2000/svg" viewBox="0 0 200 200"><defs><style>.cls-1{fill:none;}.cls-2{fill:red;}.cls-3{fill:#34bab5;}</style></defs><g id="Calque_1" data-name="Calque 1"><g id="frame"><rect class="cls-1" width="200" height="200"/></g></g><g id="Calque_6" data-name="Calque 6"><path class="cls-2" d="M131,94a15.24,15.24,0,1,0-21.72-.4l-9.3,11.6L91,94a15.24,15.24,0,1,0-21.72-.4L57.5,108.34v33l6,3.46V110.45L74.21,97.09A15,15,0,0,0,86,97.31l8.68,10.83a15.45,15.45,0,0,1,3.84-1,16.06,16.06,0,0,1,2.09-.16c.28,0,.56,0,.83,0a14.92,14.92,0,0,1,4.2.84l8.6-10.73a15,15,0,0,0,11.76.22l10.53,13.14v34.33l6-3.46v-33ZM80.35,92.4a9.23,9.23,0,1,1,9.23-9.23A9.24,9.24,0,0,1,80.35,92.4Zm40,0a9.23,9.23,0,1,1,9.23-9.23A9.24,9.24,0,0,1,120.35,92.4Z"/><path class="cls-3" d="M100,27.22,37,63.61v72.78l63,36.39,63-36.39V63.61Zm16.73,129L100,165.86l-16.27-9.4v-12.6l10.24-8a15.06,15.06,0,0,0,12.78.21l10,7.78Zm-16.15-24.8a9.23,9.23,0,1,1,9.23-9.23A9.24,9.24,0,0,1,100.58,131.4ZM157,132.93l-14.53,8.39-6,3.46-13.77,7.95v-11.8l-10.92-8.52a15.16,15.16,0,0,0-6.2-24.59,14.92,14.92,0,0,0-4.2-.84c-.27,0-.55,0-.83,0a16.06,16.06,0,0,0-2.09.16,15.45,15.45,0,0,0-3.84,1,15.2,15.2,0,0,0-5.6,24l-11.32,8.84V153L63.5,144.78l-6-3.46L43,132.93V67.07l57-32.93,57,32.93Z"/></g></svg>