<svg xmlns="http://www.w3.org/2000/svg" viewBox="0 0 200 200"><defs><style>.cls-1{fill:none;}.cls-2{fill:#34bab5;}.cls-3{fill:red;}</style></defs><g id="Calque_1" data-name="Calque 1"><g id="frame"><rect class="cls-1" width="200" height="200"/></g></g><g id="Calque_6" data-name="Calque 6"><path class="cls-2" d="M43,163.75a3.07,3.07,0,0,1-1.74-.55,3,3,0,0,1-1.2-3.06l5-24a3,3,0,1,1,5.88,1.22l-3.61,17.29,34.13-20.47a3,3,0,0,1,3.08,5.14l-40,24A2.94,2.94,0,0,1,43,163.75Z"/><path class="cls-2" d="M171,139.25H84a3,3,0,0,1,0-6h81v-71H35v71H48a3,3,0,0,1,0,6H29v-83H171Z"/><path class="cls-3" d="M59.88,115.62a15.23,15.23,0,1,1,15.23-15.23A15.25,15.25,0,0,1,59.88,115.62Zm0-24.46a9.23,9.23,0,1,0,9.23,9.23A9.24,9.24,0,0,0,59.88,91.16Z"/><path class="cls-3" d="M99.38,115.62a15.23,15.23,0,1,1,15.23-15.23A15.25,15.25,0,0,1,99.38,115.62Zm0-24.46a9.23,9.23,0,1,0,9.23,9.23A9.24,9.24,0,0,0,99.38,91.16Z"/><path class="cls-3" d="M138.88,115.62a15.23,15.23,0,1,1,15.23-15.23A15.25,15.25,0,0,1,138.88,115.62Zm0-24.46a9.23,9.23,0,1,0,9.23,9.23A9.24,9.24,0,0,0,138.88,91.16Z"/></g></svg>